<svg display="none" width="0" height="0" version="1.1" xmlns="http://www.w3.org/2000/svg" xmlns:xlink="http://www.w3.org/1999/xlink">
  <defs>
    
    <!-- ////////////////////
    |
    | Interface
    |
    ///////////////////// -->

    <!-- contact -->
    <symbol id="icon-contact" viewBox="0 0 128 128">
      <path d="M64.001,66.735 C64.001,66.735 128.001,128.002 128.001,128.002 C128.001,128.002 -0.000,128.002 -0.000,128.002 C-0.000,128.002 64.001,66.735 64.001,66.735 ZM64.001,0.000 C64.001,0.000 -0.000,48.000 -0.000,48.000 C-0.000,48.000 -0.000,109.811 -0.000,109.811 C-0.000,109.811 35.555,74.667 35.555,74.667 C35.555,74.667 17.778,49.778 17.778,49.778 C17.778,49.778 64.000,14.222 64.000,14.222 C64.000,14.222 109.577,49.516 109.577,49.516 C109.577,49.516 92.445,74.667 92.445,74.667 C92.445,74.667 128.001,110.223 128.001,110.223 C128.001,110.223 128.001,48.000 128.001,48.000 C128.001,48.000 64.001,0.000 64.001,0.000 Z"/>
    </symbol>
    <!-- /contact -->

    <!-- locate -->
    <symbol id="icon-locate" viewBox="0 0 92 128">
      <path d="M91.963,45.468 C91.963,20.254 71.332,-0.002 45.880,-0.002 C20.429,-0.002 0.001,20.528 0.001,45.739 C0.001,54.848 3.123,63.380 7.547,70.503 C7.547,70.503 7.547,70.522 7.547,70.522 C7.547,70.522 7.383,70.590 7.383,70.590 C7.651,71.003 7.824,71.416 8.106,71.819 C8.106,71.819 45.932,128.002 45.932,128.002 C45.932,128.002 83.897,71.662 83.897,71.662 C84.080,71.395 84.245,70.768 84.423,70.499 C84.423,70.499 84.628,69.812 84.628,69.812 C84.628,69.812 84.620,69.812 84.620,69.812 C89.260,63.969 91.963,54.574 91.963,45.468 ZM45.880,54.960 C40.790,54.960 36.664,50.874 36.664,45.830 C36.664,40.788 40.790,36.700 45.880,36.700 C50.971,36.700 55.097,40.788 55.097,45.830 C55.097,50.874 50.971,54.960 45.880,54.960 Z"/>
    </symbol>
    <!-- /locate -->

    <!-- ////////////////////
    |
    | Social
    |
    ///////////////////// -->

    <!-- twitter -->
    <symbol id="icon-twitter" viewBox="0 0 156 128">
      <path d="M155.997,15.157 C150.257,17.729 144.088,19.466 137.615,20.248 C144.222,16.247 149.297,9.911 151.687,2.363 C145.502,6.067 138.653,8.759 131.362,10.206 C125.525,3.926 117.207,-0.000 108.002,-0.000 C90.327,-0.000 75.996,14.474 75.996,32.325 C75.996,34.858 76.279,37.326 76.825,39.691 C50.226,38.343 26.643,25.473 10.858,5.915 C8.103,10.691 6.525,16.242 6.525,22.168 C6.525,33.384 12.175,43.278 20.762,49.073 C15.517,48.906 10.581,47.454 6.266,45.030 C6.263,45.166 6.263,45.302 6.263,45.437 C6.263,61.101 17.295,74.166 31.936,77.137 C29.252,77.875 26.424,78.269 23.505,78.269 C21.442,78.269 19.438,78.065 17.484,77.690 C21.556,90.534 33.376,99.879 47.380,100.140 C36.427,108.810 22.627,113.977 7.632,113.977 C5.049,113.977 2.501,113.823 -0.002,113.526 C14.161,122.697 30.985,128.049 49.059,128.049 C107.926,128.049 140.120,78.790 140.120,36.074 C140.120,34.673 140.089,33.277 140.026,31.892 C146.280,27.333 151.705,21.639 155.997,15.157 Z"/>
    </symbol>
    <!-- /twitter -->

    <!-- facebook -->
    <symbol id="icon-facebook" viewBox="0 0 64 128">
      <path d="M16.315,127.965 C16.315,127.965 16.315,67.922 16.315,67.922 C16.315,67.922 -0.001,67.922 -0.001,67.922 C-0.001,67.922 -0.001,46.302 -0.001,46.302 C-0.001,46.302 16.315,46.302 16.315,46.302 C16.315,46.302 16.315,37.444 16.315,27.837 C16.315,13.328 25.954,0.002 48.161,0.002 C57.153,0.002 63.803,0.842 63.803,0.842 C63.803,0.842 63.278,21.028 63.278,21.028 C63.278,21.028 56.497,20.964 49.098,20.964 C41.089,20.964 39.806,24.556 39.806,30.516 C39.806,35.229 39.806,20.473 39.806,46.302 C39.806,46.302 63.915,46.302 63.915,46.302 C63.915,46.302 62.866,67.922 62.866,67.922 C62.866,67.922 39.806,67.922 39.806,67.922 C39.806,67.922 39.806,127.965 39.806,127.965 C39.806,127.965 16.315,127.965 16.315,127.965 Z"/>
    </symbol>
    <!-- /facebook -->

    <!-- vimeo -->
    <symbol id="icon-vimeo" viewBox="0 0 147 128">
      <path d="M145.976,29.628 C145.324,44.031 135.396,63.752 116.191,88.781 C96.333,114.927 79.533,128.001 65.790,128.001 C57.280,128.001 50.073,120.042 44.190,104.115 C40.260,89.520 36.330,74.922 32.401,60.327 C28.031,44.409 23.345,36.441 18.333,36.441 C17.240,36.441 13.416,38.771 6.871,43.409 C6.871,43.409 -0.001,34.442 -0.001,34.442 C7.206,28.027 14.317,21.611 21.313,15.185 C30.925,6.771 38.142,2.346 42.953,1.900 C54.319,0.793 61.315,8.665 63.941,25.512 C66.777,43.690 68.742,54.998 69.844,59.423 C73.122,74.505 76.725,82.038 80.664,82.038 C83.721,82.038 88.311,77.146 94.436,67.363 C100.550,57.578 103.827,50.135 104.268,45.020 C105.140,36.576 101.862,32.345 94.436,32.345 C90.937,32.345 87.334,33.161 83.626,34.772 C90.803,10.954 104.518,-0.614 124.758,0.045 C139.765,0.493 146.838,10.353 145.976,29.628 Z"/>
    </symbol>
    <!-- /vimeo -->

    <!-- github -->
    <symbol id="icon-github" viewBox="0 0 128 128">
      <path d="M64.007,0.010 C28.655,0.010 -0.013,29.373 -0.013,65.597 C-0.013,94.570 18.330,119.153 43.773,127.827 C46.975,128.429 48.143,126.403 48.143,124.666 C48.143,123.108 48.088,118.985 48.057,113.511 C30.248,117.475 26.490,104.719 26.490,104.719 C23.578,97.143 19.381,95.126 19.381,95.126 C13.568,91.057 19.821,91.140 19.821,91.140 C26.246,91.604 29.628,97.898 29.628,97.898 C35.339,107.919 44.612,105.025 48.260,103.347 C48.842,99.110 50.496,96.220 52.325,94.579 C38.108,92.925 23.163,87.298 23.163,62.167 C23.163,55.006 25.657,49.152 29.753,44.567 C29.094,42.908 26.897,36.240 30.379,27.210 C30.379,27.210 35.756,25.447 47.986,33.932 C53.093,32.478 58.570,31.751 64.014,31.725 C69.451,31.751 74.929,32.478 80.043,33.932 C92.266,25.447 97.632,27.210 97.632,27.210 C101.124,36.240 98.927,42.908 98.268,44.567 C102.372,49.152 104.849,55.006 104.849,62.167 C104.849,87.360 89.881,92.905 75.617,94.529 C77.916,96.552 79.965,100.556 79.965,106.672 C79.965,115.441 79.885,122.516 79.885,124.666 C79.885,126.418 81.038,128.459 84.288,127.819 C109.707,119.129 128.034,94.564 128.034,65.597 C128.034,29.373 99.367,0.010 64.007,0.010 Z"/>
    </symbol>
    <!-- /github -->

    <!-- ////////////////////
    |
    | Mediums
    |
    ///////////////////// -->

    <!-- web -->
    <symbol id="icon-web" viewBox="0 0 188 128">
      <path d="M172.960,105.266 C172.960,105.266 139.120,105.266 139.120,105.266 C139.120,105.266 139.120,45.106 139.120,45.106 C139.120,45.106 172.960,45.106 172.960,45.106 M180.480,30.066 C180.480,30.066 131.600,30.066 131.600,30.066 C127.187,30.066 124.080,33.173 124.080,37.586 C124.080,37.586 124.080,120.306 124.080,120.306 C124.080,124.719 127.187,127.826 131.600,127.826 C131.600,127.826 180.480,127.826 180.480,127.826 C184.893,127.826 188.000,124.719 188.000,120.306 C188.000,120.306 188.000,37.586 188.000,37.586 C188.000,33.173 184.893,30.066 180.480,30.066 M30.080,15.026 C30.080,15.026 172.960,15.026 172.960,15.026 C172.960,15.026 172.960,-0.014 172.960,-0.014 C172.960,-0.014 30.080,-0.014 30.080,-0.014 C21.255,-0.014 15.040,6.201 15.040,15.026 C15.040,15.026 15.040,105.266 15.040,105.266 C15.040,105.266 0.000,105.266 0.000,105.266 C0.000,105.266 0.000,127.826 0.000,127.826 C0.000,127.826 109.040,127.826 109.040,127.826 C109.040,127.826 109.040,105.266 109.040,105.266 C109.040,105.266 30.080,105.266 30.080,105.266 C30.080,105.266 30.080,15.026 30.080,15.026 Z"/>
    </symbol>
    <!-- /web -->

    <!-- sound -->
    <symbol id="icon-sound" viewBox="0 0 100 128">
      <path d="M51.974,-0.001 C54.768,-0.001 57.432,0.895 59.576,2.367 C76.532,14.399 93.488,26.368 98.166,40.384 C102.844,54.400 97.452,70.400 87.706,86.400 C103.948,44.800 58.471,35.200 58.471,35.200 C58.471,35.200 58.471,102.400 58.471,102.400 C58.471,116.545 45.478,128.001 29.236,128.001 C12.994,128.001 0.001,116.545 0.001,102.400 C0.001,88.256 12.994,76.800 29.236,76.800 C32.679,76.800 35.928,77.312 38.981,78.272 C38.981,78.272 38.981,12.799 38.981,12.799 C38.981,5.730 44.798,-0.001 51.974,-0.001 Z"/>
    </symbol>
    <!-- /sound -->

    <!-- live action -->
    <symbol id="icon-live" viewBox="0 0 128 128">
      <path d="M7.110,56.889 C7.110,56.889 -0.001,32.000 -0.001,32.000 C-0.001,32.000 120.889,-0.001 120.889,-0.001 C120.889,-0.001 128.001,28.444 128.001,28.444 C128.001,28.444 7.110,56.889 7.110,56.889 ZM42.666,28.444 C42.666,28.444 32.000,42.666 32.000,42.666 C32.000,42.666 49.778,39.111 49.778,39.111 C49.778,39.111 60.445,24.888 60.445,24.888 C60.445,24.888 42.666,28.444 42.666,28.444 ZM85.334,17.777 C85.334,17.777 74.667,32.000 74.667,32.000 C74.667,32.000 96.001,28.444 96.001,28.444 C96.001,28.444 103.112,14.222 103.112,14.222 C103.112,14.222 85.334,17.777 85.334,17.777 ZM127.968,127.997 C127.968,127.997 7.127,127.997 7.127,127.997 C7.127,127.997 7.127,56.904 7.127,56.904 C7.127,56.904 127.968,56.904 127.968,56.904 C127.968,56.904 127.968,127.997 127.968,127.997 ZM49.778,64.000 C49.778,64.000 32.000,78.222 32.000,78.222 C32.000,78.222 53.333,78.222 53.333,78.222 C53.333,78.222 71.111,64.000 71.111,64.000 C71.111,64.000 49.778,64.000 49.778,64.000 ZM88.889,64.000 C88.889,64.000 74.667,78.222 74.667,78.222 C74.667,78.222 96.001,78.222 96.001,78.222 C96.001,78.222 110.223,64.000 110.223,64.000 C110.223,64.000 88.889,64.000 88.889,64.000 Z"/>
    </symbol>
    <!-- /live action -->

    <!-- illustration -->
    <symbol id="icon-illustration" viewBox="0 0 128 128">
      <path d="M124.987,17.169 C124.987,17.169 110.703,2.872 110.703,2.872 C106.953,-0.910 100.536,-1.007 96.419,2.872 C95.147,2.702 82.134,17.169 82.134,17.169 C82.134,17.169 110.703,45.763 110.703,45.763 C110.703,45.763 124.987,31.466 124.987,31.466 C128.895,27.547 128.777,20.952 124.987,17.169 ZM17.855,81.505 C17.855,81.505 46.423,110.098 46.423,110.098 C46.423,110.098 103.561,52.911 103.561,52.911 C103.561,52.911 74.992,24.318 74.992,24.318 C74.992,24.318 17.855,81.505 17.855,81.505 ZM10.712,92.227 C10.712,92.227 -0.001,127.969 -0.001,127.969 C-0.001,127.969 35.710,117.247 35.710,117.247 C35.710,117.247 35.710,117.247 35.710,117.247 C35.710,117.247 10.712,92.227 10.712,92.227 C10.712,92.227 10.712,92.227 10.712,92.227 Z"/>
    </symbol>
    <!-- /illustration -->

    <!-- experiential -->
    <symbol id="icon-experiential" viewBox="0 0 128 128">
      <path d="M113.779,128.001 C113.779,128.001 113.779,128.001 113.779,128.001 C113.779,128.001 92.445,128.001 92.445,128.001 C92.445,128.001 78.223,128.001 78.223,128.001 C78.223,128.001 78.223,128.001 78.223,128.001 C78.223,128.001 -0.001,92.445 -0.001,92.445 C-0.001,92.445 -0.001,92.444 -0.001,92.444 C-0.001,92.444 -0.001,81.778 -0.001,81.778 C-0.001,81.778 -0.001,78.222 -0.001,78.222 C-0.001,78.222 -0.001,14.222 -0.001,14.222 C-0.001,14.222 -0.001,-0.001 -0.001,-0.001 C-0.001,-0.001 14.222,-0.001 14.222,-0.001 C14.222,-0.001 92.445,-0.001 92.445,-0.001 C92.445,-0.001 92.445,-0.001 92.445,-0.001 C92.445,-0.001 92.445,-0.001 92.445,-0.001 C92.445,-0.001 128.001,78.222 128.001,78.222 C128.001,78.222 128.001,128.001 128.001,128.001 C128.001,128.001 113.779,128.001 113.779,128.001 ZM78.222,114.102 C78.222,114.102 78.222,113.778 78.222,113.778 C78.222,113.778 78.222,92.445 78.222,92.445 C78.222,92.445 30.577,92.445 30.577,92.445 C30.577,92.445 78.222,114.102 78.222,114.102 ZM14.222,78.222 C14.222,78.222 68.089,78.222 68.089,78.222 C68.089,78.222 14.222,21.520 14.222,21.520 C14.222,21.520 14.222,78.222 14.222,78.222 ZM14.222,14.222 C14.222,14.222 14.222,15.407 14.222,15.407 C14.222,15.407 16.000,14.222 16.000,14.222 C16.000,14.222 14.222,14.222 14.222,14.222 ZM78.223,14.222 C78.223,14.222 24.710,14.222 24.710,14.222 C24.710,14.222 78.223,70.550 78.223,70.550 C78.223,70.550 78.223,14.222 78.223,14.222 ZM92.445,32.000 C92.445,32.000 92.445,78.222 92.445,78.222 C92.445,78.222 112.255,78.222 112.255,78.222 C112.255,78.222 92.445,32.000 92.445,32.000 ZM113.779,92.445 C113.779,92.445 113.778,92.445 113.778,92.445 C113.778,92.445 113.778,113.778 113.778,113.778 C113.778,113.778 113.779,113.778 113.779,113.778 C113.779,113.778 113.779,92.445 113.779,92.445 Z"/>
    </symbol>
    <!-- /experiential -->

    <!-- game -->
    <symbol id="icon-game" viewBox="0 0 212 128">
      <path d="M148.000,128.000 C148.000,128.000 64.000,128.000 64.000,128.000 C28.654,128.000 -0.000,99.346 -0.000,64.000 C-0.000,28.654 28.654,0.000 64.000,0.000 C64.000,0.000 148.000,0.000 148.000,0.000 C183.346,0.000 212.000,28.654 212.000,64.000 C212.000,99.346 183.346,128.000 148.000,128.000 ZM88.000,57.000 C88.000,57.000 73.500,57.000 73.500,57.000 C73.500,57.000 73.500,42.500 73.500,42.500 C73.500,38.634 70.366,35.500 66.500,35.500 C62.634,35.500 59.500,38.634 59.500,42.500 C59.500,42.500 59.500,57.000 59.500,57.000 C59.500,57.000 45.000,57.000 45.000,57.000 C41.134,57.000 38.000,60.134 38.000,64.000 C38.000,67.866 41.134,71.000 45.000,71.000 C45.000,71.000 59.500,71.000 59.500,71.000 C59.500,71.000 59.500,85.500 59.500,85.500 C59.500,89.366 62.634,92.500 66.500,92.500 C70.366,92.500 73.500,89.366 73.500,85.500 C73.500,85.500 73.500,71.000 73.500,71.000 C73.500,71.000 88.000,71.000 88.000,71.000 C91.866,71.000 95.000,67.866 95.000,64.000 C95.000,60.134 91.866,57.000 88.000,57.000 ZM134.000,55.594 C129.306,55.594 125.500,59.399 125.500,64.094 C125.500,68.788 129.306,72.594 134.000,72.594 C138.694,72.594 142.500,68.788 142.500,64.094 C142.500,59.399 138.694,55.594 134.000,55.594 ZM154.094,35.500 C149.399,35.500 145.594,39.306 145.594,44.000 C145.594,48.694 149.399,52.500 154.094,52.500 C158.788,52.500 162.594,48.694 162.594,44.000 C162.594,39.306 158.788,35.500 154.094,35.500 ZM154.094,75.688 C149.399,75.688 145.594,79.493 145.594,84.187 C145.594,88.882 149.399,92.687 154.094,92.687 C158.788,92.687 162.594,88.882 162.594,84.187 C162.594,79.493 158.788,75.688 154.094,75.688 ZM174.187,55.594 C169.493,55.594 165.688,59.399 165.688,64.094 C165.688,68.788 169.493,72.594 174.187,72.594 C178.882,72.594 182.688,68.788 182.688,64.094 C182.688,59.399 178.882,55.594 174.187,55.594 Z"/>
    </symbol>
    <!-- /game -->

    <!-- animation -->
    <symbol id="icon-animation" viewBox="0 0 114 128">
      <path d="M99.761,42.666 C99.761,42.666 85.507,42.666 85.507,42.666 C85.507,42.666 85.507,28.444 85.507,28.444 C85.507,28.444 99.761,28.444 99.761,28.444 M99.761,71.111 C99.761,71.111 85.507,71.111 85.507,71.111 C85.507,71.111 85.507,56.889 85.507,56.889 C85.507,56.889 99.761,56.889 99.761,56.889 M99.761,99.556 C99.761,99.556 85.507,99.556 85.507,99.556 C85.507,99.556 85.507,85.334 85.507,85.334 C85.507,85.334 99.761,85.334 99.761,85.334 M28.493,42.666 C28.493,42.666 14.239,42.666 14.239,42.666 C14.239,42.666 14.239,28.444 14.239,28.444 C14.239,28.444 28.493,28.444 28.493,28.444 M28.493,71.111 C28.493,71.111 14.239,71.111 14.239,71.111 C14.239,71.111 14.239,56.889 14.239,56.889 C14.239,56.889 28.493,56.889 28.493,56.889 M28.493,99.556 C28.493,99.556 14.239,99.556 14.239,99.556 C14.239,99.556 14.239,85.334 14.239,85.334 C14.239,85.334 28.493,85.334 28.493,85.334 M99.761,-0.001 C99.761,-0.001 99.761,14.222 99.761,14.222 C99.761,14.222 85.507,14.222 85.507,14.222 C85.507,14.222 85.507,-0.001 85.507,-0.001 C85.507,-0.001 28.493,-0.001 28.493,-0.001 C28.493,-0.001 28.493,14.222 28.493,14.222 C28.493,14.222 14.239,14.222 14.239,14.222 C14.239,14.222 14.239,-0.001 14.239,-0.001 C14.239,-0.001 -0.015,-0.001 -0.015,-0.001 C-0.015,-0.001 -0.015,128.001 -0.015,128.001 C-0.015,128.001 14.239,128.001 14.239,128.001 C14.239,128.001 14.239,113.778 14.239,113.778 C14.239,113.778 28.493,113.778 28.493,113.778 C28.493,113.778 28.493,128.001 28.493,128.001 C28.493,128.001 85.507,128.001 85.507,128.001 C85.507,128.001 85.507,113.778 85.507,113.778 C85.507,113.778 99.761,113.778 99.761,113.778 C99.761,113.778 99.761,128.001 99.761,128.001 C99.761,128.001 114.015,128.001 114.015,128.001 C114.015,128.001 114.015,-0.001 114.015,-0.001 C114.015,-0.001 99.761,-0.001 99.761,-0.001 Z"/>
    </symbol>
    <!-- /animation -->

    <!-- 3d -->
    <symbol id="icon-three-dimensional" viewBox="0 0 116 128">
      <path d="M115.999,92.800 C115.999,95.232 114.646,97.344 112.584,98.432 C112.584,98.432 61.673,126.848 61.673,126.848 C60.642,127.616 59.353,128.000 58.000,128.000 C56.647,128.000 55.358,127.616 54.327,126.848 C54.327,126.848 3.416,98.432 3.416,98.432 C1.354,97.344 0.000,95.232 0.000,92.800 C0.000,92.800 0.000,35.200 0.000,35.200 C0.000,32.768 1.354,30.656 3.416,29.568 C3.416,29.568 54.327,1.152 54.327,1.152 C55.358,0.384 56.647,0.000 58.000,0.000 C59.353,0.000 60.642,0.384 61.673,1.152 C61.673,1.152 112.584,29.568 112.584,29.568 C114.646,30.656 115.999,32.768 115.999,35.200 C115.999,35.200 115.999,92.800 115.999,92.800 M58.000,13.760 C58.000,13.760 19.591,35.200 19.591,35.200 C19.591,35.200 58.000,56.640 58.000,56.640 C58.000,56.640 96.409,35.200 96.409,35.200 C96.409,35.200 58.000,13.760 58.000,13.760 Z"/>
    </symbol>
    <!-- /3d -->

    <!-- ////////////////////
    |
    | Client Logos
    |
    ///////////////////// -->

  </defs>
</svg>