<svg display="none" width="0" height="0" version="1.1" xmlns="http://www.w3.org/2000/svg" xmlns:xlink="http://www.w3.org/1999/xlink">
  <defs>
    
    <!-- INTERFACE -->
    <!-- contact -->
    <symbol id="icon-contact" viewBox="0 0 128 128">
      <path d="M64.001,66.735 C64.001,66.735 128.001,128.002 128.001,128.002 C128.001,128.002 -0.000,128.002 -0.000,128.002 C-0.000,128.002 64.001,66.735 64.001,66.735 ZM64.001,0.000 C64.001,0.000 -0.000,48.000 -0.000,48.000 C-0.000,48.000 -0.000,109.811 -0.000,109.811 C-0.000,109.811 35.555,74.667 35.555,74.667 C35.555,74.667 17.778,49.778 17.778,49.778 C17.778,49.778 64.000,14.222 64.000,14.222 C64.000,14.222 109.577,49.516 109.577,49.516 C109.577,49.516 92.445,74.667 92.445,74.667 C92.445,74.667 128.001,110.223 128.001,110.223 C128.001,110.223 128.001,48.000 128.001,48.000 C128.001,48.000 64.001,0.000 64.001,0.000 Z"/>
    </symbol>
    <!-- /contact -->
    <!-- locate -->
    <symbol id="icon-locate" viewBox="0 0 92 128">
      <path d="M91.963,45.468 C91.963,20.254 71.332,-0.002 45.880,-0.002 C20.429,-0.002 0.001,20.528 0.001,45.739 C0.001,54.848 3.123,63.380 7.547,70.503 C7.547,70.503 7.547,70.522 7.547,70.522 C7.547,70.522 7.383,70.590 7.383,70.590 C7.651,71.003 7.824,71.416 8.106,71.819 C8.106,71.819 45.932,128.002 45.932,128.002 C45.932,128.002 83.897,71.662 83.897,71.662 C84.080,71.395 84.245,70.768 84.423,70.499 C84.423,70.499 84.628,69.812 84.628,69.812 C84.628,69.812 84.620,69.812 84.620,69.812 C89.260,63.969 91.963,54.574 91.963,45.468 ZM45.880,54.960 C40.790,54.960 36.664,50.874 36.664,45.830 C36.664,40.788 40.790,36.700 45.880,36.700 C50.971,36.700 55.097,40.788 55.097,45.830 C55.097,50.874 50.971,54.960 45.880,54.960 Z"/>
    </symbol>
    <!-- /locate -->
    <!-- /INTERFACE -->

    <!-- SOCIAL -->
    <!-- twitter -->
    <symbol id="icon-twitter" viewBox="0 0 156 128">
      <path d="M155.997,15.157 C150.257,17.729 144.088,19.466 137.615,20.248 C144.222,16.247 149.297,9.911 151.687,2.363 C145.502,6.067 138.653,8.759 131.362,10.206 C125.525,3.926 117.207,-0.000 108.002,-0.000 C90.327,-0.000 75.996,14.474 75.996,32.325 C75.996,34.858 76.279,37.326 76.825,39.691 C50.226,38.343 26.643,25.473 10.858,5.915 C8.103,10.691 6.525,16.242 6.525,22.168 C6.525,33.384 12.175,43.278 20.762,49.073 C15.517,48.906 10.581,47.454 6.266,45.030 C6.263,45.166 6.263,45.302 6.263,45.437 C6.263,61.101 17.295,74.166 31.936,77.137 C29.252,77.875 26.424,78.269 23.505,78.269 C21.442,78.269 19.438,78.065 17.484,77.690 C21.556,90.534 33.376,99.879 47.380,100.140 C36.427,108.810 22.627,113.977 7.632,113.977 C5.049,113.977 2.501,113.823 -0.002,113.526 C14.161,122.697 30.985,128.049 49.059,128.049 C107.926,128.049 140.120,78.790 140.120,36.074 C140.120,34.673 140.089,33.277 140.026,31.892 C146.280,27.333 151.705,21.639 155.997,15.157 Z"/>
    </symbol>
    <!-- /twitter -->
    <!-- facebook -->
    <symbol id="icon-facebook" viewBox="0 0 64 128">
      <path d="M16.315,127.965 C16.315,127.965 16.315,67.922 16.315,67.922 C16.315,67.922 -0.001,67.922 -0.001,67.922 C-0.001,67.922 -0.001,46.302 -0.001,46.302 C-0.001,46.302 16.315,46.302 16.315,46.302 C16.315,46.302 16.315,37.444 16.315,27.837 C16.315,13.328 25.954,0.002 48.161,0.002 C57.153,0.002 63.803,0.842 63.803,0.842 C63.803,0.842 63.278,21.028 63.278,21.028 C63.278,21.028 56.497,20.964 49.098,20.964 C41.089,20.964 39.806,24.556 39.806,30.516 C39.806,35.229 39.806,20.473 39.806,46.302 C39.806,46.302 63.915,46.302 63.915,46.302 C63.915,46.302 62.866,67.922 62.866,67.922 C62.866,67.922 39.806,67.922 39.806,67.922 C39.806,67.922 39.806,127.965 39.806,127.965 C39.806,127.965 16.315,127.965 16.315,127.965 Z"/>
    </symbol>
    <!-- /facebook -->
    <!-- vimeo -->
    <symbol id="icon-vimeo" viewBox="0 0 147 128">
      <path d="M145.976,29.628 C145.324,44.031 135.396,63.752 116.191,88.781 C96.333,114.927 79.533,128.001 65.790,128.001 C57.280,128.001 50.073,120.042 44.190,104.115 C40.260,89.520 36.330,74.922 32.401,60.327 C28.031,44.409 23.345,36.441 18.333,36.441 C17.240,36.441 13.416,38.771 6.871,43.409 C6.871,43.409 -0.001,34.442 -0.001,34.442 C7.206,28.027 14.317,21.611 21.313,15.185 C30.925,6.771 38.142,2.346 42.953,1.900 C54.319,0.793 61.315,8.665 63.941,25.512 C66.777,43.690 68.742,54.998 69.844,59.423 C73.122,74.505 76.725,82.038 80.664,82.038 C83.721,82.038 88.311,77.146 94.436,67.363 C100.550,57.578 103.827,50.135 104.268,45.020 C105.140,36.576 101.862,32.345 94.436,32.345 C90.937,32.345 87.334,33.161 83.626,34.772 C90.803,10.954 104.518,-0.614 124.758,0.045 C139.765,0.493 146.838,10.353 145.976,29.628 Z"/>
    </symbol>
    <!-- /vimeo -->
    <!-- github -->
    <symbol id="icon-github" viewBox="0 0 128 128">
      <path d="M64.007,0.010 C28.655,0.010 -0.013,29.373 -0.013,65.597 C-0.013,94.570 18.330,119.153 43.773,127.827 C46.975,128.429 48.143,126.403 48.143,124.666 C48.143,123.108 48.088,118.985 48.057,113.511 C30.248,117.475 26.490,104.719 26.490,104.719 C23.578,97.143 19.381,95.126 19.381,95.126 C13.568,91.057 19.821,91.140 19.821,91.140 C26.246,91.604 29.628,97.898 29.628,97.898 C35.339,107.919 44.612,105.025 48.260,103.347 C48.842,99.110 50.496,96.220 52.325,94.579 C38.108,92.925 23.163,87.298 23.163,62.167 C23.163,55.006 25.657,49.152 29.753,44.567 C29.094,42.908 26.897,36.240 30.379,27.210 C30.379,27.210 35.756,25.447 47.986,33.932 C53.093,32.478 58.570,31.751 64.014,31.725 C69.451,31.751 74.929,32.478 80.043,33.932 C92.266,25.447 97.632,27.210 97.632,27.210 C101.124,36.240 98.927,42.908 98.268,44.567 C102.372,49.152 104.849,55.006 104.849,62.167 C104.849,87.360 89.881,92.905 75.617,94.529 C77.916,96.552 79.965,100.556 79.965,106.672 C79.965,115.441 79.885,122.516 79.885,124.666 C79.885,126.418 81.038,128.459 84.288,127.819 C109.707,119.129 128.034,94.564 128.034,65.597 C128.034,29.373 99.367,0.010 64.007,0.010 Z"/>
    </symbol>
    <!-- /github -->
    <!-- /SOCIAL -->

  </defs>
</svg>