<svg display="none" width="0" height="0" version="1.1" xmlns="http://www.w3.org/2000/svg" xmlns:xlink="http://www.w3.org/1999/xlink">
  <defs>
    
    <!-- ////////////////////
    |
    | Interface
    |
    ///////////////////// -->

    <!-- contact -->
    <symbol id="icon-contact" viewBox="0 0 128 128">
      <path d="M64.001,66.735 C64.001,66.735 128.001,128.002 128.001,128.002 C128.001,128.002 -0.000,128.002 -0.000,128.002 C-0.000,128.002 64.001,66.735 64.001,66.735 ZM64.001,0.000 C64.001,0.000 -0.000,48.000 -0.000,48.000 C-0.000,48.000 -0.000,109.811 -0.000,109.811 C-0.000,109.811 35.555,74.667 35.555,74.667 C35.555,74.667 17.778,49.778 17.778,49.778 C17.778,49.778 64.000,14.222 64.000,14.222 C64.000,14.222 109.577,49.516 109.577,49.516 C109.577,49.516 92.445,74.667 92.445,74.667 C92.445,74.667 128.001,110.223 128.001,110.223 C128.001,110.223 128.001,48.000 128.001,48.000 C128.001,48.000 64.001,0.000 64.001,0.000 Z"/>
    </symbol>
    <!-- /contact -->

    <!-- locate -->
    <symbol id="icon-locate" viewBox="0 0 92 128">
      <path d="M91.963,45.468 C91.963,20.254 71.332,-0.002 45.880,-0.002 C20.429,-0.002 0.001,20.528 0.001,45.739 C0.001,54.848 3.123,63.380 7.547,70.503 C7.547,70.503 7.547,70.522 7.547,70.522 C7.547,70.522 7.383,70.590 7.383,70.590 C7.651,71.003 7.824,71.416 8.106,71.819 C8.106,71.819 45.932,128.002 45.932,128.002 C45.932,128.002 83.897,71.662 83.897,71.662 C84.080,71.395 84.245,70.768 84.423,70.499 C84.423,70.499 84.628,69.812 84.628,69.812 C84.628,69.812 84.620,69.812 84.620,69.812 C89.260,63.969 91.963,54.574 91.963,45.468 ZM45.880,54.960 C40.790,54.960 36.664,50.874 36.664,45.830 C36.664,40.788 40.790,36.700 45.880,36.700 C50.971,36.700 55.097,40.788 55.097,45.830 C55.097,50.874 50.971,54.960 45.880,54.960 Z"/>
    </symbol>
    <!-- /locate -->

    <!-- all seeing eye -->
    <symbol id="all-seeing-eye" viewBox="0 0 512 128">
        <path d="M210.9,90.7h90.2L256,12.6L210.9,90.7z M285.3,64c0,0-9.8,14.3-29.3,14.3S226.7,64,226.7,64s9.8-14.3,29.3-14.3S285.3,64,285.3,64z M246.7,64c0,5.1,4.2,9.3,9.3,9.3c5.1,0,9.3-4.2,9.3-9.3s-4.2-9.3-9.3-9.3C250.9,54.7,246.7,58.8,246.7,64z M227.6,49.7l3.5-6.1l-31.4-14.8c-0.3-0.1-0.6,0-0.8,0.2c-0.2,0.3-0.1,0.7,0.2,0.9L227.6,49.7z M279,0.9c0.1-0.3-0.1-0.6-0.4-0.8c-0.3-0.2-0.7,0-0.9,0.3l-9.7,21l3.6,6.2L279,0.9z M243.9,21.4l-9.7-21c-0.1-0.3-0.5-0.5-0.8-0.4c-0.3,0.1-0.6,0.5-0.5,0.8l7.3,26.8L243.9,21.4z M233.1,40.1l3.6-6.2l-22.2-22.4c-0.2-0.2-0.6-0.3-0.9-0.1c-0.3,0.2-0.4,0.6-0.2,0.9L233.1,40.1z M290,59.4l30.5-8c0.3-0.1,0.5-0.4,0.5-0.7c0-0.4-0.4-0.6-0.7-0.6l-33.8,3.1L290,59.4z M284.4,49.7l28.5-19.7c0.3-0.2,0.4-0.5,0.2-0.8c-0.2-0.3-0.6-0.5-0.9-0.3l-31.4,14.8L284.4,49.7z M278.9,40.1l19.6-27.7c0.2-0.3,0.2-0.6-0.1-0.9c-0.3-0.3-0.7-0.3-1,0L275.3,34L278.9,40.1z M233,123.2c-0.1,0.3,0.1,0.6,0.4,0.8c0.3,0.2,0.7,0,0.9-0.3l12.5-27.2h-6.5L233,123.2z M287.7,96.4h-6.2l15.9,16.1c0.2,0.2,0.6,0.3,0.9,0.1c0.3-0.2,0.4-0.6,0.2-0.9L287.7,96.4z M191.5,51.4l30.5,8l3.6-6.2L191.7,50c-0.3,0-0.6,0.2-0.7,0.5C190.9,50.9,191.1,51.2,191.5,51.4z M265.2,96.4l12.5,27.2c0.1,0.3,0.5,0.5,0.8,0.4c0.3-0.1,0.6-0.5,0.5-0.8l-7.3-26.8L265.2,96.4L265.2,96.4z M320.5,72.7l-26.8-7.1l3.6,6.2l23,2.1c0.3,0,0.6-0.2,0.7-0.5C321.1,73.2,320.9,72.8,320.5,72.7z M255.3,127.4c0,0.3,0.3,0.6,0.6,0.6c0.4,0,0.7-0.3,0.7-0.6l2.6-31h-6.5L255.3,127.4z M218.3,65.7l-26.8,7.1c-0.3,0.1-0.5,0.4-0.5,0.7c0,0.4,0.4,0.6,0.7,0.6l23-2.1L218.3,65.7z M213.5,111.7c-0.2,0.3-0.2,0.6,0.1,0.9c0.3,0.3,0.7,0.3,1,0l15.9-16.1h-6.2L213.5,111.7z"/>
    </symbol>
    <!-- /all seeing eye -->

    <!-- ////////////////////
    |
    | Social
    |
    ///////////////////// -->

    <!-- twitter -->
    <symbol id="icon-twitter" viewBox="0 0 156 128">
      <path d="M155.997,15.157 C150.257,17.729 144.088,19.466 137.615,20.248 C144.222,16.247 149.297,9.911 151.687,2.363 C145.502,6.067 138.653,8.759 131.362,10.206 C125.525,3.926 117.207,-0.000 108.002,-0.000 C90.327,-0.000 75.996,14.474 75.996,32.325 C75.996,34.858 76.279,37.326 76.825,39.691 C50.226,38.343 26.643,25.473 10.858,5.915 C8.103,10.691 6.525,16.242 6.525,22.168 C6.525,33.384 12.175,43.278 20.762,49.073 C15.517,48.906 10.581,47.454 6.266,45.030 C6.263,45.166 6.263,45.302 6.263,45.437 C6.263,61.101 17.295,74.166 31.936,77.137 C29.252,77.875 26.424,78.269 23.505,78.269 C21.442,78.269 19.438,78.065 17.484,77.690 C21.556,90.534 33.376,99.879 47.380,100.140 C36.427,108.810 22.627,113.977 7.632,113.977 C5.049,113.977 2.501,113.823 -0.002,113.526 C14.161,122.697 30.985,128.049 49.059,128.049 C107.926,128.049 140.120,78.790 140.120,36.074 C140.120,34.673 140.089,33.277 140.026,31.892 C146.280,27.333 151.705,21.639 155.997,15.157 Z"/>
    </symbol>
    <!-- /twitter -->

    <!-- facebook -->
    <symbol id="icon-facebook" viewBox="0 0 64 128">
      <path d="M16.315,127.965 C16.315,127.965 16.315,67.922 16.315,67.922 C16.315,67.922 -0.001,67.922 -0.001,67.922 C-0.001,67.922 -0.001,46.302 -0.001,46.302 C-0.001,46.302 16.315,46.302 16.315,46.302 C16.315,46.302 16.315,37.444 16.315,27.837 C16.315,13.328 25.954,0.002 48.161,0.002 C57.153,0.002 63.803,0.842 63.803,0.842 C63.803,0.842 63.278,21.028 63.278,21.028 C63.278,21.028 56.497,20.964 49.098,20.964 C41.089,20.964 39.806,24.556 39.806,30.516 C39.806,35.229 39.806,20.473 39.806,46.302 C39.806,46.302 63.915,46.302 63.915,46.302 C63.915,46.302 62.866,67.922 62.866,67.922 C62.866,67.922 39.806,67.922 39.806,67.922 C39.806,67.922 39.806,127.965 39.806,127.965 C39.806,127.965 16.315,127.965 16.315,127.965 Z"/>
    </symbol>
    <!-- /facebook -->

    <!-- vimeo -->
    <symbol id="icon-vimeo" viewBox="0 0 147 128">
      <path d="M145.976,29.628 C145.324,44.031 135.396,63.752 116.191,88.781 C96.333,114.927 79.533,128.001 65.790,128.001 C57.280,128.001 50.073,120.042 44.190,104.115 C40.260,89.520 36.330,74.922 32.401,60.327 C28.031,44.409 23.345,36.441 18.333,36.441 C17.240,36.441 13.416,38.771 6.871,43.409 C6.871,43.409 -0.001,34.442 -0.001,34.442 C7.206,28.027 14.317,21.611 21.313,15.185 C30.925,6.771 38.142,2.346 42.953,1.900 C54.319,0.793 61.315,8.665 63.941,25.512 C66.777,43.690 68.742,54.998 69.844,59.423 C73.122,74.505 76.725,82.038 80.664,82.038 C83.721,82.038 88.311,77.146 94.436,67.363 C100.550,57.578 103.827,50.135 104.268,45.020 C105.140,36.576 101.862,32.345 94.436,32.345 C90.937,32.345 87.334,33.161 83.626,34.772 C90.803,10.954 104.518,-0.614 124.758,0.045 C139.765,0.493 146.838,10.353 145.976,29.628 Z"/>
    </symbol>
    <!-- /vimeo -->

    <!-- github -->
    <symbol id="icon-github" viewBox="0 0 128 128">
      <path d="M64.007,0.010 C28.655,0.010 -0.013,29.373 -0.013,65.597 C-0.013,94.570 18.330,119.153 43.773,127.827 C46.975,128.429 48.143,126.403 48.143,124.666 C48.143,123.108 48.088,118.985 48.057,113.511 C30.248,117.475 26.490,104.719 26.490,104.719 C23.578,97.143 19.381,95.126 19.381,95.126 C13.568,91.057 19.821,91.140 19.821,91.140 C26.246,91.604 29.628,97.898 29.628,97.898 C35.339,107.919 44.612,105.025 48.260,103.347 C48.842,99.110 50.496,96.220 52.325,94.579 C38.108,92.925 23.163,87.298 23.163,62.167 C23.163,55.006 25.657,49.152 29.753,44.567 C29.094,42.908 26.897,36.240 30.379,27.210 C30.379,27.210 35.756,25.447 47.986,33.932 C53.093,32.478 58.570,31.751 64.014,31.725 C69.451,31.751 74.929,32.478 80.043,33.932 C92.266,25.447 97.632,27.210 97.632,27.210 C101.124,36.240 98.927,42.908 98.268,44.567 C102.372,49.152 104.849,55.006 104.849,62.167 C104.849,87.360 89.881,92.905 75.617,94.529 C77.916,96.552 79.965,100.556 79.965,106.672 C79.965,115.441 79.885,122.516 79.885,124.666 C79.885,126.418 81.038,128.459 84.288,127.819 C109.707,119.129 128.034,94.564 128.034,65.597 C128.034,29.373 99.367,0.010 64.007,0.010 Z"/>
    </symbol>
    <!-- /github -->

    <!-- ////////////////////
    |
    | Mediums
    |
    ///////////////////// -->

    <!-- web -->
    <symbol id="icon-web" viewBox="0 0 188 128">
      <path d="M172.960,105.266 C172.960,105.266 139.120,105.266 139.120,105.266 C139.120,105.266 139.120,45.106 139.120,45.106 C139.120,45.106 172.960,45.106 172.960,45.106 M180.480,30.066 C180.480,30.066 131.600,30.066 131.600,30.066 C127.187,30.066 124.080,33.173 124.080,37.586 C124.080,37.586 124.080,120.306 124.080,120.306 C124.080,124.719 127.187,127.826 131.600,127.826 C131.600,127.826 180.480,127.826 180.480,127.826 C184.893,127.826 188.000,124.719 188.000,120.306 C188.000,120.306 188.000,37.586 188.000,37.586 C188.000,33.173 184.893,30.066 180.480,30.066 M30.080,15.026 C30.080,15.026 172.960,15.026 172.960,15.026 C172.960,15.026 172.960,-0.014 172.960,-0.014 C172.960,-0.014 30.080,-0.014 30.080,-0.014 C21.255,-0.014 15.040,6.201 15.040,15.026 C15.040,15.026 15.040,105.266 15.040,105.266 C15.040,105.266 0.000,105.266 0.000,105.266 C0.000,105.266 0.000,127.826 0.000,127.826 C0.000,127.826 109.040,127.826 109.040,127.826 C109.040,127.826 109.040,105.266 109.040,105.266 C109.040,105.266 30.080,105.266 30.080,105.266 C30.080,105.266 30.080,15.026 30.080,15.026 Z"/>
    </symbol>
    <!-- /web -->

    <!-- sound -->
    <symbol id="icon-sound" viewBox="0 0 100 128">
      <path d="M51.974,-0.001 C54.768,-0.001 57.432,0.895 59.576,2.367 C76.532,14.399 93.488,26.368 98.166,40.384 C102.844,54.400 97.452,70.400 87.706,86.400 C103.948,44.800 58.471,35.200 58.471,35.200 C58.471,35.200 58.471,102.400 58.471,102.400 C58.471,116.545 45.478,128.001 29.236,128.001 C12.994,128.001 0.001,116.545 0.001,102.400 C0.001,88.256 12.994,76.800 29.236,76.800 C32.679,76.800 35.928,77.312 38.981,78.272 C38.981,78.272 38.981,12.799 38.981,12.799 C38.981,5.730 44.798,-0.001 51.974,-0.001 Z"/>
    </symbol>
    <!-- /sound -->

    <!-- live action -->
    <symbol id="icon-live-action" viewBox="0 0 128 128">
      <path d="M7.110,56.889 C7.110,56.889 -0.001,32.000 -0.001,32.000 C-0.001,32.000 120.889,-0.001 120.889,-0.001 C120.889,-0.001 128.001,28.444 128.001,28.444 C128.001,28.444 7.110,56.889 7.110,56.889 ZM42.666,28.444 C42.666,28.444 32.000,42.666 32.000,42.666 C32.000,42.666 49.778,39.111 49.778,39.111 C49.778,39.111 60.445,24.888 60.445,24.888 C60.445,24.888 42.666,28.444 42.666,28.444 ZM85.334,17.777 C85.334,17.777 74.667,32.000 74.667,32.000 C74.667,32.000 96.001,28.444 96.001,28.444 C96.001,28.444 103.112,14.222 103.112,14.222 C103.112,14.222 85.334,17.777 85.334,17.777 ZM127.968,127.997 C127.968,127.997 7.127,127.997 7.127,127.997 C7.127,127.997 7.127,56.904 7.127,56.904 C7.127,56.904 127.968,56.904 127.968,56.904 C127.968,56.904 127.968,127.997 127.968,127.997 ZM49.778,64.000 C49.778,64.000 32.000,78.222 32.000,78.222 C32.000,78.222 53.333,78.222 53.333,78.222 C53.333,78.222 71.111,64.000 71.111,64.000 C71.111,64.000 49.778,64.000 49.778,64.000 ZM88.889,64.000 C88.889,64.000 74.667,78.222 74.667,78.222 C74.667,78.222 96.001,78.222 96.001,78.222 C96.001,78.222 110.223,64.000 110.223,64.000 C110.223,64.000 88.889,64.000 88.889,64.000 Z"/>
    </symbol>
    <!-- /live action -->

    <!-- illustration -->
    <symbol id="icon-illustration" viewBox="0 0 128 128">
      <path d="M124.987,17.169 C124.987,17.169 110.703,2.872 110.703,2.872 C106.953,-0.910 100.536,-1.007 96.419,2.872 C95.147,2.702 82.134,17.169 82.134,17.169 C82.134,17.169 110.703,45.763 110.703,45.763 C110.703,45.763 124.987,31.466 124.987,31.466 C128.895,27.547 128.777,20.952 124.987,17.169 ZM17.855,81.505 C17.855,81.505 46.423,110.098 46.423,110.098 C46.423,110.098 103.561,52.911 103.561,52.911 C103.561,52.911 74.992,24.318 74.992,24.318 C74.992,24.318 17.855,81.505 17.855,81.505 ZM10.712,92.227 C10.712,92.227 -0.001,127.969 -0.001,127.969 C-0.001,127.969 35.710,117.247 35.710,117.247 C35.710,117.247 35.710,117.247 35.710,117.247 C35.710,117.247 10.712,92.227 10.712,92.227 C10.712,92.227 10.712,92.227 10.712,92.227 Z"/>
    </symbol>
    <!-- /illustration -->

    <!-- experiential -->
    <symbol id="icon-experiential" viewBox="0 0 128 128">
      <path d="M113.779,128.001 C113.779,128.001 113.779,128.001 113.779,128.001 C113.779,128.001 92.445,128.001 92.445,128.001 C92.445,128.001 78.223,128.001 78.223,128.001 C78.223,128.001 78.223,128.001 78.223,128.001 C78.223,128.001 -0.001,92.445 -0.001,92.445 C-0.001,92.445 -0.001,92.444 -0.001,92.444 C-0.001,92.444 -0.001,81.778 -0.001,81.778 C-0.001,81.778 -0.001,78.222 -0.001,78.222 C-0.001,78.222 -0.001,14.222 -0.001,14.222 C-0.001,14.222 -0.001,-0.001 -0.001,-0.001 C-0.001,-0.001 14.222,-0.001 14.222,-0.001 C14.222,-0.001 92.445,-0.001 92.445,-0.001 C92.445,-0.001 92.445,-0.001 92.445,-0.001 C92.445,-0.001 92.445,-0.001 92.445,-0.001 C92.445,-0.001 128.001,78.222 128.001,78.222 C128.001,78.222 128.001,128.001 128.001,128.001 C128.001,128.001 113.779,128.001 113.779,128.001 ZM78.222,114.102 C78.222,114.102 78.222,113.778 78.222,113.778 C78.222,113.778 78.222,92.445 78.222,92.445 C78.222,92.445 30.577,92.445 30.577,92.445 C30.577,92.445 78.222,114.102 78.222,114.102 ZM14.222,78.222 C14.222,78.222 68.089,78.222 68.089,78.222 C68.089,78.222 14.222,21.520 14.222,21.520 C14.222,21.520 14.222,78.222 14.222,78.222 ZM14.222,14.222 C14.222,14.222 14.222,15.407 14.222,15.407 C14.222,15.407 16.000,14.222 16.000,14.222 C16.000,14.222 14.222,14.222 14.222,14.222 ZM78.223,14.222 C78.223,14.222 24.710,14.222 24.710,14.222 C24.710,14.222 78.223,70.550 78.223,70.550 C78.223,70.550 78.223,14.222 78.223,14.222 ZM92.445,32.000 C92.445,32.000 92.445,78.222 92.445,78.222 C92.445,78.222 112.255,78.222 112.255,78.222 C112.255,78.222 92.445,32.000 92.445,32.000 ZM113.779,92.445 C113.779,92.445 113.778,92.445 113.778,92.445 C113.778,92.445 113.778,113.778 113.778,113.778 C113.778,113.778 113.779,113.778 113.779,113.778 C113.779,113.778 113.779,92.445 113.779,92.445 Z"/>
    </symbol>
    <!-- /experiential -->

    <!-- game -->
    <symbol id="icon-game" viewBox="0 0 212 128">
      <path d="M148.000,128.000 C148.000,128.000 64.000,128.000 64.000,128.000 C28.654,128.000 -0.000,99.346 -0.000,64.000 C-0.000,28.654 28.654,0.000 64.000,0.000 C64.000,0.000 148.000,0.000 148.000,0.000 C183.346,0.000 212.000,28.654 212.000,64.000 C212.000,99.346 183.346,128.000 148.000,128.000 ZM88.000,57.000 C88.000,57.000 73.500,57.000 73.500,57.000 C73.500,57.000 73.500,42.500 73.500,42.500 C73.500,38.634 70.366,35.500 66.500,35.500 C62.634,35.500 59.500,38.634 59.500,42.500 C59.500,42.500 59.500,57.000 59.500,57.000 C59.500,57.000 45.000,57.000 45.000,57.000 C41.134,57.000 38.000,60.134 38.000,64.000 C38.000,67.866 41.134,71.000 45.000,71.000 C45.000,71.000 59.500,71.000 59.500,71.000 C59.500,71.000 59.500,85.500 59.500,85.500 C59.500,89.366 62.634,92.500 66.500,92.500 C70.366,92.500 73.500,89.366 73.500,85.500 C73.500,85.500 73.500,71.000 73.500,71.000 C73.500,71.000 88.000,71.000 88.000,71.000 C91.866,71.000 95.000,67.866 95.000,64.000 C95.000,60.134 91.866,57.000 88.000,57.000 ZM134.000,55.594 C129.306,55.594 125.500,59.399 125.500,64.094 C125.500,68.788 129.306,72.594 134.000,72.594 C138.694,72.594 142.500,68.788 142.500,64.094 C142.500,59.399 138.694,55.594 134.000,55.594 ZM154.094,35.500 C149.399,35.500 145.594,39.306 145.594,44.000 C145.594,48.694 149.399,52.500 154.094,52.500 C158.788,52.500 162.594,48.694 162.594,44.000 C162.594,39.306 158.788,35.500 154.094,35.500 ZM154.094,75.688 C149.399,75.688 145.594,79.493 145.594,84.187 C145.594,88.882 149.399,92.687 154.094,92.687 C158.788,92.687 162.594,88.882 162.594,84.187 C162.594,79.493 158.788,75.688 154.094,75.688 ZM174.187,55.594 C169.493,55.594 165.688,59.399 165.688,64.094 C165.688,68.788 169.493,72.594 174.187,72.594 C178.882,72.594 182.688,68.788 182.688,64.094 C182.688,59.399 178.882,55.594 174.187,55.594 Z"/>
    </symbol>
    <!-- /game -->

    <!-- animation -->
    <symbol id="icon-animation" viewBox="0 0 114 128">
      <path d="M99.761,42.666 C99.761,42.666 85.507,42.666 85.507,42.666 C85.507,42.666 85.507,28.444 85.507,28.444 C85.507,28.444 99.761,28.444 99.761,28.444 M99.761,71.111 C99.761,71.111 85.507,71.111 85.507,71.111 C85.507,71.111 85.507,56.889 85.507,56.889 C85.507,56.889 99.761,56.889 99.761,56.889 M99.761,99.556 C99.761,99.556 85.507,99.556 85.507,99.556 C85.507,99.556 85.507,85.334 85.507,85.334 C85.507,85.334 99.761,85.334 99.761,85.334 M28.493,42.666 C28.493,42.666 14.239,42.666 14.239,42.666 C14.239,42.666 14.239,28.444 14.239,28.444 C14.239,28.444 28.493,28.444 28.493,28.444 M28.493,71.111 C28.493,71.111 14.239,71.111 14.239,71.111 C14.239,71.111 14.239,56.889 14.239,56.889 C14.239,56.889 28.493,56.889 28.493,56.889 M28.493,99.556 C28.493,99.556 14.239,99.556 14.239,99.556 C14.239,99.556 14.239,85.334 14.239,85.334 C14.239,85.334 28.493,85.334 28.493,85.334 M99.761,-0.001 C99.761,-0.001 99.761,14.222 99.761,14.222 C99.761,14.222 85.507,14.222 85.507,14.222 C85.507,14.222 85.507,-0.001 85.507,-0.001 C85.507,-0.001 28.493,-0.001 28.493,-0.001 C28.493,-0.001 28.493,14.222 28.493,14.222 C28.493,14.222 14.239,14.222 14.239,14.222 C14.239,14.222 14.239,-0.001 14.239,-0.001 C14.239,-0.001 -0.015,-0.001 -0.015,-0.001 C-0.015,-0.001 -0.015,128.001 -0.015,128.001 C-0.015,128.001 14.239,128.001 14.239,128.001 C14.239,128.001 14.239,113.778 14.239,113.778 C14.239,113.778 28.493,113.778 28.493,113.778 C28.493,113.778 28.493,128.001 28.493,128.001 C28.493,128.001 85.507,128.001 85.507,128.001 C85.507,128.001 85.507,113.778 85.507,113.778 C85.507,113.778 99.761,113.778 99.761,113.778 C99.761,113.778 99.761,128.001 99.761,128.001 C99.761,128.001 114.015,128.001 114.015,128.001 C114.015,128.001 114.015,-0.001 114.015,-0.001 C114.015,-0.001 99.761,-0.001 99.761,-0.001 Z"/>
    </symbol>
    <!-- /animation -->

    <!-- 3d -->
    <symbol id="icon-three-dimensional" viewBox="0 0 116 128">
      <path d="M115.999,92.800 C115.999,95.232 114.646,97.344 112.584,98.432 C112.584,98.432 61.673,126.848 61.673,126.848 C60.642,127.616 59.353,128.000 58.000,128.000 C56.647,128.000 55.358,127.616 54.327,126.848 C54.327,126.848 3.416,98.432 3.416,98.432 C1.354,97.344 0.000,95.232 0.000,92.800 C0.000,92.800 0.000,35.200 0.000,35.200 C0.000,32.768 1.354,30.656 3.416,29.568 C3.416,29.568 54.327,1.152 54.327,1.152 C55.358,0.384 56.647,0.000 58.000,0.000 C59.353,0.000 60.642,0.384 61.673,1.152 C61.673,1.152 112.584,29.568 112.584,29.568 C114.646,30.656 115.999,32.768 115.999,35.200 C115.999,35.200 115.999,92.800 115.999,92.800 M58.000,13.760 C58.000,13.760 19.591,35.200 19.591,35.200 C19.591,35.200 58.000,56.640 58.000,56.640 C58.000,56.640 96.409,35.200 96.409,35.200 C96.409,35.200 58.000,13.760 58.000,13.760 Z"/>
    </symbol>
    <!-- /3d -->

    <!-- ////////////////////
    |
    | Client Logos
    |
    ///////////////////// -->

    <!-- laika 236px -->
    <symbol id="icon-laika" viewBox="0 0 512 128">
      <path d="M374,128c-4.5,0-9,0-13.5,0c0-17.6,0-35.1,0-52.7c-8,1.1-15.9,2.2-23.9,3.4c0,16.5,0,32.9,0,49.4c-4.5,0-8.9,0-13.5,0c0-0.3,0-0.7,0-1c0-34,0-68.1,0-102.1c0-7.6,5.1-14.7,12.3-17.1c7.4-2.4,14.7-4.8,22.1-7.1c4.3-1.3,8.3-0.8,11.9,2.1c3.1,2.5,4.4,6,4.5,9.9c0,5.4,0,10.7,0,16.1c0,32.7,0,65.4,0,98.1C374,127.3,374,127.6,374,128z M336.7,62.7c0.4,0,0.7-0.1,1-0.1c1.9-0.3,3.9-0.6,5.8-1c5.4-0.9,10.8-1.8,16.2-2.7c0.8-0.1,0.9-0.4,0.9-1.1c0-13.2,0-26.4,0-39.6c0-0.4,0-0.8,0-1.2c-0.2-1.6-1.2-2.3-2.8-2.1c-0.4,0.1-0.9,0.2-1.3,0.3c-5.5,1.7-11,3.4-16.4,5.1c-2.2,0.7-3.3,2.2-3.3,4.5c0,12.3,0,24.7,0,37C336.7,62.1,336.7,62.4,336.7,62.7z"/>
      <path d="M272.9,28.1c0,17.3,0,34.5,0,51.7c0,0,0.1,0,0.1,0c0.1-0.2,0.2-0.4,0.3-0.7c7.7-19.4,15.4-38.8,23.1-58.1c0.2-0.5,0.5-0.8,1-1c5-1.6,10.1-3.3,15.1-4.9c0.2-0.1,0.4-0.1,0.8-0.2c-0.3,0.7-0.5,1.2-0.7,1.8c-8.3,20.2-16.7,40.5-25,60.7c-0.3,0.6-0.2,1.1,0.1,1.7c9.2,16,18.3,32,27.5,48c0.1,0.2,0.2,0.5,0.4,0.8c-0.3,0-0.6,0-0.8,0c-4.8,0-9.6,0-14.5,0c-0.6,0-0.9-0.2-1.2-0.7c-8.6-15.4-17.2-30.7-25.8-46.1c-0.1-0.2-0.2-0.3-0.4-0.5c0,15.7,0,31.4,0,47.2c-4.5,0-8.9,0-13.4,0c0-0.3,0-0.5,0-0.8c0-31.3,0-62.7,0-94c0-0.6,0.2-0.8,0.7-1c4-1.3,7.9-2.6,11.8-3.8C272.3,28.3,272.5,28.2,272.9,28.1z"/>
      <path d="M217.5,128c-3.9,0-7.7,0-11.6,0c0-10.6,0-21.2,0-31.9c-6.4,0.9-12.7,1.7-19,2.6c0,9.8,0,19.5,0,29.3c-3.9,0-7.7,0-11.6,0c0-0.4,0-0.8,0-1.1c0-18.1,0.1-36.2,0-54.2c0-7.6,5.2-14.7,12.1-16.8c4.9-1.5,9.8-3.2,14.7-4.7c4.5-1.4,8.7-0.7,12.1,2.8c2,2.1,3,4.6,3.2,7.5c0,0.3,0,0.7,0,1c0,21.6,0,43.1,0,64.7C217.5,127.3,217.5,127.6,217.5,128z M186.9,86.8c0.9-0.1,1.7-0.3,2.6-0.4c5.2-0.9,10.5-1.7,15.7-2.5c0.6-0.1,0.7-0.3,0.7-0.9c0-4.6,0-9.2,0-13.8c0-0.9,0-1.7,0-2.6c-0.1-2.3-1.6-3.5-3.9-3.1c-0.5,0.1-1,0.2-1.4,0.3c-3.3,1-6.5,2.1-9.8,3.1c-2.5,0.8-3.9,2.7-3.9,5.4c0,4.5,0,9,0,13.6C186.9,86.1,186.9,86.4,186.9,86.8z"/>
      <path d="M244.6,127.9c-4.4,0-8.7,0-13.1,0c0-0.3,0-0.6,0-0.9c0-28.2,0-56.5,0-84.7c0-0.7,0.2-0.9,0.8-1.1c3.8-1.2,7.7-2.5,11.5-3.7c0.2-0.1,0.5-0.1,0.7-0.2C244.6,67.5,244.6,97.7,244.6,127.9z"/>
      <path d="M149.2,117c5,0,9.9,0,14.9,0c0,3.7,0,7.3,0,11c-8.7,0-17.4,0-26.1,0c0-0.3,0-0.6,0-0.9c0-18.1,0-36.2,0-54.3c0-0.7,0.2-1,0.8-1.2c3.3-1,6.5-2.1,9.8-3.2c0.2-0.1,0.4-0.1,0.6-0.2C149.2,84.5,149.2,100.7,149.2,117z"/>
    </symbol>
    <!-- laika -->

    <!-- nike 360px -->
    <symbol id="icon-nike" viewBox="0 0 512 128">
      <path d="M76,86.9c0.2-1.4,0.3-2.7,0.5-4.1c0.8-6.5,2.7-12.7,5.1-18.8c4.5-11.3,10.8-21.5,18-31.2c7.8-10.5,16.5-20.2,25.2-29.9c0.9-1,1.8-2,2.9-2.9c-0.2,0.3-0.3,0.6-0.5,0.9c-4.6,7.8-8.3,16-10.7,24.7c-1.7,6.1-2.6,12.4-2.1,18.7c1,14.4,10.4,25.3,23.6,28.5c5.6,1.4,11.3,1.7,17,1.4c9.7-0.5,18.9-2.8,28.2-5.3c33.6-9,67.3-17.9,101-26.8c33.4-8.9,66.8-17.8,100.1-26.6c17.1-4.5,34.2-9.1,51.3-13.6c0.1,0,0.2,0,0.4,0.1c-0.3,0.1-0.5,0.3-0.8,0.4C357.8,35.4,280.4,68.5,203,101.7c-12.3,5.3-24.6,10.6-37.1,15.6c-9.7,4-19.7,7-30,8.9c-6.9,1.3-13.9,2.1-20.9,1.7c-8.6-0.4-16.8-2.4-23.9-7.6c-7.9-5.8-13-13.5-14.5-23.3c-0.2-1.3-0.4-2.6-0.5-3.9C76,91,76,89,76,86.9z"/>
    </symbol>
    <!-- nike -->

    <!-- wieden 286px -->
    <symbol id="icon-wieden" viewBox="0 0 512 128">
      <path d="M204.8,0c-2.7,10-5.4,20-8,30c-1.4,5.4-2.9,10.8-4.3,16.3c-0.1,0.5-0.4,0.7-0.9,0.7c-1.5,0-3,0-4.4,0c-0.5,0-0.8-0.2-0.9-0.7c-4.5-13.7-9-27.4-13.6-41.1c-0.1-0.3-0.2-0.5-0.4-0.8c-0.6,2-1.3,3.9-1.9,5.9c-3.8,12-7.7,23.9-11.5,35.9c-0.2,0.6-0.5,0.8-1,0.8c-1.5,0-3.1,0-4.6,0c-0.6,0-0.8-0.2-0.9-0.7c-2.4-9-4.8-18-7.2-27.1c-1.7-6.3-3.3-12.6-5-18.9c0-0.1,0-0.2,0-0.3c1.5,0,3.1,0,4.6,0c0,0.1,0,0.1,0,0.2c3.3,12.9,6.7,25.7,10,38.6c0.3,1.3,0.7,2.5,1.1,4c0.1-0.3,0.2-0.5,0.2-0.6c2.4-7.4,4.9-14.9,7.3-22.3c2.2-6.6,4.3-13.2,6.4-19.8c1.8,0,3.5,0,5.3,0c0,0.1,0,0.2,0.1,0.3c4.7,13.9,9.5,27.8,14.2,41.7c0.1,0.2,0.2,0.4,0.3,0.7c0.1-0.3,0.2-0.4,0.2-0.6c2.8-10.8,5.6-21.5,8.3-32.3c0.8-3.3,1.7-6.6,2.6-9.8C202,0,203.4,0,204.8,0z"/>
      <path d="M113,68.5c1.4,0,2.8,0,4.3,0c0,6.8,0,13.7,0,20.6c0.4-0.4,0.6-0.6,0.9-0.8c6.7-6.5,13.3-12.9,20-19.4c0.4-0.3,0.7-0.5,1.2-0.5c1.5,0,3,0,4.8,0c-7.4,7.1-14.7,14.1-22,21.2c8,8.6,15.9,17.1,23.9,25.7c-0.3,0-0.5,0.1-0.6,0.1c-1.5,0-3.1,0-4.6,0c-0.5,0-0.8-0.2-1.1-0.5c-7.2-7.8-14.5-15.5-21.7-23.3c-0.2-0.2-0.3-0.4-0.7-0.5c0,8.1,0,16.1,0,24.4c-1.5,0-2.9,0-4.3,0C113,99.8,113,84.2,113,68.5z"/>
      <path d="M289.2,0c0,0.2,0,0.3,0,0.5c0,13.5,0,27,0,40.4c0,1.6,0.2,3.2,0.2,4.8c0,0.4,0,0.8,0,1.2c-1.4,0-2.7,0-4.1,0c-0.1-1.7-0.2-3.3-0.2-5.1c-0.4,0.4-0.6,0.7-0.8,1c-4.1,5.1-11.2,6.6-16.8,3.6c-2.9-1.6-4.8-4.1-5.9-7.2c-2.2-6.1-2.2-12.2,0.3-18.2c1.8-4.3,5.1-7,9.9-7.5c5.2-0.5,9.8,1,13,5.4c0.1,0.1,0.1,0.1,0.2,0.2c0,0,0,0,0.1,0c0-6.3,0-12.7,0-19C286.5,0,287.9,0,289.2,0z M264.4,30.7c0.1,0.8,0.1,2.2,0.3,3.5c0.1,1,0.4,2.1,0.7,3.1c1.2,3.8,3.6,7.4,9.5,6.9c3.8-0.3,6.8-2.1,8.4-5.6c2.2-4.8,2.4-9.8,0.8-14.8c-1.3-3.9-3.9-6.3-8.1-6.9c-4.3-0.5-8,0.9-10,5.2C264.8,24.7,264.4,27.4,264.4,30.7z"/>
      <path d="M340.2,128c0.1-0.3,0.1-0.5,0.2-0.8c1.5-3.7,3-7.4,4.5-11.1c0.2-0.5,0.2-0.9,0-1.4c-4.4-10.3-8.7-20.7-13.1-31c-0.1-0.3-0.2-0.5-0.4-0.9c0.8,0,1.5,0,2.2,0c0.9,0,1.9-0.2,2.5,0.2c0.6,0.4,0.7,1.4,1,2.2c3.3,8,6.6,16.1,9.9,24.1c0.1,0.2,0.2,0.4,0.3,0.7c1.1-2.7,2.2-5.4,3.2-8c2.5-6.2,5-12.4,7.5-18.6c0.2-0.5,0.5-0.7,1-0.7c1.1,0,2.3,0,3.5,0c-0.1,0.3-0.2,0.5-0.3,0.8c-6,14.8-12,29.5-18,44.3c0,0,0,0.1,0,0.1C343.1,128,341.7,128,340.2,128z"/>
      <path d="M215.1,0c0,1.6,0,3.2,0,4.8c-1.5,0-3,0-4.6,0c0-1.6,0-3.2,0-4.8C212,0,213.6,0,215.1,0z"/>
      <path d="M322.1,87.7c0-6.5,0-12.8,0-19.2c1.4,0,2.6,0,4,0c0.2,15.6-0.2,31.2,0.2,46.9c-1.3,0-2.6,0-4,0c-0.1-1.6-0.2-3.3-0.2-4.8c-1.2,1.1-2.3,2.3-3.5,3.3c-4.5,3.4-11.1,3.4-15.4,0.2c-2.8-2.1-4.4-5.1-5.3-8.4c-1.4-5.6-1.3-11.1,1.1-16.3c1.9-4.3,5.2-6.9,9.9-7.4c5.2-0.5,9.7,1,12.9,5.5C321.9,87.5,321.9,87.6,322.1,87.7z M322.1,98.6c-0.2-1.4-0.2-2.8-0.5-4.2c-0.9-4.4-3.4-8.3-8.8-8.9c-4.2-0.5-7.8,0.9-9.8,5c-1.2,2.4-1.6,4.9-1.6,7.5c0,3.4,0.3,6.6,1.7,9.7c1.1,2.3,2.7,4.1,5.2,4.7c4.5,1.1,9.9-0.3,12.2-5.8C321.6,104.1,321.9,101.4,322.1,98.6z"/>
      <path d="M179.8,100.1c-8.5,0-17,0-25.6,0c0.1,3.4,0.7,6.5,2.8,9.1c2,2.4,4.6,3.4,7.7,3.6c5.6,0.4,9.2-3.3,10.3-6.8c0.1-0.3,0.2-0.6,0.3-0.9c1.4,0,2.7,0,4.1,0c-0.6,2.5-1.6,4.7-3.2,6.6c-1.4,1.7-3.2,3-5.3,3.7c-3.3,1.1-6.6,1.4-9.9,0.6c-4-0.9-7-3.3-8.7-6.9c-3.2-6.5-3.3-13.1,0-19.6c2.5-4.9,6.6-7.5,12.1-7.6c3.1-0.1,6,0.4,8.7,2.1c3.4,2.1,5.1,5.4,6.1,9.1C179.6,95.3,179.9,97.6,179.8,100.1z M154.4,96.4c7.1,0,14.1,0,21.1,0c-0.4-6-3.8-11-10.9-10.9C157.7,85.5,154.7,91.7,154.4,96.4z"/>
      <path d="M289.9,105c-0.6,2.3-1.5,4.4-2.9,6.3c-2.2,2.9-5.3,4.4-8.8,4.9c-2.5,0.4-5,0.4-7.5-0.4c-3.6-1.1-6.3-3.3-8-6.7c-3.2-6.5-3.3-13.2,0-19.7c2.4-4.9,6.6-7.4,12.1-7.6c2-0.1,4.1,0.2,6,0.8c2.7,0.9,4.9,2.5,6.4,4.9c2.5,3.8,3,8,3.1,12.5c-8.5,0-17,0-25.6,0c0,1.6,0.2,3.1,0.6,4.5c1.8,6.9,9.2,10.4,15.4,7.1c2.5-1.3,4.1-3.3,4.9-6c0.2-0.5,0.4-0.7,0.9-0.7C287.6,105.1,288.7,105,289.9,105z M285.9,96.4c-0.3-5.7-3.5-11.4-11.6-10.9c-5,0.3-10,6-9.4,10.9C271.9,96.4,278.9,96.4,285.9,96.4z"/>
      <path d="M322.7,36.5c1.3,0,2.7,0,4.1,0c-0.1,0.2-0.1,0.5-0.2,0.7c-0.8,2.7-2,5.2-4.1,7.1c-2.4,2.3-5.4,3.2-8.7,3.5c-2.7,0.2-5.3,0.1-7.8-1c-3.4-1.5-5.7-4-7.1-7.4c-2.4-6-2.5-12,0.2-17.9c2.5-5.4,6.9-8.2,12.9-8.2c3.2,0,6.3,0.6,9,2.6c2.9,2.1,4.4,5.1,5.3,8.5c0.6,2.3,0.8,4.6,0.7,7c-8.5,0-17,0-25.6,0c0.1,1.2,0.2,2.4,0.4,3.5c0.6,3,1.8,5.6,4.3,7.4c4.5,3.1,12.7,3,15.7-4.1C322.3,37.7,322.5,37.1,322.7,36.5z M301.9,27.9c7,0,14,0,21,0c-0.3-5.7-3.5-11.3-11.4-10.9C306.3,17.2,301.5,22.6,301.9,27.9z"/>
      <path d="M249.2,36.5c1.4,0,2.7,0,4.1,0c-0.1,0.5-0.2,0.9-0.4,1.3c-1.3,3.9-3.5,7.2-7.5,8.7c-5,1.9-10,2.1-14.7-0.8c-3.1-1.9-4.9-4.8-5.9-8.3c-1.6-5.5-1.5-11,1-16.2c2.6-5.4,7-8,13-8c2.9,0,5.6,0.6,8.1,2.1c3.2,2,4.9,5,5.9,8.4c0.7,2.3,0.9,4.7,0.9,7.1c0,0.2,0,0.3,0,0.6c-8.5,0-17,0-25.7,0c0.2,1.4,0.3,2.7,0.6,3.9c0.7,3.2,2.2,6,5.3,7.5c5.6,2.8,12.6,1.2,15-5.5C248.9,37.2,249,36.9,249.2,36.5z M249.3,27.9C249,22,245.7,16.4,237.7,17c-2.6,0.2-4.8,1.3-6.5,3.4c-1.8,2.2-2.7,4.7-2.9,7.6C235.3,27.9,242.3,27.9,249.3,27.9z"/>
      <path d="M229.4,115.4c-1.4,0-2.6,0-4.1,0c0-10.9,0-21.7,0-32.6c1.2,0,2.5,0,3.9,0c0.1,1.6,0.1,3.2,0.2,4.9c0.5-0.7,1-1.3,1.4-1.9c2.1-2.5,4.9-3.8,8.2-4c2.1-0.1,4.2,0.1,6.1,0.9c3.4,1.4,5.2,4.2,5.9,7.6c0.3,1.6,0.5,3.3,0.5,4.9c0.1,6.5,0,12.9,0,19.4c0,0.2,0,0.5,0,0.7c-1.3,0-2.6,0-3.9,0c0-0.3,0-0.6,0-0.9c0-6.5,0-13.1,0-19.6c0-1.3-0.1-2.6-0.5-3.8c-0.9-3.3-3.6-5.4-7.2-5.6c-2.9-0.2-5.5,0.4-7.5,2.6c-1.7,1.7-2.5,3.9-2.8,6.2c-0.1,0.9-0.2,1.9-0.2,2.9c0,5.8,0,11.6,0,17.4C229.4,114.8,229.4,115.1,229.4,115.4z"/>
      <path d="M192.8,115.4c-1.4,0-2.6,0-3.9,0c-0.1-10.9-0.1-21.7-0.2-32.6c1.2,0,2.5,0,3.9,0c0.1,1.6,0.2,3.2,0.2,4.9c0.5-0.7,0.9-1.2,1.3-1.8c2.2-2.6,5-4,8.4-4.1c2.4-0.1,4.7,0.2,6.8,1.3c2.9,1.6,4.5,4.2,5.2,7.3c0.3,1.6,0.5,3.2,0.5,4.8c0.1,6.5,0,13,0,19.5c0,0.2,0,0.5,0,0.8c-1.2,0-2.4,0-3.5,0c-0.1,0-0.3-0.2-0.4-0.4c-0.1-0.2,0-0.4,0-0.6c0-6.5,0-13,0-19.5c0-1.3-0.1-2.6-0.4-3.8c-0.9-3.4-3.3-5.2-6.8-5.6c-4.2-0.5-7.8,1-9.8,5.1c-0.7,1.6-1.2,3.3-1.2,5.1c0,6.3,0,12.5,0,18.8C192.8,114.8,192.8,115.1,192.8,115.4z"/>
      <path d="M336.1,46.9c0-10.9,0-21.7,0-32.6c1.2,0,2.5,0,3.9,0c0.1,1.6,0.1,3.1,0.2,4.9c0.2-0.2,0.3-0.3,0.4-0.4c2.4-3.7,5.8-5.4,10.2-5.4c2.7,0,5.3,0.6,7.5,2.4c2.2,1.8,3.3,4.2,3.7,6.9c0.2,1.4,0.4,2.9,0.4,4.4c0,6.4,0,12.7,0,19.1c0,0.7-0.2,1-0.9,0.9c-1-0.1-2,0-3.1,0c0-0.4,0-0.7,0-1c0-6.5,0-13,0-19.5c0-1.3-0.1-2.6-0.5-3.8c-0.9-3.3-3.6-5.4-7.1-5.6c-2.9-0.2-5.5,0.4-7.6,2.5c-1.7,1.7-2.5,3.9-2.9,6.2c-0.1,1-0.2,2-0.2,2.9c0,5.8,0,11.7,0,17.5c0,0.7-0.2,0.9-0.8,0.8C338.4,46.9,337.3,46.9,336.1,46.9z"/>
      <path d="M378.8,63c0-5.4,0-10.7,0-16c1.3,0,2.5,0,3.8,0c0,5.3,0,10.6,0,16c5.5,0,10.9,0,16.4,0c0,1.3,0,2.5,0,3.8c-5.4,0-10.8,0-16.3,0c0,5.4,0,10.7,0,16.1c-1.3,0-2.5,0-3.8,0c0-5.3,0-10.6,0-16c-5.5,0-10.9,0-16.4,0c0-1.3,0-2.5,0-3.8C367.9,63,373.3,63,378.8,63z"/>
      <path d="M214.8,46.9c-1.3,0-2.6,0-3.9,0c0-10.9,0-21.7,0-32.6c0.1,0,0.3-0.1,0.4-0.1c1.1,0,2.3,0,3.5,0C214.8,25.2,214.8,36,214.8,46.9z"/>
    </symbol>
    <!-- wieden -->

    <!-- nissan 184px -->
    <symbol id="icon-nissan" viewBox="0 0 512 128">
      <path d="M164,84.8c0-13.9,0-27.8,0-41.7c1.4-3.1,3.8-4,7-3.9c56.7,0.1,113.3,0.1,170,0c3.3,0,5.7,0.9,7,3.9c0,13.9,0,27.8,0,41.7c-1.4,3.1-3.8,4-7,3.9c-56.7-0.1-113.3-0.1-170,0C167.8,88.8,165.4,87.9,164,84.8z M317.5,56.2c0.1,0,0.2,0,0.3-0.1c0.1,0.3,0.3,0.6,0.4,0.9c2.7,6.6,5.4,13.3,8.1,19.9c0.2,0.5,0.7,1.2,1,1.2c3.9,0.1,7.7,0.1,11.6,0.1c0-9.5,0-18.8,0-28c-2.6,0-5.1,0-7.7,0c0,7,0,13.8,0,20.7c-0.4-0.3-0.5-0.6-0.6-0.9c-1.9-4.8-3.9-9.7-5.8-14.5c-0.7-1.8-1-4.2-2.3-5.1c-1.4-0.9-3.8-0.3-5.7-0.3c-2.3,0-4.6,0-6.9,0c0,9.5,0,18.8,0,28.1c2.6,0,5.1,0,7.7,0C317.5,70.8,317.5,63.5,317.5,56.2z M181.1,56.3c0.1,0,0.2,0,0.3,0c0.1,0.3,0.3,0.7,0.4,1c2.4,5.9,4.8,11.9,7.2,17.8c1.2,3.1,1.2,3.1,4.6,3.1c2.9,0,5.9,0,8.9,0c0-9.5,0-18.7,0-28c-2.6,0-5.1,0-7.8,0c0,7,0,13.8,0,20.7c-0.4-0.3-0.5-0.6-0.7-1c-2.2-5.4-4.3-10.8-6.5-16.2c-1.5-3.7-1.5-3.7-5.4-3.7c-2.9,0-5.8,0-8.7,0c0,9.5,0,18.7,0,28.1c2.6,0,5.1,0,7.7,0C181.1,70.8,181.1,63.5,181.1,56.3z M250.7,78.2c5.6,0,11-0.1,16.4,0c7.4,0.1,10.5-6.6,8.6-12.2c-1-3.1-3.9-4.9-7.8-5c-3.3,0-6.6,0-10,0c0-1.7,0-3.2,0-4.8c5.3,0,10.5,0,15.7,0c0-2.1,0-4,0-6c-0.3,0-0.6-0.1-0.8-0.1c-5.4,0-10.8,0-16.1,0c-0.5,0-1.1,0.1-1.6,0.2c-3.5,0.9-5,3.1-5.2,7.5c-0.3,5.8,2.8,9.2,8.7,9.3c2.8,0,5.5,0,8.3,0.1c0.4,0,1.1,0.4,1.1,0.7c0.1,1.3,0.1,2.6,0.1,4c-5.9,0-11.5,0-17.3,0C250.7,74,250.7,76,250.7,78.2z M244.5,50c-5.4,0-10.6,0-15.9,0c-4.9,0-7.3,1.9-7.8,6.8c-0.6,5.7,1.9,10.1,8.6,10.2c3.1,0,6.1,0,9.2,0c0,1.7,0,3.2,0,4.8c-5.7,0-11.4,0-17.1,0c0,2.2,0,4.2,0,6.3c6,0,11.9,0.2,17.9-0.1c4.5-0.2,7.6-3.7,7.7-8.3c0.1-4.5-1.7-7.9-6.8-8.5c-3.2-0.4-6.5-0.2-9.8-0.3c-0.6,0-1.2,0-1.7,0c0-1.7,0-3.2,0-4.8c5.2,0,10.3,0,15.5,0C244.5,54.1,244.5,52.2,244.5,50z M299.5,78.1c2.7,0,5.2,0,7.7,0c0-0.3,0-0.5,0-0.6c-3.1-8.9-6.3-17.7-9.5-26.6c-0.1-0.4-0.8-0.8-1.3-0.8c-3-0.1-6,0-9-0.1c-1.1,0-1.6,0.4-1.9,1.4c-3,8.4-6,16.9-9,25.3c-0.2,0.4-0.2,0.9-0.4,1.5c1.3,0,2.4,0,3.5,0c1.4,0,3.1,0.5,4.1-0.2c0.9-0.6,1.1-2.5,1.6-3.7c0-0.1,0.1-0.2,0.1-0.3c0.4-0.3,0.8-0.9,1.3-0.9c3.4-0.1,6.7-0.1,10.1,0c0.4,0,1,0.4,1.1,0.8C298.5,75.3,299,76.7,299.5,78.1z M216.1,78.1c0-9.4,0-18.7,0-28c-2.6,0-5.1,0-7.7,0c0,9.4,0,18.7,0,28C211,78.1,213.5,78.1,216.1,78.1z"/>
      <path d="M261.7,0c2.4,0.4,4.8,0.7,7.2,1.2c19.6,4.4,34,15.5,43.5,33.2c0.1,0.1,0.1,0.3,0.2,0.6c-37.6,0-75.1,0-113.1,0c1.9-3,3.5-6,5.5-8.7c10.3-14.1,24.1-22.6,41.3-25.6c1.5-0.3,3-0.4,4.6-0.7C254.5,0,258.1,0,261.7,0z"/>
      <path d="M250.9,128c-2.4-0.4-4.7-0.7-7.1-1.2c-11.8-2.3-22-7.7-30.7-15.8c-5.3-5-9.6-10.7-13-17.2c-0.1-0.2-0.2-0.4-0.3-0.8c37.6,0,75.2,0,112.9,0c-1,1.8-1.9,3.5-3,5.2c-10.1,15.8-24.3,25.5-42.8,28.9c-1.8,0.3-3.5,0.6-5.3,0.9C258.1,128,254.5,128,250.9,128z"/>
      <path d="M291.7,56c1.3,3.8,2.5,7.2,3.8,10.8c-2.6,0-5,0-7.6,0C289.2,63.3,290.4,59.9,291.7,56z"/>
    </symbol>
    <!-- nissan -->

    <!-- coke 392px -->
    <symbol id="icon-coke" viewBox="0 0 512 128">
      <path d="M141.6,0c0.7,0.2,1.4,0.4,2.1,0.7c4.1,1.6,6.3,5.1,6.2,9.7c-0.1,2.4-0.7,4.7-1.8,6.9c-1,1.8-2.1,3.6-3.3,5.3c-1.2,1.7-3,2.7-5.1,3c-2.1,0.3-3.6-0.9-3.8-3c-0.3-3,0.9-5.3,2.7-7.5c1.5-1.8,3.5-2.8,5.9-2.9c0.3,0,0.8-0.3,0.9-0.6c1.1-2.4-0.3-5-3-5.5c-1.7-0.3-3.4,0-5,0.5c-5.9,1.9-11.1,5.3-15.7,9.3c-11,9.6-20.1,20.9-28,33.1c-6.1,9.4-10.9,19.4-14,30.2c-1.7,5.9-2.8,11.8-2.5,18c0.3,5.3,1.6,10.2,5.3,14.2c2.7,3,6.3,4.5,10.1,5.8c4.6,1.6,9.4,1.6,14.2,1.1c8.8-1,17.3-3.4,25.9-5.5c8.7-2.1,17.4-4.3,26.1-6.2c8.5-1.9,17.2-2.7,26-2.3c10.6,0.5,20.2,3.6,28.9,9.9c4.8,3.5,9.6,7,13.8,11.3c0.7,0.7,1.4,1.6,2.1,2.3c0,0.1-0.1,0.1-0.1,0.2c-0.3-0.2-0.5-0.3-0.8-0.5c-8.5-5.5-17.8-8.6-28-8.5c-4.4,0-8.5,0.8-12.1,3.5c-0.9,0.7-1.8,1.5-2.6,2.3c-0.8,0.8-1.4,1.8-2.2,2.7c-0.1-0.1-0.2-0.1-0.2-0.2c-3.9-6.7-9.8-10.4-17.2-12.2c-5.9-1.4-12-1.4-18-0.9c-8.9,0.8-17.5,3.3-26.1,5.4c-7.3,1.8-14.7,3.4-22.1,4.9c-6.6,1.4-13.2,1.5-19.8-0.5c-6.8-2.1-12.3-6-16-12.2c-2.3-3.8-3.3-8-3.9-12.3c-0.1-1.1-0.3-2.2-0.4-3.3c0-1.8,0-3.5,0-5.3c0.1-0.8,0.2-1.6,0.3-2.4c0.9-8.5,3.2-16.6,6.6-24.4C73.1,49.7,81.9,37.1,93,26c7.2-7.2,14.9-13.8,23.9-18.8c4.9-2.7,10-5.1,15.5-6.3c1.7-0.4,3.5-0.6,5.3-0.9C139,0,140.3,0,141.6,0z"/>
      <path d="M414.3,66.8c0.5-0.9,1-1.8,1.5-2.6c0.2-0.3,0.5-0.6,0.8-0.6c3.9,0,7.8,0,11.7,0c0.1,0,0.1,0.1,0.2,0.1c-0.1,0.3-0.2,0.5-0.4,0.8c-5.9,10.5-11.8,20.9-17.7,31.3c-2.2,4-4.5,7.9-6.8,11.8c-0.6,1.1-1,2.3-1.5,3.4c-0.3,0.7-0.5,1.6,0.3,2.2c0.8,0.6,1.5,0.3,2.3-0.2c3.3-2,6.2-4.7,8.5-7.7c2.9-3.8,5.6-7.7,8.3-11.5c0.4-0.5,0.8-0.8,1.4-0.8c1,0.1,2,0,3.2,0c-0.4,0.6-0.7,1.1-1,1.6c-4.8,7.6-10.1,14.9-16.4,21.3c-3.3,3.4-7,6.2-11.3,8.3c-1.6,0.8-3.3,1.4-5.2,1.2c-2.2-0.2-3.7-1.2-4.5-3.3c-0.7-1.8-0.7-3.7-0.5-5.6c0-0.3,0.1-0.6,0.1-1c-0.1-0.1-0.2-0.2-0.3-0.3c-0.2,0.3-0.3,0.6-0.5,0.9c-3.2,3.2-6.6,6.2-10.7,8.2c-1.7,0.9-3.6,1.3-5.5,1c-3.3-0.5-5.5-2.9-5.9-6.6c-0.2-1.9,0-3.8,0-6c-0.4,0.4-0.6,0.6-0.8,0.9c-2.4,2.9-4.9,5.6-7.9,7.9c-1.9,1.5-3.9,2.8-6.2,3.5c-3.8,1.1-7.1-0.2-9-3.6c-1.1-2-1.4-4.3-1.4-6.5c0.2-5.2,1.7-10.2,3.3-15.1c0.8-2.4,1.6-4.8,2.4-7.2c0.1-0.3,0.2-0.6,0.3-0.9c-2.2,0.2-4.4,0.5-6.6,0.8c-0.3,0-0.6,0.5-0.8,0.8c-3.1,4.7-6,9.6-9.3,14.2c-4.5,6.2-9.8,11.6-16.5,15.5c-2.3,1.4-4.8,2.4-7.5,2.5c-3.5,0.1-6.2-1.6-7.5-4.9c-1-2.6-1-5.4-0.7-8.1c0.8-6.7,3.3-12.8,6.6-18.7c5.2-9.5,11.6-18.1,20.1-25c3.2-2.6,6.8-4.7,10.7-6c1.7-0.6,3.5-0.7,5.4-0.6c3.6,0.3,5.4,3.1,5.9,5.6c0.9,4,0.2,7.9-1.1,11.7c-0.9,2.6-2.1,5.2-3.1,7.8c-0.2,0.4-0.3,0.8-0.6,1.3c0.5,0,0.9,0.1,1.2,0.1c0.7-0.1,1.4-0.2,2.1-0.3c2.3-0.3,3.7-1.5,4.7-3.7c7.7-16.1,16.7-31.5,27.6-45.7c8.7-11.4,18.5-21.9,29.9-30.7c3.2-2.5,6.6-4.8,10.6-6c1.4-0.4,2.9-0.5,4.3-0.5c2.4,0,3.7,1.5,4,3.9c0.3,3.5-0.6,6.7-2.1,9.7c-1.4,3-1.4,3-4.6,3.7c-0.3,0.1-0.6,0.1-1.1,0.2c0.5-1,1-1.9,1.4-2.8c0.9-2.2,1.8-4.5,2.7-6.7c0.2-0.6,0.2-1.3,0.2-1.9c0-1-0.6-1.6-1.6-1.2c-1.3,0.5-2.6,1.1-3.7,1.9c-1.8,1.3-3.4,2.8-5.1,4.3c-8.1,7.3-14.9,15.6-21.1,24.5c-8.6,12.3-16.6,25.1-23.4,38.5c-0.4,0.7-0.7,1.4-0.9,2.3c0.5-0.3,1-0.5,1.4-0.8c2.7-2.1,5.4-4.1,7.9-6.4c11.1-10.1,21.4-21,30.5-32.9c0.9-1.2,1.8-2.1,3.5-2c0.6,0,1.3-0.1,2.1-0.2c-0.5,0.8-0.9,1.5-1.4,2.2c-5.9,8.3-12.5,15.8-19.5,23.2c-8.6,9.1-17.9,17.4-28.1,24.6c-0.3,0.2-0.6,0.5-0.8,0.8c-3.1,6.8-6,13.7-7.4,21.1c-0.3,1.4-0.3,2.9-0.1,4.4c0.4,2.3,2.4,3.2,4.2,1.8c1.9-1.4,3.7-3.1,5.1-5c2.8-3.7,5.4-7.6,7.9-11.4c4.2-6.5,8.5-13,13.5-18.9c4.6-5.5,9.6-10.4,15.8-14.1c2.3-1.4,4.8-2.1,7.6-2c2,0.1,3.6,0.8,4.8,2.4C413.1,65.3,413.7,66,414.3,66.8z M379.9,110.8c0,1.9,1.3,3,3.2,2.3c0.9-0.3,1.8-0.9,2.6-1.5c3-2.2,4.9-5.4,7-8.4c5.2-7.5,9.4-15.5,13.9-23.3c1.6-2.7,3.1-5.4,4.7-8c0.5-0.9,0.7-1.7,0.1-2.5c-0.6-0.9-1.6-1-2.4-0.8c-1,0.3-2.1,0.8-3,1.4c-1.4,1-2.8,2.2-4,3.5c-8.4,8.5-14.8,18.5-20,29.3C380.8,105.3,380,108,379.9,110.8z M324.1,82.2c-0.3,0.3-0.5,0.6-0.7,0.8c-1.6,2.3-3.2,4.5-4.6,6.8c-2.9,4.6-5.5,9.4-6.9,14.7c-0.6,2-0.9,4-0.4,6.1c0.6,2,2.2,3,4.2,2.6c2.4-0.5,4.2-1.9,5.9-3.5c4.1-3.8,7.4-8.3,10.2-13.1c1-1.6,1.8-3.2,2.6-4.7c-2.1-1.4-4.1-2.7-5.9-4.1C326.6,86.3,325.2,84.4,324.1,82.2z M341.6,72.9c0-0.5,0.1-1.1,0-1.6c-0.5-3.3-2-4.3-5.2-3.5c-0.4,0.1-0.8,0.2-1.2,0.5c-1.4,1-2.9,1.9-4.1,3.2c-5.5,5.9-2.4,13.7,4.6,16.2c0.6,0.2,0.9,0.1,1.2-0.5c0.7-1.4,1.4-2.7,2-4.1C340.4,79.8,341.7,76.6,341.6,72.9z"/>
      <path d="M229.9,34.9c0.1-0.1,0.2-0.1,0.2-0.1c0.7-2,2.2-2.2,4.1-2.2c3.1,0.1,6.2,0,9.5,0c-0.2,0.4-0.4,0.8-0.6,1.1c-8.4,14.6-16.8,29.2-25.2,43.9c-0.5,0.8-0.8,1.7-0.9,2.6c-0.2,1.4,0.7,2.1,2,1.5c1.2-0.6,2.4-1.3,3.5-2.2c4.1-3.3,7.4-7.4,10.7-11.6c1.1-1.4,2.1-2.9,3.3-4.3c0.3-0.3,0.8-0.6,1.2-0.6c1.1-0.1,2.1,0,3.3,0c-0.1,0.3-0.2,0.4-0.3,0.6c-5.2,7.6-10.6,15-17.2,21.4c-3.3,3.2-6.8,6.3-11,8.3c-1.9,0.9-3.9,1.4-6,1c-2.1-0.4-3.9-2.4-4-4.6c-0.1-1.4,0-2.7,0-4.1c0-0.2,0-0.3,0-0.7c-0.5,0.5-0.9,0.9-1.2,1.3c-2.1,2.3-4.5,4.3-7.1,5.9c-1.9,1.2-4,2.1-6.3,2.4c-4.6,0.5-7.9-2.4-8.1-7c-0.1-2.8,0.6-5.4,1.2-8.1c0.1-0.3,0.1-0.6,0.2-1.2c-0.5,0.5-0.8,0.7-1.1,1c-3.8,3.4-7.5,6.9-11.4,10.1c-3.2,2.6-6.9,4.4-11,5c-2.2,0.3-4.4,0.5-6.5-0.2c-4.4-1.6-6.4-5-7.2-9.3c-1.2-5.8,0.4-11.2,2.7-16.3c1.4-3.1,3-6.1,4.5-9.1c0.1-0.3,0.3-0.6,0.5-1c-2.1,0.5-4,0.9-5.9,1.4c-0.3,0.1-0.6,0.5-0.8,0.8c-2.8,4.4-5.3,8.9-8.3,13.1c-4.3,6.2-9.5,11.7-15.6,16.2c-2.6,2-5.4,3.6-8.7,4.4c-5.4,1.2-9.5-1.4-10.7-6.8c-0.9-4.5-0.2-8.9,1.1-13.3c2.3-7.8,6.2-14.8,11.1-21.3c5-6.6,10.5-12.6,17.5-17.2c3.1-2,6.3-3.8,10-4.4c6.2-1.1,10.3,2.2,10.4,8.5c0.1,3.6-0.9,7-2.1,10.3c-0.6,1.6-1.2,3.2-1.9,5c1-0.2,1.8-0.3,2.4-0.6c2.5-1.5,5.1-2.8,7.4-4.6c2.7-2.1,5.1-4.5,7.5-6.9c3.4-3.4,7-6.6,11.2-9.2c3-1.8,6.2-2.9,9.8-2.8c5.3,0.3,8.8,4.4,8,9.6c-0.6,4.2-2.3,7.8-5.2,10.9c-0.9,1-2.1,1.9-3.4,2.4c-2.2,1-4.4-0.5-4.5-3c-0.2-4.3,3.8-8.8,8.1-9.2c0.3,0,0.8-0.4,0.9-0.6c0.9-2.2-0.5-4.1-2.8-4.1c-2.2,0.1-3.9,1.1-5.6,2.4c-3.9,3.2-7.3,6.8-10.4,10.8c-5.3,7-9.4,14.7-12.3,23c-0.8,2.3-1.2,4.7-0.8,7.2c0.6,3.7,3.3,5.6,7,4.6c3.2-0.9,5.9-2.8,8.4-5c4.4-4,8.4-8.5,12-13.2c4.1-5.4,8-11,12.2-16.4c4.5-5.9,9.6-11.3,15.7-15.6c2.4-1.7,5-3.2,8-3.8c3.4-0.7,6.2,0.4,8.2,3.3C229.7,34.6,229.8,34.7,229.9,34.9z M197.5,82.6c0.5-0.2,1.1-0.3,1.5-0.6c1.8-1.4,3.7-2.7,5.2-4.4c2.2-2.6,4.2-5.5,6-8.5c5.7-9.7,11.3-19.5,17-29.2c0.6-1.1,0.3-2.2-1-2.5c-0.9-0.2-2-0.1-2.8,0.3c-2,0.7-3.7,2-5,3.7c-3.4,4.2-6.9,8.4-10.1,12.7c-4.2,5.6-8,11.5-10.7,18c-1,2.4-1.7,4.9-2.4,7.4C194.7,81.1,195.9,82.5,197.5,82.6z M129.6,50.5c-0.2,0.3-0.4,0.4-0.5,0.6c-2,3-4,6-5.9,9.1c-2.6,4.4-4.9,8.9-6,13.9c-0.3,1.4-0.5,2.9-0.3,4.4c0.3,2.9,2.2,4.1,5,3.4c0.7-0.2,1.3-0.5,2-0.9c2.5-1.5,4.6-3.6,6.6-5.8c4-4.4,6.9-9.6,10-14.6c0.2-0.3,0.3-0.8,0.4-1c-2.2-1.2-4.4-2.2-6.5-3.4C132.3,54.7,130.8,52.8,129.6,50.5z M147.3,42.2c0-0.4,0.1-0.9,0-1.3c-0.5-3.5-2-4.8-5.8-3.8c-0.6,0.2-1.1,0.4-1.6,0.7c-2.5,1.7-4.5,3.8-5.5,6.7c-0.9,2.6-0.6,5.1,1.3,7.2c1.8,2,4.1,3.1,6.8,3.4c0.6,0.1,0.9-0.1,1.1-0.7c0.7-1.6,1.5-3.2,2.1-4.9C146.6,47.3,147.3,44.8,147.3,42.2z"/>
      <path d="M391.9,17.5c-3,3.3-6,6.5-9,9.7c-0.2,0.2-0.7,0.2-1,0.1c-1.9-1.1-3.9-2.2-5.7-3.4c-5.8-3.6-11.4-7.4-17.3-10.9c-4.5-2.6-9.3-4.6-14.5-5.2c-1.6-0.2-3.2,0.1-4.8,0.3c-0.5,0-0.8,0.3-0.7,0.9c0.5,6-1.1,11.6-3.3,17.1c-3.1,7.6-7.7,14.2-13.8,19.8c-2.6,2.4-5.6,4.2-9,5.1c-1.1,0.3-2.4,0.4-3.6,0.2c-2.7-0.4-4.4-2.5-4.9-5.8c-0.4-2.9,0.3-5.6,1.3-8.3c3.7-9.5,9.7-17.5,17.5-24c2.7-2.3,5.7-4.2,8.6-6.3c0.2-0.1,0.3-0.2,0.6-0.5c-2.1-0.8-4.1-0.8-6.2-0.3c-3.3,0.8-6.2,2.6-9.1,4.3c-7,4.2-13.2,9.5-18.9,15.4c-12.9,13.6-24,28.6-32.5,45.4c-4.3,8.5-7.4,17.3-8.8,26.7c-0.6,3.8-0.7,7.5,0.7,11.1c1.8,4.5,5.9,7.3,10.3,6.9c2.9-0.3,5.5-1.5,7.9-3c5.4-3.5,9.7-8.1,13.5-13.3c4.5-6.1,8-12.6,9.8-20c0.6-2.3,0.9-4.7,0.7-7.1c0-0.4-0.1-0.7-0.2-1.1c-0.5-2.4-2-3.3-4.4-2.8c-1.8,0.4-3.2,1.4-4.4,2.6c-3.7,3.8-6.2,8.4-7.7,13.5c-0.3,1.2-0.5,2.4-0.9,3.5c-0.1,0.4-0.4,0.8-0.7,0.9c-5.7,2.8-10.6,6.7-15,11.4c-0.2,0.2-0.4,0.3-0.7,0.6c1.3-10.1,4.2-19.4,10.3-27.4c2.7-3.5,5.9-6.4,9.8-8.6c2.9-1.6,5.9-2.6,9.2-3c2.9-0.3,6,1.4,7.2,4.1c1.3,2.9,1.5,5.9,1.2,9c-0.7,7.5-3.7,14.2-7.4,20.6c-5.6,9.8-12.8,18.1-22.2,24.3c-3.9,2.6-8.1,4.5-12.9,5.1c-8.1,1-14.8-2.5-18.6-9.7c-2.6-5-3.3-10.4-2.9-16c0.6-9.2,3.8-17.8,7.7-26c10.7-22.4,25.5-41.7,44.8-57.3c8.3-6.7,17.5-11.9,27.8-14.9c4.1-1.2,8.2-1.6,12.3,0c1.2,0.5,2.3,1.3,3.4,2.1c0.6,0.4,1,0.5,1.6,0.3c3-0.9,5.9-2,8.9-2.7c7.3-1.5,14.4-0.5,21.1,2.7C376,7.8,383.9,12.6,391.9,17.5z M335.1,9.6c-1,0.6-1.8,1-2.5,1.4c-9.9,6-17.1,14.5-22.4,24.8c-1.2,2.2-2.1,4.6-2.3,7.1c-0.3,3.4,2.3,5.3,5.3,3.9c1.2-0.5,2.3-1.2,3.4-2c10.8-8.2,17-19.1,18.5-32.6C335.2,11.4,335.1,10.6,335.1,9.6z"/>
      <path d="M395.6,33c0.7-0.9,1.2-1.6,1.7-2.3c2.3-2.7,4.5-5.4,6.8-8.1c0.2-0.3,0.8-0.5,1.1-0.5c7.9,0.7,15.4-0.9,22.6-4.1c8.9-4,16.7-9.7,23.5-16.7c0.2-0.2,0.3-0.4,0.7-0.5c-0.1,0.2-0.1,0.3-0.2,0.5c-7.5,13.5-18.1,23.6-32.5,29.4c-5.7,2.3-11.6,3.5-17.8,3C399.6,33.6,397.7,33.3,395.6,33z"/>
      <path d="M264.4,32.6c-0.5,0.8-0.9,1.5-1.3,2.2c-1.6,2.6-3.2,5.3-4.9,7.9c-0.2,0.3-0.6,0.6-0.9,0.6c-3.6,0-7.3,0-11.1,0c0.2-0.4,0.3-0.6,0.5-0.9c1.9-3,3.7-6.1,5.6-9.1c0.3-0.5,0.7-0.8,1.3-0.7C257.1,32.7,260.6,32.6,264.4,32.6z"/>
    </symbol>
    <!-- coke -->

    <!-- google 360px -->
    <symbol id="icon-google" viewBox="0 0 512 128">
      <path d="M326.5,89c-0.9-4.5-1.8-8.6-2.7-12.7c0.3-0.3,0.7-0.5,1-0.8c-1.9,0-3.8,0.2-5.7,0c-8.6-1.1-15-5.2-17.6-13.8c-2.6-8.5-0.2-16.3,6.5-21.8c3.7-3.1,8.7-6,13.4-6.5c11.1-1.3,22.4-1.1,33.6-1.6c0.1,0.6,0.2,1.2,0.3,1.8c-4.3,1.3-8.5,2.6-12.9,4c0.4,0.5,1.2,1.4,2,2.3c7.8,8.6,7.3,20.4-1.1,28.2c-1.8,1.7-3.8,3.2-5.4,5c-3,3.4-2.8,6.5,0.6,9.5c2.7,2.4,5.7,4.5,8.4,7c10.2,9.4,9.7,22.2-1,30.9c-10.5,8.5-30.8,10.2-42.6,3.5c-11.1-6.3-12.2-19.5-2.1-27.4c6.9-5.4,15.1-6.6,23.4-7.4C325.4,89.1,326.2,89,326.5,89z M326.8,123.6c4.4-1.2,8.6-1.8,12.3-3.5c4.8-2.1,7.1-6.4,6.9-11.7c-0.2-5.6-10-16.3-15.6-16.1c-5.6,0.2-11.3,1.3-16.7,3.1c-5.1,1.6-8.3,5.6-8.5,11.4c-0.2,5.9,2.6,10.2,7.7,12.5C317.3,121.3,322.1,122.2,326.8,123.6z M339,57.6c-0.5-5.6-2.2-12.3-7.3-17.7c-3.4-3.6-7.7-4.8-12.4-3.1c-4.6,1.6-7.1,5.2-7.6,9.9c-0.8,7.2,1,14,5.3,19.8c3.6,4.9,8.9,6.6,14,4.9C336.4,69.7,339,65.6,339,57.6z"/>
      <path d="M157.2,14.8c-8.6,9.3-9.1,9.6-13,9.8c0.7-1.3,1.3-2.5,2-3.7c-13-16.9-41.5-14.8-52.7,3.8c-8.3,13.9-6.5,33.8,4.4,47.6c10.1,12.8,28,18.4,43.5,13.8c2.9-0.9,4.3-2,4.1-5.4c-0.3-4.9-0.1-9.8-0.1-15.3c-5.6,0.3-10.7,0.6-15.8,0.8c-0.1-0.4-0.3-0.8-0.4-1.2c3.6-1.2,7.2-3,10.9-3.3c6.7-0.5,13.5-0.2,20.9-0.2c-6,6.5-3.1,14-3.5,21c-0.2,2.8-0.8,4-3.7,4.7c-11.9,2.7-23.8,5.3-36.2,4.8c-24.1-0.8-42-19.6-41.4-43.7c0.5-21,16.2-38.7,37.1-42c12-1.9,23.6-0.8,34.8,3.8C151,11.3,153.9,13.1,157.2,14.8z"/>
      <path d="M263,90.5c-17.4,0-30.5-12.6-30.6-29.6c-0.2-16.9,14.2-30.4,32.4-30.4c17,0,30.2,13,30.2,29.7C294.9,77.4,281,90.5,263,90.5z M282.8,67.4c-0.6-9.8-2.2-18.7-7.9-26.3c-4.2-5.5-9.8-8.1-16.7-6.5c-7,1.6-11.9,6-13.1,13.3c-1.9,12,0.7,23,8,32.7c4.1,5.4,9.9,7.5,16.6,5.9c6.5-1.5,10.5-6,12.1-12.4C282.4,71.7,282.5,69.2,282.8,67.4z"/>
      <path d="M195.9,90.5c-17.5,0-30.4-12.7-30.4-29.8c0-17.1,14.2-30.3,32.5-30.3c17,0,30,13,29.9,29.8C227.8,77.6,214,90.5,195.9,90.5z M215.7,66.4c-0.4-8.9-2.2-17.8-7.9-25.3c-4.3-5.6-10-8.2-17.1-6.4c-7.2,1.8-11.7,6.5-12.8,14c-1.5,10.1,0.7,19.6,5.7,28.4c4.4,7.7,11.3,11.1,18.8,9.5c7.1-1.5,11.8-7.1,13-15.6C215.7,69.6,215.6,68.1,215.7,66.4z"/>
      <path d="M362.1,88.6c0.5-3.8,1.4-7.5,1.4-11.2c0.5-22.1,0.8-44.2,1.2-66.3c0-2,0-4.1,0-6.4c-2.7,0-5.1,0-7.9,0c5.3-4.5,9.6-5.2,24.6-4.3c-5.1,3.1-5.1,7.8-5.1,12.4c-0.3,21.7-0.5,43.4-0.8,65.1c-0.1,7.1,0.5,7.7,7.7,8.1c0.8,0.1,1.5,0.1,2.4,0.2C383,89.2,371.2,90.3,362.1,88.6z"/>
      <path d="M397,60.3c4.3,20.1,18.6,28.1,39,21.7c-2.2,1.8-4.2,4-6.7,5.3c-9.8,5-19.9,5.4-29.4-0.4c-10.5-6.4-14.6-16.6-14.2-28.6c0.5-18.4,17.5-31.5,35.2-27c7.7,1.9,12.6,6.9,15,15c-6.4,2.6-12.7,5.4-19.1,7.7C410.4,56.3,403.8,58.1,397,60.3z M396.8,58.7c7.7-3.3,15.1-6.5,22.6-9.7c4.3-1.9,4.9-3.7,2.6-7.8c-2.5-4.3-6.4-6.7-11.2-6.6c-5.6,0-9.9,2.9-12.5,7.9C395.7,47.4,395.8,52.8,396.8,58.7z"/>
    </symbol>
    <!-- google -->

    <!-- ifd 500px -->
    <symbol id="icon-ifd" viewBox="0 0 512 128">
      <path d="M42.7,54.2c1.5,0.2,3.1,0.4,4.6,0.4c9.5,0.4,19,0.8,28.4,1.2c11.5,0.5,23.1,1,34.6,1.4c11.6,0.4,23.2,0.7,34.8,1.2c1.8,0.1,3.6,1,5.3,1.7c12.2,5,24.3,10.1,36.4,15.2c0.8,0.3,1.6,1.2,2,2c1.2,2.6,2.2,5.2,3.3,8.1c-3.5-0.5-6.8-0.9-10.1-1.3c-9.4-1.3-18.8-2.6-28.2-3.9c-8.6-1.2-17.2-2.4-25.8-3.5c-8.7-1.2-17.4-2.2-26-3.4C93.6,72.2,85,71,76.4,69.6c-10.8-1.8-21.6-3.7-32.4-5.8c-10.4-1.9-20.8-4.2-30.5-8.8c-1.8-0.9-3.6-2-5.3-3.2c-1.9-1.3-2.6-3.2-2.1-5.4c0.5-2.1,2.4-2.9,4.3-3c4.5-0.3,8.9-0.3,13.4-0.4c15.2-0.3,30.5-0.6,45.7-0.9c11.2-0.2,22.4-0.4,33.5-0.6c21-0.4,41.9-0.8,62.9-1.2c7.1-0.1,14.1-0.3,21.2-0.5c0.5,0,1,0.1,1.7,0.1c-0.6,3.6-1.2,7.1-1.9,10.5c-0.1,0.4-0.9,0.8-1.5,0.8c-6.8,0.1-13.5,0.1-20.3,0.2c-2.5,0-5.1,0.2-7.6,0.4c-0.4,0-0.8,0.2-1.2,0.5c9.8,1.7,19.7,1.5,29.7,2.3c-0.3,1.8-0.6,3.5-1,5.4c-4.5,0-9,0-13.4,0c0,0.2,0,0.5-0.1,0.7c4.2,0.7,8.5,1.4,12.7,2.1c0.1,1.2,0,2.7,0.3,4c0.3,1.4,1,2.7,1.8,4.4c-1.8-0.8-3.3-1.4-4.8-2c-11-4.8-22-9.5-33.1-14.3c-0.9-0.4-1.9-0.5-2.8-0.5C115.2,54.2,84.6,54.1,54,54c-3.7,0-7.5,0-11.2,0C42.8,54.1,42.8,54.2,42.7,54.2z"/>
      <path d="M469.1,53.8c-2.7,0-5.4,0-8.1,0c-13.4,0.1-26.8,0.1-40.3,0.2c-14.8,0.1-29.6,0.1-44.4,0.2c-3.6,0-7.1,0.1-10.7,0.2c-1,0-2,0.4-2.9,0.8c-11.9,5.1-23.8,10.3-35.7,15.5c-0.7,0.3-1.3,0.6-2.2,0.9c0.3-3.1,0.5-6,0.8-8.7c4.4-0.7,8.7-1.4,12.9-2.1c0-0.2,0-0.4,0-0.7c-4.2,0-8.3,0-12.6,0c0.1-1.8,0.2-3.3,0.4-4.7c0.1-0.4,0.9-0.9,1.4-0.9c5.7-0.3,11.5-0.5,17.2-0.8c3.6-0.2,7.2-0.6,10.8-1.3c-9.6-1.3-19.2-0.7-29-1.2c0.3-3.8,0.7-7.5,1-11.3c3.1,0,6.2,0,9.2,0c11.6,0.2,23.2,0.5,34.8,0.7c18.3,0.4,36.6,0.7,54.9,1.1c11.6,0.2,23.2,0.5,34.8,0.7c12.8,0.3,25.6,0.6,38.4,0.9c1,0,2.1,0.2,3,0.5c3.3,1.1,4.3,5,1.7,7.3c-2.1,1.8-4.5,3.2-7,4.4c-8.2,3.8-16.9,6-25.8,7.6c-14.3,2.6-28.7,5.2-43.1,7.6c-9.3,1.5-18.7,2.5-28,3.8c-8.5,1.2-17,2.4-25.4,3.5c-9.3,1.3-18.7,2.5-28,3.7c-6.4,0.9-12.8,1.7-19.2,2.6c-2.8,0.4-3.9-0.4-4-3.5c0-1.6,0.2-3.2,0.4-4.7c0.1-0.4,0.6-0.8,1-1c13-5.4,25.9-11,39-16.1c2.7-1.1,6.1-0.8,9.1-0.9c16.8-0.7,33.7-1.2,50.5-1.8c13.2-0.5,26.5-1,39.7-1.6c1.8-0.1,3.6-0.3,5.4-0.4C469.1,54.1,469.1,54,469.1,53.8z"/>
      <path d="M324.3,28.6c-0.7,8.2-1.3,16.3-2,24.5c-0.8,8.9-1.5,17.8-2.3,26.7c-0.3,3.2,0.5,6.1,1.6,9c1.1,3,2.2,6,3.1,9.1c0.4,1.2,0.4,2.8,0,4c-1.2,3.7-2.6,7.3-4.1,10.9c-0.4,1-1.6,2.1-2.6,2.5c-12.6,4.2-25.3,8.3-38,12.5c-1.9,0.6-3.1,0.3-4.2-1.5c-1.9-3.2-4-6.2-6.1-9.3c-1.2-1.7-0.6-3.5-0.3-5.3c0.2-1.4-0.1-1.9-1.5-1.8c-3.8,0.1-7.6,0-11.4,0c-0.6,0-1.3,0.1-1.8-0.2c-3.7-2.4-7.9-1.7-11.9-2.3c-5-0.7-10-1-14.9-1.6c-1-0.1-2.2-0.9-2.8-1.7c-1.8-2.7-4.1-3.6-7.3-3.3c-3.9,0.3-7.7,0.2-11.6,0.5c-2.2,0.1-3.4-0.8-4.2-2.7c-2.4-6-4.8-11.9-7.2-17.8c-1.3-3.3-2.5-6.6-4-9.7c-1.7-3.5-1.6-7-1-10.6c2.3-12.8,4.6-25.5,6.8-38.3c0.3-1.7,1.1-2.3,2.6-2.5c6.6-0.9,13.2-1.8,19.7-2.6c3.3-0.4,3.3-0.3,3.9-3.8c0.8-5,0.8-5,5.8-5.1c7-0.2,14-0.4,21-0.5c1.4,0,2.1-0.5,2.3-1.9c0.2-1.3,0.7-2.6,0.9-3.9c0.2-1.4,1-1.8,2.3-1.7c7,0.4,14,0.9,21,1.3c3,0.2,6,0.3,9.1,0.4c1.5,0,2.4,0.3,2.7,2c0.2,1.4,1.1,1.9,2.6,1.9c6.5-0.3,13-0.4,19.6-0.7c1.7-0.1,2.8,0.4,3.8,1.8c2.6,3.7,5.3,7.4,8.1,11c1.2,1.6,1.8,3.2,1.8,5.2c0,1.9,0.2,3.9,0.3,5.8C324.1,28.6,324.2,28.6,324.3,28.6z M226.3,10.3c-0.3,2.5-0.6,4.9-1.1,7.3c-0.1,0.5-0.7,1.2-1.2,1.4c-2,0.5-4,0.8-6,1.2c-5.7,1-11.4,1.9-17.1,2.8c-1.1,0.2-1.5,0.7-1.7,1.7c-1.9,12.5-3.9,24.9-5.7,37.4c-0.2,1.6-0.5,3.5,0,5c3.7,9.8,7.6,19.5,11.3,29.3c0.5,1.3,1.2,1.7,2.6,1.7c5.1,0,10.3,0.1,15.4,0.1c1.1,0,2.1,0.2,2.5,1.4c0.8,2.8,3,3.2,5.3,3.4c0.6,0,1.2,0.1,1.8,0.2c5.6,0.7,11.3,1.4,16.9,2c0.8,0.1,1.8-0.2,2.5-0.7c1.2-0.9,2.1-0.9,2.8,0.4c0.8,1.5,2.1,1.9,3.8,1.9c3.8,0,7.6,0.2,11.4,0.2c1.7,0,2.4,0.7,2.4,2.4c0,0.9-0.1,1.8-0.1,2.7c0.1,1,0,2.2,0.4,3c1.6,3,3.4,5.9,5.2,8.8c0.5,0.9,1.2,1.2,2.3,0.9c12.5-4.1,25-8,37.5-12.1c0.7-0.2,1.3-1,1.6-1.7c1.1-3,2.1-6.1,2.9-9.2c0.3-1.1,0.2-2.4-0.1-3.5c-1.2-3.6-2.5-7.1-4-10.5c-1.3-3.1-1.5-6.2-1.1-9.4c0.6-5.3,1.1-10.6,1.6-15.9c0.6-6.8,1.2-13.7,1.7-20.5c0.4-6,0.7-12,0.9-18c0.1-2.5-0.8-4.7-2.5-6.6c-2.4-2.6-4.7-5.4-7.1-8c-0.5-0.5-1.3-1-2-1C302,8.2,295,8.4,287.9,8.7c-1.9,0.1-2.7-0.4-2.8-2.2c-0.1-1.3-0.7-1.8-2.1-1.8c-3.1-0.1-6.3-0.4-9.4-0.6c-5.4-0.3-10.7-0.6-16.1-0.9c-1.2-0.1-1.8,0.3-2,1.5c-0.2,1.3-0.7,2.6-0.8,3.9c-0.2,1.4-0.8,1.8-2.1,1.8c-4.7-0.1-9.3-0.1-14-0.1C234.6,10.3,230.5,10.3,226.3,10.3z"/>
      <path d="M285.5,53.1c-0.6,8.5-1.2,16.9-1.7,25.4c-0.4,5.8-0.8,11.6-1.1,17.4c-0.1,2.3-0.8,3.1-3.1,3.3c-6.6,0.6-13.2,1.2-19.6,3.2c-0.4,0.1-1.3-0.4-1.4-0.8c-1.2-2.9-2.4-5.8-3.2-8.9c-0.5-1.9-0.3-4-0.2-5.9c0.7-11.1,1.8-22.3,2.3-33.4c0.4-9.1,0.3-18.2,0.4-27.3c0.1-5.9,0.1-11.8,0.1-17.6c0-1.2,0.6-1.6,1.7-1.5c2.3,0.4,4.5,0.9,6.8,1.2c2.1,0.2,4.2,0.2,6.3,0.2c2.3,0,4.7,0.1,7,0c1.8-0.1,2.3,1,2.4,2.5c0.2,2.8,0.5,5.6,0.7,8.3c0.7,7.9,1.4,15.7,2,23.6c0.2,3.4,0,6.9,0,10.4C285.1,53.1,285.3,53.1,285.5,53.1z"/>
      <path d="M315.4,33.1c0.9,11.7-1.1,22.1-2.2,32.6c-0.9,8.6-2,17.1-0.6,25.8c0.4,2.2-0.4,3.9-2.4,4.8c-4.7,2.2-9.4,4.3-14.1,6.4c-0.6,0.3-1.6,0.1-2.2-0.2c-2-1.3-4-2.7-5.9-4.2c-1.4-1.1-1.6-2.8-1.4-4.5c0.4-5.9,0.8-11.9,1.2-17.8c0.9-11.9,1.1-23.9,0.3-35.8c-0.5-8.1-0.8-16.2-1.2-24.4c-0.1-1.8,1.1-2.1,2.4-2.2c2.7-0.1,5.4,0,8.2-0.1c1.9,0,3.9-0.3,5.8-0.2c1.2,0.1,2.5,0.3,3.6,0.9c2.4,1.4,4.7,3,6.9,4.7c0.8,0.6,1.5,1.8,1.6,2.8C315.5,25.8,315.4,30,315.4,33.1z"/>
      <path d="M237.2,15.8c4.8,0,9.5,0,14.3,0c1.4,0,2.1,0.6,2,2.1c-0.2,12.1-0.1,24.2-0.5,36.3c-0.2,7.1-1.1,14.2-1.6,21.2c-0.2,3.6-0.3,7.2-0.3,10.7c-0.1,3.8-0.1,7.5-0.1,11.3c0,2.7-0.9,3.4-3.6,3c-5.1-0.9-10.2-1.8-15.3-2.6c-1.4-0.2-2.1-0.8-2.3-2.3c-1.7-9.8-3.6-19.7-5.1-29.5c-0.5-3.1,0-6.4,0.3-9.6c1-12.8,2.1-25.5,3.2-38.3c0.2-2.7,0.3-2.7,3-2.7c2,0,4,0,6,0C237.2,15.5,237.2,15.6,237.2,15.8z"/>
      <path d="M216.4,94c-1.8,0-3.6,0-5.4,0c-1.6,0-2.5-0.8-3.1-2.2c-3-7.7-6.1-15.3-9-23c-0.7-1.9-1-4.2-0.9-6.2c0.2-3.9,0.8-7.7,1.4-11.6c1.2-8,2.5-16,3.9-24c0.1-0.7,1-1.6,1.6-1.7c1.7-0.4,3.5-0.4,5.2-0.6c4.1-0.4,8.3-0.8,12.4-1.3c1.6-0.2,1.9,0.5,1.7,1.9c-0.8,10.2-1.6,20.3-2.5,30.5c-0.8,8.8-0.2,17.5,0.5,26.2c0.3,3.6,0.4,7.3,0.7,10.9c0.1,1.1-0.4,1.4-1.4,1.4c-1.7,0-3.4,0-5.1,0C216.4,94.1,216.4,94.1,216.4,94z"/>
      <path d="M318.3,95.9c-0.5,3.2-1.1,6-1.3,8.9c-0.2,2.6-1.5,3.6-3.8,4.5c-9.6,3.6-19.2,7.5-28.8,11.3c-3.4,1.4-3.6,1.3-5.6-1.7c-0.8-1.2-1.4-2.5-2.3-3.4c-3.2-3.1-1.6-6.4-0.7-9.8c0.2-0.6,0.8-1.2,1.4-1.6c1.7-0.9,3.3-1.7,5.1-2.3c0.9-0.3,2.1-0.2,3,0.2c3.1,1.3,6,2.7,9,4.2c2.1,1,4.1,0.8,6.1-0.3c5.5-3,11-6.1,16.4-9.2C317.2,96.5,317.6,96.3,318.3,95.9z"/>
    </symbol>
    <!-- ifd -->

    <!-- alameda 500px -->
    <symbol id="icon-alameda" viewBox="0 0 512 128">
      <path d="M11,85H6l18.4-42h4.2l18.4,42h-5l-4.7-11H15.7L11,85z M17.3,70.1h18.3L26.5,48L17.3,70.1z"/>
      <path d="M92.7,81.1h19.7V85h-24V43h4.3V81.1z"/>
      <path d="M153.3,85h-5l18.4-42h4.2l18.4,42h-5l-4.7-11H158L153.3,85z M159.6,70.1h18.3L168.8,48L159.6,70.1z"/>
      <path d="M251.6,77.2L265.8,43h6.6v42h-4.3V48.7H268L252.7,85h-2.3l-15.3-36.3h-0.1V85h-4.3V43h6.6L251.6,77.2z"/>
      <path d="M323.9,81.1h22.6V85h-26.9V43h26.2v3.9h-21.9v14.3h20.5v3.9h-20.5V81.1z"/>
      <path d="M390.2,43h14c2.6,0,5.3,0.4,7.9,1.3c2.6,0.9,5,2.2,7.2,3.9c2.1,1.8,3.8,4,5.2,6.6c1.3,2.6,2,5.7,2,9.2c0,3.5-0.7,6.6-2,9.2c-1.3,2.6-3,4.8-5.2,6.6c-2.1,1.8-4.5,3.1-7.2,3.9c-2.6,0.9-5.3,1.3-7.9,1.3h-14V43z M394.5,81.1h8.3c3.2,0,6-0.5,8.4-1.5c2.4-1,4.3-2.3,5.9-3.9c1.6-1.6,2.7-3.4,3.5-5.5c0.8-2,1.1-4.1,1.1-6.3c0-2.2-0.4-4.3-1.1-6.3c-0.8-2-1.9-3.9-3.5-5.5c-1.6-1.6-3.5-2.9-5.9-3.9c-2.4-1-5.2-1.5-8.4-1.5h-8.3V81.1z"/>
      <path d="M470.1,85h-5l18.4-42h4.2L506,85h-5l-4.7-11h-21.6L470.1,85z M476.4,70.1h18.3L485.5,48L476.4,70.1z"/>
    </symbol>
    <!-- alameda -->

    <!-- ny times 102px -->
    <symbol id="icon-ny-times" viewBox="0 0 512 128">
      <path d="M275.9,0c3.3,0,6.6,0,9.9,0c1.3,0.4,2.7,0.8,4,1.3c6.8,2.4,12.1,6.4,13.9,13.8c2.6,10.8-3.2,21.6-13.7,25.4c-2.3,0.8-4.7,1.3-7.3,2.1c0,2.7,0.2,5.4-0.1,8c-0.3,3.1,0.9,5.2,3.2,7.1c4.2,3.4,8.2,7.1,12.5,10.9c-4.8,4.2-9.4,8.2-13.9,12.3c-0.7,0.6-1.6,1.6-1.7,2.4c-0.1,5.4-0.1,10.9-0.1,16.6c11.6-4.3,18.7-12.6,24.1-23.7c0.8,11.7-1.3,21.8-6.3,30.3c-8.5,14.4-21.8,20.5-38,21.3c-15.7,0.8-30.1-2.6-42.5-13c-16.8-14.2-20.5-41-6.5-57.8c2.9-3.5,6.3-6.7,9-9.6c-2.9-1.5-6.5-2.8-9.2-5.1c-7.5-6.4-7.8-18.7-1-27c7.8-9.4,18.2-12,29.6-9.9c8,1.5,15.6,4.5,23.5,6.5c4.5,1.2,9.2,2,13.9,2.2c3.2,0.1,5.3-2.9,5.5-6.1c0.2-3.5-1.4-5.7-5-6.4c-2.2-0.4-4.6-0.3-7.3-0.5C274,0.8,274.9,0.4,275.9,0z M265.9,39.9c-4.7-1.4-8.5-2.7-12.3-3.7c-0.8-0.2-1.8,0-2.6,0.4c-23.4,10.8-23.7,40.2-13.2,53.7c1.5,1.9,3.4,3.5,5.8,5.8c0-15.6,0-30.2,0-44.7c0-2,0.6-2.9,2.4-3.6C252.4,45.5,258.7,42.8,265.9,39.9z M243.8,95.9c1,0.7,1.5,1.1,2.1,1.5c10.9,6.1,22.5,6.1,34.2,3.3c0.7-0.2,1.6-1.5,1.7-2.3c0.2-2.5-0.3-5,0.1-7.4c1.1-6.5-1.4-11-6.7-14.6c-3-2-5.5-4.7-8.7-7.5c0,5.3-0.2,9.9,0.1,14.5c0.1,2.5-0.7,3.7-3,4.5C257.1,90.4,250.7,93.1,243.8,95.9z M266.8,40.4c0,9.2,0,18.3,0,27.8c4.9-4.3,9.5-8.3,14-12.4c0.5-0.4,0.9-1.2,0.9-1.8c0.1-3.8,0-7.6,0-11.2C276.6,41.9,271.7,41.2,266.8,40.4z M223.8,46.1c9.1-3.8,17.7-7.4,27.2-11.4c-7-1.2-13.3-2.7-19.8-3.3c-3.7-0.4-7.2,1.4-8.8,5.2C220.9,40.2,221.6,43.6,223.8,46.1z"/>
    </symbol>
    <!-- ny times -->

    <!-- tbwa 128px -->
    <symbol id="icon-tbwa" viewBox="0 0 512 128">
      <path d="M192,128c0-42.7,0-85.3,0-128c42.7,0,85.3,0,128,0c0,42.7,0,85.3,0,128C277.3,128,234.7,128,192,128z M285.4,113.3c-0.6-1.4-0.9-2.5-1.4-3.5c-3.5-7.7-7.1-15.4-10.7-23.2c-10.7-23.2-21.3-46.4-32-69.5c-0.5-1.1-1.4-2.6-2.3-2.7c-4-0.3-8-0.1-12.4-0.1c0.6,1.5,1,2.5,1.4,3.4c3.3,7.4,6.7,14.7,10,22.1c10.7,23.6,21.5,47.2,32.3,70.8c0.5,1.1,1.7,2.5,2.6,2.6C277,113.5,281,113.3,285.4,113.3z"/>
    </symbol>
    <!-- tbwa -->

    <!-- newton 500px -->
    <symbol id="icon-newton" viewBox="0 0 512 128">
      <path d="M6,105.3c19.7-15.9,39.5-31.6,59.1-47.7C75.9,48.7,86.3,39.2,96.9,30c0.2-0.2,0.5-0.4,0.6-0.6c3.1-5.9,8.7-7,14.7-7.6c8-0.7,15.9-1.4,23.9,0.3c7.7,1.7,13.7,5.2,15.2,14c2.7-0.7,5.2-1.7,7.8-2c4.2-0.5,8.4-1,12.5-0.8c3.7,0.2,5.8,2.6,5.9,6.3c0.1,2.7-0.3,5.6-1,8.2c-2.7,9.2-7.4,17.3-13.9,24.3c-11.2,12.1-24.1,22-39,29.3c-1.6,0.8-3.3,1.6-5.1,2c-1.4,0.3-2.9-0.2-4.3-0.3c0.4-1.4,0.5-3,1.3-4c4-5,8.3-9.9,12.3-14.9c7.6-9.6,14.9-19.4,19.6-30.8c1.7-4.2,2.6-8.8,3.7-13.2c0.3-1,0-2.2,0-4c-6.7,2.8-12.9,4.9-18.8,7.9C108.6,56,84.9,68.3,61.1,80.7c-14.5,7.5-28.8,15.4-43.4,22.9c-3.6,1.8-7.8,2.4-11.7,3.5C6,106.4,6,105.8,6,105.3z"/>
      <path d="M341.8,62.7c2.1-7.1,4-13.7,6.1-20.1c0.3-0.8,1.4-1.9,2.2-1.9c17.8-0.1,35.7-0.1,53.8-0.1c0,4.4,0,8.6,0,13.2c-4.4,0-8.8,0-13.6,0c0,11.5,0,22.6,0,34.1c-5.5,0-10.6,0-16.1,0c0-11.3,0-22.5,0-34c-4.4,0-8.4-0.1-12.4,0.1c-0.7,0-1.6,1.4-1.9,2.3c-3.3,9.8-6.5,19.6-9.6,29.5c-0.6,1.9-1.4,2.8-3.6,2.6c-2.9-0.2-5.8-0.2-8.7,0c-2.2,0.2-3-0.7-3.6-2.6c-2.1-6.3-4.4-12.5-6.6-18.7c-0.2-0.5-0.5-1-1-1.8c-2.5,7.1-5,13.9-7.3,20.7c-0.6,1.8-1.4,2.6-3.4,2.5c-3.7-0.2-7.5-0.1-11.5-0.1c-5.2-15.9-10.3-31.7-15.6-47.8c5.4,0,10.4-0.1,15.4,0.1c0.7,0,1.6,1.2,1.9,2c2,6.5,3.9,13,6,20.1c0.6-1.3,1-2.1,1.3-3c2-5.7,3.9-11.4,5.8-17.2c0.5-1.7,1.4-2.3,3.1-2.2c3.1,0.1,6.2,0.1,9.3,0c1.8-0.1,2.5,0.6,3,2.3c2,6.1,4.1,12.2,6.1,18.3C341,61.4,341.3,61.8,341.8,62.7z"/>
      <path d="M429.5,89.1c-12.2,0-22.1-7-25.2-17.7c-3.4-11.8,2.1-23.7,13.6-29.2c13.6-6.5,30.2-1.1,36,11.8C461.4,70.9,448.8,89.1,429.5,89.1z M419.7,63.9c-0.1,6.1,4.2,10.7,10,10.8c5.8,0.1,10.1-4.2,10.1-10.2c0.1-5.8-4.5-10.6-10.3-10.7C423.8,53.8,419.8,57.9,419.7,63.9z"/>
      <path d="M246.2,40.8c13.9,0,27.4,0,41.1,0c0,4.2,0,8.3,0,12.7c-8.4,0-16.7,0-25.2,0c0,1.8,0,3.2,0,5c7.8,0,15.5,0,23.4,0c0,3.8,0,7.4,0,11.4c-7.7,0-15.4,0-23.4,0c0,1.8,0,3.3,0,5.3c2.1,0,4.2,0,6.3,0c5.4,0,10.8,0.1,16.2-0.1c2.6-0.1,3.4,0.8,3.2,3.3c-0.2,2.6,0.1,5.2-0.1,7.8c0,0.7-0.9,1.9-1.4,1.9c-13.3,0.1-26.6,0.1-40.1,0.1C246.2,72.2,246.2,56.6,246.2,40.8z"/>
      <path d="M474.7,88.4c-5.5,0-10.6,0-16,0c0-1-0.1-1.9-0.1-2.8c0-8,0-16,0-24c0-13.2,7.9-21.3,21.1-21.5c3.7-0.1,7.6,0,11.2,0.8c9.2,2,14.3,8.4,14.8,19.1c0.4,9.3,0.1,18.6,0.1,28.2c-5.4,0-10.6,0-16.2,0c0-1.2,0-2.3,0-3.4c0-7.3,0.1-14.6,0-21.9c-0.1-5.5-1.9-8-6.1-8.8c-4.2-0.8-7.5,1.3-8.4,5.5c-0.3,1.4-0.4,2.9-0.4,4.3C474.7,71.9,474.7,80,474.7,88.4z"/>
      <path d="M242.4,88.3c-5,0-10.2,0-15.8,0c0-1.3,0-2.6,0-3.8c-0.1-8,0-16-0.3-23.9c-0.2-4.2-2.9-6.5-6.9-6.7c-3.9-0.2-6.7,2.1-7.4,6.2c-0.3,1.5-0.2,3.1-0.2,4.6c0,7.8,0,15.6,0,23.5c-5.4,0-10.6,0-16,0c0-0.9-0.1-1.8-0.1-2.7c0-8.1,0-16.2,0-24.2c0-12.9,7.9-20.9,20.8-21.2c4.1-0.1,8.3,0.2,12.3,1.1c8,1.9,13.2,7.8,13.6,15.9C242.7,67.4,242.4,77.7,242.4,88.3z"/>
    </symbol>
    <!-- newton -->

    <!-- leinenkugel 242px -->
    <symbol id="icon-leinenkugel" viewBox="0 0 512 128">
      <path d="M259.7,76.6c-1.4,1.4-2.7,2.9-4.2,4.2c-1.6,1.3-3.4,2.1-5.8,0.8c-2.1-6.8,3.4-12.5,3.1-19.2c-5.4,6.1-6.2,14-8.5,21.5c-1.8,0.5-3.5,1.5-5.3,1.4c-0.9-1,0.4-1.8-0.5-2.7c-2.9,2.9-5.2,6.9-10.4,5.6c-1.4-0.9-2.4-2.2-3-3.9c-3.8,3-5.6,9-11.7,8.1c-1.8-2-1.5-3.9-0.9-5.9c1.2-3.9,2.4-7.8,3.7-11.7c0.2-0.8,0.7-1.5-0.6-2.4c-4.8,6.3-6,13.9-8,21.5c-1.8,1.3-4.1,1.4-6,2.1c-1.1-0.8,0-1.6-0.7-2.7c-2.2,2.4-4,5.2-7.1,5.7c-2.4,0-3.3-1.6-4.3-3.1c-5.4,6.7-6.9,8.4-13.3,4.3c-2.5,5.2-2,10.5-1,16.4c-4.4-2-8.6-4-13.3-4.1c-1.7,0.7-2.3,2.4-3.2,3.7c-2.3,3.1-4.7,5.9-7.6,8.4c-1.9,1.6-4.2,2.7-6.5,3.3c-5.3,1.3-7.8-0.3-9.4-6.2c3.1-9.4,11.9-10.2,20.4-12.5c2.6-9,3.8-18.2-0.6-27.3c1.5-1.3,3.2-1.4,5.2-1c1.8-3.7,2.1-7.8,3.1-11.9c-4.6-2.3-9-4.4-10.6-9.7c-1.1-3.7-0.7-7.1,0.8-10.5c2.7-6.2,8.3-9.1,15.1-7.4c-6.2,2.5-9.3,7.1-10,13.3c-0.5,4.5,1.5,7.9,5.5,10.2c1.8-1,2.1-2.9,2.9-4.4c4.2-8,9.4-15.1,16.8-20.3c2.5-1.7,5-3.1,7.9-3.8c5.7-1.4,9.8,1.5,10.3,7.4c0.4,5-1.5,9.4-4.8,13.1c-6.4,7.3-14.4,11.8-24.3,13.1c-1,3.9,1.3,6.8,3.4,9.7c-1.6,2-3.7,2.1-6,2.2c-2,9-3.5,18-7.1,26.8c2.3,0.9,4.4,0.6,6.7,0.6c1.6-4.5,3.4-8.8,5.9-12.6c0.8-12.7,5.8-20.5,13.4-20.8c2.9,3.2,3.1,4.7,1.3,8.3c-1.9,3.7-5,6.4-8.3,9.2c1.7,1.9,3.2,1.6,4.8,0.3c2.1-1.7,3.5-3.9,4.6-6.3c2-4.7,4.1-9.3,6.3-14.1c1.6-0.5,3.3-1.1,5.5-1.8c-1.1,6.9-5.5,12.5-5.2,19.7c4.7-2.3,5.6-6.4,7-10.1c1.4-3.8,2.6-7.8,4-11.8c1.8-0.6,3.6-1.1,5.4-1.7c1.1,0.4,0.3,1.6,1.1,2.1c1.4-1.1,2.3-2.8,4.6-3.8c0.7-0.2,2-0.4,3.5,0.3c1.7,3.3-0.4,6.2-1.2,9.3c-0.7,2.9-2.8,5.6-1.9,9.3c3.6-1.4,4.8-4.5,5.3-7.6c0.5-3.2,1.7-6,3.1-8.8c1-2.1,2.5-3.9,4.4-5.3c1.9-1.5,4-2.4,6.9-0.5c2.7,8.1-4.1,11.8-8.5,16.6c1.4,2.3,3.2,1.4,4.6,0.3c2.6-1.8,4.3-4.4,5.6-7.3c1.9-4.1,2.6-8.5,3.9-12.7c1.5-1.3,3.5-1.3,5.1-1.9c1.1,0.5,0.4,1.7,1.2,2.2c2.2-1.9,3.8-5.2,7.8-4c2.1,2,0.9,4.3,0.3,6.4c-0.7,2.9-1.8,5.6-2.7,8.4c-0.3,1-1,2.2,0.3,3.5c3.2-1.1,4.3-4.1,5.4-6.8c1.5-3.6,2.6-7.4,3.7-11.2c3.2-10.5,6.4-21,12.4-30.4c0.3-0.5,0.2-0.9,0-1.3l-0.2,0.2c1,0.3,1.4-0.1,1.1-1.1l-0.1,0.1c1,0.2,1.4-0.1,1.1-1.1l-0.1,0.2c4.1-0.7,4.1-0.7,7,0.3c3,5.7,2,12.4-2.9,18.1c-3,3.5-6.7,6.2-10.8,8.6c-3.1,8.9-4.3,18.2-6.5,27.5c-2.2,0.6-4.3,2.8-7.1,1.2c0.5-0.6,0.6-1.3,0.3-2.1C260.2,75.6,260,76.2,259.7,76.6z M172.3,65.8c10,0.3,21.4-8.3,23.5-17.3c0.2-1,0.3-2,0.2-2.9c-0.1-3-1.8-4.6-4.7-4.4c-2.9,0.2-5.3,1.5-7.5,3.4C177.5,50.3,174.7,57.8,172.3,65.8z M153.7,113.1c-7.7,1.4-12,4.9-12.7,9.9c0.5,0.9,1.2,1.5,2.3,1.6C148.3,122.7,150.5,120.3,153.7,113.1z M276.2,44.5c6.9-5.2,10-12.2,7.4-16.4C280.1,30.2,276.5,38.2,276.2,44.5z M235.3,64.4c-3.4,3.1-4.9,6.4-4.5,10.7C236.2,71.5,237.3,69.1,235.3,64.4z M186,78.1c-3.1,3.6-4.9,6.9-4.4,11.4C187,84.9,187.9,82.8,186,78.1z"/>
      <path d="M322.7,46.8c2.2-0.3,2.7-2.2,3.5-3.8c1.4-3,3-5.8,5.3-8.2c1.9-2,4.1-3.3,6.8-2.3c2.2,2,2.1,4.1,1.2,6.4c-1.3,3.1-3.3,5.7-5.6,8c-0.9,0.9-1.8,1.7-2.9,2.7c1.9,2.3,3.7,1.4,5.3,0.1c2.7-2.2,4.6-5,5.3-8.6c1.5-8.9,4.2-17.6,7.7-25.9c1.6-3.8,3.4-7.5,5.8-10.9c1.6-2.2,3.4-4,6.2-4.4c4.9,2.1,6.1,4.8,4.2,9.7c-2.1,5.4-5.8,9.5-10.7,12.4c-1.3,0.8-2.6,1.4-3.9,2.1c-2.9,7.4-3.7,15.8-2,20.6c1.8,0.8,2.7-0.4,3.7-1.5c1.8-2.1,3-4.7,4.4-7.1c3-5.4,5.9-11,10.2-15.2c2.1-0.4,3.5,0.6,5.4,1.4c-6.2,4.6-4.1,9.8-1.9,15.3c2.2-0.9,3.3-2.8,4.8-4.3c3.7,7.4,1.4,15.1-5.7,19.3c-5.7,3.4-12.1,5.1-18.4,6.8c-9.9,2.8-19.9,5.3-29.9,7.9c-0.9,0.2-1.8,0.6-2.7,0.9c-3.2,7.8-4,17.2-13.6,19.7c-3-0.4-4.5-1.6-5.1-4.2c0.1-3.2,1.9-6.1,3.1-9.1c-3.8-0.4-12.7,3.5-19.2,8.4c-6.4,4.9-8.8,8.3-12,17.3c-14.5-2.5-28.4,0.8-42.9,5.8c5.6-6.9,12-11.2,18.6-15.2c14.9-8.9,30.9-14.9,47.4-19.9c3-0.9,5.9-2.1,8.9-2.7c3.2-0.6,5.3-2.3,6.8-5c1.4-0.5,2.4-1.3,2.4-3.2c-1,0.9-2,1.8-3.1,2.6c-2.2,1-4.4,0.9-6.7-0.6c-2.2,2.7-3.6,6.4-7.2,7c-2.3,0-2.8-1.9-4.3-2.8c-1.8,2.3-2.8,5.5-6.9,5.3c-1.7-0.2-1.6-2.4-2.8-3.6c-1.3,1.7-2.5,3.5-3.9,5.1c-1.4,1.5-3.1,2.5-5.3,1.5c-1.9-0.9-2.5-2.8-1.8-5.6c0.7-2.9,2.1-5.5,3.6-7.9c-0.2-1.4-1.9-0.3-2.2-1.9c1.2-3,4.6-1.4,6.8-3.5c0.1,4.3-3.4,7.4-2.1,11.4c3.7-0.8,5.2-3.4,6.2-6.4c1.2-3.6,2-7.3,3-10.9c0.3-1.1,0.7-2.2,1-3.2c1.6-0.7,3.1-1.3,5.1-1.3c-0.6,6.2-3.9,11.7-3.1,18.4c3.9-2.4,3.7-6.3,4.7-9.5c1.1-3.3,1.7-6.7,2.5-10.2c1.7-0.9,3.5-1.4,5.9-1.8c-0.9,6.3-3.7,12-3.9,18.4c2.8,0,3.4-1.6,3.7-3.7c0.8-5.3,2.5-10.2,5.8-14.5c3-3.9,6.4-6.7,11.7-4.1c1-1.6,1.8-3,2.5-4.1c1.3-0.8,1.8-0.1,2.7,0.6c-1.3,3.5-3,7.1-3.5,11c-0.3,0.4-0.4,0.9,0.1,1.3C322.2,47.2,322.4,47,322.7,46.8z M364.6,29.2c-4,4.6-6.3,9.8-8.5,15c-1.5,3.5-2.9,7-6.3,9.2c-1.8,0.3-3.6,0.6-5.1,0.1c-1.9-0.8-2.4-2.8-3.8-4c-2.9,4.3-5.1,9-10.6,9.8c-6-0.9-4.7-6.3-6.1-10.1c-6.2,3.5-4.1,9.6-5.7,15c15-3.7,29.4-7.2,43.8-10.8c3.1-0.8,5.8-2.2,8.2-4.3c3-2.8,4-6.1,3.2-10.3c-2.1,0.8-3.1,2.1-3.6,3.9c-1.9,6.2-3.7,7.3-9.9,6.5c-3.2-3.7-3.2-4.8,0.2-8.6c1.3,0.4,0.9,2.5,3.2,2.5C366.7,38.9,363.6,33.8,364.6,29.2z M319.5,41.4c-4.7-1-6.4,0-8.7,4.2c-2.6,4.9-2.6,7.2,0.4,10.2C317.3,53.2,316.5,46.5,319.5,41.4z M352.2,20.3c7.5-4.5,10-9.1,7.6-14C354.3,9.5,354.1,15.4,352.2,20.3z M308.1,71.8c-1.7,3.9-5.1,6.7-4.3,11.3c3.8-1.2,7-5.8,8.7-12c0-0.2-0.3-0.5-0.6-0.8C310.7,70.8,309.5,71.3,308.1,71.8z M330.3,46.7c5.5-4.9,6.4-7.1,5-11.2C331.4,38.1,330.9,42,330.3,46.7z"/>
      <path d="M365.7,16.9c1.5-2.7,2.8-4.9,4.2-7.3c1.5-0.9,3.5-1.2,5-3C374.8,12.9,372.9,15.1,365.7,16.9z"/>
      <path d="M205.7,62.2c-0.2,5.2-0.8,6.1-5,7.1c-2-2.9-2-4.1-0.3-6.4C201.9,61.1,202.5,61,205.7,62.2z"/>
      <path d="M274.3,56.2c1.9-5.6,5.4-9.3,11.8-10.7c-1.7,2.8-3.2,5.1-4.8,7.7C279,54,276.4,54.5,274.3,56.2z"/>
    </symbol>
    <!-- leinenkugel -->

    <!-- social deviant 110px -->
    <symbol id="icon-social-deviant" viewBox="0 0 512 128">
      <path d="M256-0.1c16.2,0,32.4,0.1,48.6,0c3.8,0,6.4,2.8,6.4,6.5c-0.1,23.9-0.1,48.9,0,72.8c0,6.8-2.1,11.5-6.2,16.7c-5,6.5-11.4,11.6-18.2,16.2c-9.4,6.4-19.5,11.6-30,16c-0.4,0.2-0.9,0.2-1.3,0c-13-5.4-25.4-12-36.6-20.7c-5.7-4.4-10.8-9.4-14.5-15.7c-2.2-3.8-3.3-7.8-3.3-12.2c0.1-24.4,0.1-48.8,0-73.3c0-3.6,2.2-5.7,4.5-6.1c0.6-0.1,1.2-0.1,1.8-0.1C223.5-0.1,239.8-0.1,256-0.1z"/>
    </symbol>
    <!-- social deviant -->

    <!-- clyfford still 500px -->
    <symbol id="icon-clyfford-still" viewBox="0 0 512 128">
      <path d="M27.1,56.7c-0.6-0.8-1.4-1.4-2.4-1.8c-0.9-0.4-2-0.6-3.3-0.6c-1.2,0-2.4,0.2-3.4,0.7c-1.1,0.5-2,1.2-2.7,2c-0.8,0.9-1.4,1.9-1.8,3.1c-0.4,1.2-0.7,2.5-0.7,3.9c0,1.4,0.2,2.7,0.7,3.9c0.4,1.2,1,2.2,1.8,3.1c0.8,0.9,1.7,1.6,2.7,2c1,0.5,2.1,0.7,3.3,0.7c1.4,0,2.5-0.3,3.6-0.9c1-0.6,1.9-1.4,2.6-2.4l5.5,4.2c-1.3,1.8-2.9,3.1-4.8,4c-1.9,0.9-3.9,1.3-6,1.3c-2.3,0-4.5-0.4-6.5-1.1c-2-0.7-3.7-1.8-5.1-3.2c-1.4-1.4-2.6-3.1-3.4-5.1C6.4,68.6,6,66.4,6,64c0-2.4,0.4-4.6,1.2-6.6c0.8-2,1.9-3.7,3.4-5.1c1.4-1.4,3.1-2.5,5.1-3.2c2-0.7,4.1-1.1,6.5-1.1c0.8,0,1.7,0.1,2.6,0.2c0.9,0.2,1.8,0.4,2.7,0.8c0.9,0.3,1.7,0.8,2.6,1.4c0.8,0.6,1.5,1.3,2.2,2.1L27.1,56.7z"/>
      <path d="M49.4,48.8H56V73h12.2v6.2H49.4V48.8z"/>
      <path d="M87.1,66.2L75.9,48.8h8.2l6.3,11.4l6.7-11.4h7.8L93.7,66.2v13h-6.6V66.2z"/>
      <path d="M120.1,48.8h20V55h-13.5v6.2h12.4v6.2h-12.4v11.9h-6.6V48.8z"/>
      <path d="M157.7,48.8h20V55h-13.5v6.2h12.4v6.2h-12.4v11.9h-6.6V48.8z"/>
      <path d="M193.6,64c0-2.4,0.4-4.6,1.2-6.6c0.8-2,1.9-3.7,3.4-5.1c1.4-1.4,3.1-2.5,5.1-3.2c2-0.7,4.1-1.1,6.5-1.1c2.3,0,4.5,0.4,6.5,1.1c2,0.7,3.7,1.8,5.1,3.2c1.4,1.4,2.6,3.1,3.4,5.1c0.8,2,1.2,4.2,1.2,6.6c0,2.4-0.4,4.6-1.2,6.6c-0.8,2-1.9,3.7-3.4,5.1c-1.4,1.4-3.1,2.5-5.1,3.2c-2,0.7-4.1,1.1-6.5,1.1c-2.3,0-4.5-0.4-6.5-1.1c-2-0.7-3.7-1.8-5.1-3.2c-1.4-1.4-2.6-3.1-3.4-5.1C194,68.6,193.6,66.4,193.6,64z M200.4,64c0,1.4,0.2,2.7,0.7,3.9c0.4,1.2,1.1,2.2,1.9,3.1c0.8,0.9,1.8,1.6,2.9,2c1.1,0.5,2.4,0.7,3.8,0.7c1.4,0,2.7-0.2,3.8-0.7c1.1-0.5,2.1-1.2,2.9-2c0.8-0.9,1.4-1.9,1.9-3.1c0.4-1.2,0.7-2.5,0.7-3.9c0-1.4-0.2-2.7-0.7-3.9c-0.4-1.2-1.1-2.2-1.9-3.1c-0.8-0.9-1.8-1.6-2.9-2c-1.1-0.5-2.4-0.7-3.8-0.7c-1.4,0-2.7,0.2-3.8,0.7c-1.1,0.5-2.1,1.2-2.9,2c-0.8,0.9-1.4,1.9-1.9,3.1C200.6,61.3,200.4,62.6,200.4,64z"/>
      <path d="M242.9,48.8h11.6c1.5,0,3,0.2,4.3,0.5c1.4,0.3,2.6,0.8,3.6,1.5c1,0.7,1.8,1.6,2.4,2.8c0.6,1.2,0.9,2.7,0.9,4.5c0,2.2-0.5,4-1.6,5.5c-1.1,1.5-2.7,2.5-4.8,2.9l7.6,12.9H259l-6.2-12.2h-3.2v12.2h-6.6V48.8z M249.5,61.4h3.9c0.6,0,1.2,0,1.9-0.1c0.7,0,1.3-0.2,1.8-0.4c0.5-0.2,1-0.6,1.3-1c0.4-0.5,0.5-1.1,0.5-1.9c0-0.8-0.2-1.4-0.5-1.8c-0.3-0.5-0.7-0.8-1.2-1.1c-0.5-0.2-1-0.4-1.6-0.5c-0.6-0.1-1.2-0.1-1.8-0.1h-4.3V61.4z"/>
      <path d="M282.9,48.8h9.9c2.4,0,4.7,0.3,6.8,0.8c2.2,0.5,4,1.4,5.6,2.6c1.6,1.2,2.9,2.8,3.8,4.8c0.9,2,1.4,4.3,1.4,7.1c0,2.5-0.5,4.6-1.4,6.5c-0.9,1.9-2.1,3.5-3.7,4.7c-1.5,1.3-3.3,2.2-5.4,2.9c-2,0.7-4.1,1-6.4,1h-10.8V48.8z M289.5,73h3.4c1.5,0,2.9-0.2,4.2-0.5c1.3-0.3,2.4-0.8,3.4-1.6s1.7-1.7,2.3-2.9c0.5-1.2,0.8-2.6,0.8-4.4c0-1.5-0.3-2.8-0.8-3.9c-0.5-1.1-1.3-2-2.2-2.7c-0.9-0.7-2-1.3-3.3-1.6c-1.3-0.4-2.6-0.5-3.9-0.5h-3.9V73z"/>
      <path d="M367.5,56.2c-0.5-0.7-1.3-1.2-2.2-1.5c-0.9-0.3-1.8-0.5-2.6-0.5c-0.5,0-1,0.1-1.5,0.2c-0.5,0.1-1,0.3-1.4,0.5c-0.5,0.2-0.8,0.6-1.1,1c-0.3,0.4-0.4,0.9-0.4,1.5c0,0.9,0.3,1.6,1,2.1c0.7,0.5,1.5,0.9,2.6,1.2c1,0.3,2.1,0.7,3.3,1c1.2,0.3,2.3,0.8,3.3,1.5c1,0.6,1.9,1.5,2.6,2.5c0.7,1.1,1,2.5,1,4.3c0,1.7-0.3,3.2-0.9,4.4c-0.6,1.3-1.5,2.3-2.5,3.1c-1.1,0.8-2.3,1.4-3.7,1.9c-1.4,0.4-2.9,0.6-4.4,0.6c-1.9,0-3.7-0.3-5.4-0.9c-1.7-0.6-3.2-1.6-4.6-2.9l4.7-5.2c0.7,0.9,1.5,1.6,2.6,2.1c1,0.5,2.1,0.8,3.2,0.8c0.5,0,1.1-0.1,1.6-0.2c0.5-0.1,1-0.3,1.5-0.6c0.4-0.3,0.8-0.6,1.1-1c0.3-0.4,0.4-0.9,0.4-1.4c0-0.9-0.3-1.6-1-2.2c-0.7-0.5-1.6-1-2.6-1.4s-2.2-0.7-3.4-1.1c-1.2-0.4-2.3-0.9-3.4-1.5c-1-0.6-1.9-1.5-2.6-2.5c-0.7-1-1-2.4-1-4.1c0-1.6,0.3-3.1,0.9-4.3s1.5-2.3,2.5-3.1c1.1-0.8,2.3-1.5,3.6-1.9c1.4-0.4,2.8-0.6,4.3-0.6c1.7,0,3.3,0.2,4.9,0.7c1.6,0.5,3,1.3,4.3,2.5L367.5,56.2z"/>
      <path d="M395.4,54.7h-8.5v-5.9h23.6v5.9H402v24.5h-6.6V54.7z"/>
      <path d="M426.4,48.8h6.6v30.5h-6.6V48.8z"/>
      <path d="M451.9,48.8h6.6V73h12.2v6.2h-18.8V48.8z"/>
      <path d="M487.2,48.8h6.6V73H506v6.2h-18.8V48.8z"/>
    </symbol>
    <!-- clyfford still -->

    <!-- climate reality 488px -->
    <symbol id="icon-climate-reality" viewBox="0 0 512 128">
      <path d="M61.4,99.6c-1.1,0-1.4,0.3-1.5,1.5c-0.1,1.8-0.2,3.6-0.7,5.3c-0.5,1.6-2.4,1.7-3.3,0.2c-0.4-0.6-0.7-1.3-0.8-1.9c-0.3-2.3-0.4-4.6-0.6-6.9c-0.2-3.6-1.5-6.5-5.1-7.8c-1.1-0.4-2.2-0.6-3.3-0.9c0-0.1,0-0.2,0-0.2c0.9-0.2,1.8-0.4,2.6-0.6c5.7-1.3,10.9-4.9,10-12.9c-0.4-3.6-2.1-6.4-5.3-8.1c-3.3-1.7-6.9-2-10.6-2c-9.8,0-19.6,0-29.5,0c-0.3,0-0.6,0-1.1,0.1c0,1.2,0,2.4,0,3.5c0,0.4-0.1,0.8,0,1.1c0.1,0.3,0.5,0.6,0.8,0.6c1.5,0.1,3,0,4.5,0.1c2,0.1,2.6,0.7,2.6,2.7c0,10.5,0,21,0,31.5c0,1.9-0.7,2.6-2.6,2.8c-1.2,0.1-2.3,0-3.5,0c-2.1,0-1.9-0.3-1.9,1.8c0,3.3,0,3.3,3.3,3.3c7.2,0,14.4,0,21.6,0c1,0,1.5-0.2,1.4-1.3c-0.1-0.9-0.1-1.8,0-2.6c0.1-0.9-0.3-1.3-1.2-1.2c-1.5,0-2.9,0.1-4.4,0c-1.9-0.1-2.7-0.9-2.7-2.9c0-4.3,0-8.7,0-13c0-0.8,0.2-1.2,1.1-1.2c2.2,0.1,4.5,0,6.7,0.2c3.1,0.3,5.4,1.8,6.4,4.9c0.3,1,0.6,2.1,0.7,3.2c0.2,2.7,0.3,5.3,0.5,8c0.3,3.2,1.6,5.7,4.8,6.8c2.5,0.9,5.1,0.9,7.6,0.2c2.8-0.7,4.7-2.5,5.5-5.2c0.6-1.8,0.9-3.8,1-5.7C64.7,99.6,64.6,99.6,61.4,99.6z M41.3,85c-3.4,0.2-6.9,0.1-10.3,0.1c-0.8,0-0.9-0.4-0.9-1c0-2.1,0-4.2,0-6.4c0-2.1,0-4.2,0-6.4c0-0.7,0.2-1.1,1-1.1c3.7,0.1,7.5,0,11.2,0.3c5.8,0.5,8.6,7,5.1,11.7C45.9,84.4,43.6,84.9,41.3,85z"/>
      <path d="M309,44.2c-0.6,0.1-1.2,0-1.9,0c-2.6,0-3.2-0.7-3.3-3.2c0-5.7,0.1-11.3-0.1-17c-0.1-3.7-1.6-6.9-5.1-8.5c-4.2-1.9-8.3-1.5-12.1,1c-1.7,1.1-3.1,2.8-4.8,4.3c-1.6-4.8-5.3-6.6-10.2-6.5c-4.8,0.1-8.1,2.8-10.7,6.8c-0.2-1.6-0.2-3.1-0.2-4.5c0-0.8-0.2-1.2-1-1.2c-4.5,0-9,0-13.5,0c-0.3,0-0.8,0.4-0.9,0.7c-0.6,3.6-0.3,3.9,3.3,3.9c0,0,0.1,0,0.1,0c2.7,0,3.4,0.7,3.4,3.4c0,5.8,0,11.6,0,17.4c0,0.5,0,0.9-0.1,1.4c-0.2,1.2-0.9,1.9-2.2,1.9c-1.2,0-2.3,0.1-3.5,0c-0.7,0-1.1,0.2-1,1c0,0.8,0.1,1.6,0,2.4c-0.1,1.1,0.3,1.4,1.4,1.4c5.2-0.1,10.3,0,15.5,0c4.2,0,3.4,0.8,3.5-3.7c0-0.8-0.3-1.1-1.1-1c-0.3,0-0.6,0-0.9,0c-2.4,0-3.1-0.7-3.1-3.1c0-2.1,0-4.2,0-6.3c0-2.7-0.1-5.4,0.3-8.1c0.5-3.6,4.3-7.6,9.2-6.7c1.9,0.4,3.3,1.4,3.3,3.3c0.2,6.2,0.3,12.4,0.3,18.6c0,1.4-0.9,2.1-2.1,2.2c-0.9,0.1-2.2-0.1-2.7,0.4c-0.5,0.6-0.2,1.8-0.2,2.8c0,0.1,0,0.2,0,0.2c-0.1,1.1,0.4,1.3,1.4,1.3c4.6,0,9.2,0,13.7,0c3.1,0,3.1,0,3.2-3.2c0-1.2-0.3-1.6-1.5-1.6c-2.7,0.1-3.2-0.6-3.3-3.2c0-4-0.1-8,0-12c0-1.3,0.2-2.6,0.6-3.8c1.3-3.7,5-5.8,8.8-5.1c1.9,0.3,3.6,2,3.6,3.9c0.1,6,0,11.9,0,17.9c0,1.4-0.8,2.2-2.1,2.3c-0.9,0.1-2.2-0.1-2.6,0.4c-0.5,0.6-0.2,1.8-0.2,2.8c0,0.1,0,0.2,0,0.2c-0.2,1.1,0.3,1.3,1.3,1.3c5.2,0,10.3,0,15.5,0c3.3,0,3.2,0,3.3-3.3C310.5,44.5,310.1,44.1,309,44.2z"/>
      <path d="M304,67.9c-3.2-1.9-6.7-2.5-10.3-2.6c-4.5-0.1-9.1-0.1-13.6-0.1c-4.8,0-9.7,0-14.5,0c-0.8,0-1.2,0.2-1.2,1.1c0.1,1.1,0,2.2,0,3.2c0,0.7,0.3,1,1,1c1.1,0,2.2,0,3.4,0c2.7,0.1,3.4,0.8,3.4,3.6c0,5,0,9.9,0,14.9c0,0,0,0,0,0c0,5.1,0,10.3,0,15.4c0,2.1-0.7,2.9-2.8,3.2c-0.4,0-0.8,0-1.2,0c-1.2,0-2.8-0.3-3.3,0.3c-0.6,0.7-0.2,2.3-0.3,3.4c-0.1,1.2,0.3,1.5,1.4,1.5c6.8,0,13.6,0,20.4,0c1.3,0,3.1,0.3,3.8-0.3c0.7-0.7,0.2-2.5,0.3-3.8c0-0.8-0.2-1-1-1c-1.7,0-3.3,0-5-0.3c-1.6-0.2-2.1-1-2.1-2.6c0-3.5,0-6.9,0-10.4c0-3.1,0-3,3.1-3.1c4.6-0.1,9.2,0,13.7-0.6c5.2-0.7,9.8-4,10.5-10.5C310.1,75.1,308.5,70.6,304,67.9z M298.8,81.3c-1,2.7-3.2,4-5.9,4.3c-3.2,0.3-6.4,0.3-9.6,0.4c-0.8,0-0.9-0.4-0.9-1.1c0-2.2,0-4.5,0-6.7c0-2.2,0-4.4,0-6.6c0-0.8,0.3-1.1,1.1-1.1c2.7,0.1,5.5,0,8.2,0.2c1.4,0.1,2.9,0.5,4.2,1.1c1.7,0.7,2.7,2.2,3.2,4.1C299.4,77.7,299.4,79.5,298.8,81.3z"/>
      <path d="M164.9,48.2c5.3,2.4,10.8,2.7,16.5,1.5c9.7-1.9,13.8-9.5,14.6-17.6c0.1-0.9-0.2-1.3-1.2-1.2c-1.3,0.1-2.6,0-3.9,0c-0.7,0-1,0.2-1.1,0.9c-0.2,1.3-0.5,2.5-0.9,3.8c-2.9,9.1-12.3,10.2-18,7.2c-3.9-2.1-5.6-5.8-6.4-9.8c-1.2-5.8-1.2-11.6,0.4-17.3c1.4-4.9,4.2-8.5,9.4-9.3c4.9-0.8,9.3,0.3,12.6,4.4c2,2.5,2.9,5.4,3.4,8.5c0.1,0.9,0.4,1.1,1.2,1.1c1.1,0,2.2,0,3.2,0c0.8,0,1-0.3,1-1c0-5.9,0-11.7,0-17.6c0-0.8-0.3-1-1-1c-1,0-2,0.1-3,0c-0.9-0.1-1.3,0.3-1.4,1.2c-0.3,1.1-0.7,2.1-1,3.3c-0.8-0.6-1.4-1.1-2-1.5c-5.7-3.9-12-4.5-18.5-2.6c-8.8,2.6-13.9,8.7-15.8,17.4c-1.4,6.2-0.8,12.4,1.5,18.3C156.5,41.9,159.8,45.9,164.9,48.2z"/>
      <path d="M13.2,21c1-0.1,2-0.1,3,0c0.8,0,1.1-0.3,1-1c0-1,0-1.9,0-2.9c0.2-4,1.3-7.5,5.4-9.2c1.5-0.6,3.3-0.9,4.9-1.2c1.6-0.2,1.6-0.1,1.6,1.4c0,8.5,0,17.1,0,25.6c0,2.4,0,4.8,0,7.2c0,1.9-0.7,2.6-2.6,2.6c-1.5,0-3.1,0-4.6,0c-0.8,0-1.3,0.2-1.2,1.1c0.1,1,0,2,0,3c0,0.8,0.3,1.2,1.2,1.2c8.2,0,16.4,0,24.6,0c0.7,0,1.1-0.3,1-1c0-1.1-0.1-2.2,0-3.2c0.1-0.9-0.3-1.1-1.1-1c-1.3,0-2.7,0-4,0c-2.7,0-3.3-0.6-3.3-3.3c0-5.9,0-11.7,0-17.6c0-4.9,0-9.8,0-14.6c0-1.2,0.4-1.6,1.5-1.4c1,0.2,2.1,0.2,3.1,0.5c3.4,0.8,6,2.7,6.7,6.2c0.5,2.1,0.5,4.3,0.6,6.4c0,0.9,0.3,1.2,1.2,1.2c1,0,2-0.1,3,0c1,0.1,1.2-0.3,1.2-1.2c0-5.7,0-11.4,0-17.1c0-1-0.3-1.3-1.3-1.3c-7,0-14,0-21,0c-6.9,0-13.7,0-20.6,0C12,1.4,12,1.4,12,3c0,1.7,0,3.4,0,5.1c0,3.9,0,7.8,0,11.6C12,20.7,12.2,21.1,13.2,21z"/>
      <path d="M103.5,45.3c0-0.9-0.3-1.2-1.2-1.1c-1,0.1-2.1,0-3.1,0c-1.7-0.1-2.5-0.8-2.6-2.5c0-0.6,0-1.2,0-1.7c0-5.7,0.1-11.4-0.1-17.1c-0.1-3.3-1.8-6-4.9-7.3c-5.3-2.3-10.2-1.2-14.6,2.3c-1.1,0.8-2,1.8-3.2,2.9c0-0.7-0.1-1.1-0.1-1.6c0-5.5,0-10.9,0-16.4c0-0.8-0.1-1.3-1.1-1.3c-4.4,0-8.8,0-13.2,0c-0.8,0-1,0.3-1,1.1c0,0.9,0,1.8,0,2.7c0,0.7,0.2,0.9,0.9,0.9c0.9,0,1.8,0,2.7,0c2.6,0,3.3,0.8,3.3,3.4c0,10.4,0,20.7,0,31.1c0,0.7,0,1.5-0.3,2.1c-0.3,0.6-0.9,1.1-1.5,1.4c-0.5,0.2-1.1,0.1-1.7,0.1c-3.5,0-3.4,0-3.4,3.5c0,1,0.3,1.3,1.3,1.3c5.8,0,11.7,0,17.5,0c2.3,0,2.3,0,2.3-2.4c0-2.4,0-2.4-2.4-2.4c-2.6,0-3.3-0.7-3.3-3.3c0-3.4-0.1-6.8,0-10.2c0-1.6,0.2-3.2,0.7-4.6c1.3-3.7,4.4-7,9.9-5.8c2.1,0.5,3.5,1.9,3.7,4.1c0.1,2.2,0.1,4.3,0.1,6.5c0,3.7,0,7.4-0.1,11.1c0,1.6-0.8,2.2-2.4,2.3c-1,0.1-2.5-0.2-2.9,0.3c-0.5,0.7-0.2,2.1-0.3,3.1c-0.1,1,0.2,1.4,1.3,1.3c5.4-0.1,10.7,0,16.1,0C103.7,49,103.6,49,103.5,45.3z"/>
      <path d="M247.5,80.4c0.1-0.9-0.2-1.2-1.2-1.2c-4.6,0-9.2,0-13.9,0c-2.5,0-2.2-0.3-2.2,2.2c0,2.8-0.3,2.5,2.5,2.5c2.6,0,3.4,1.2,2.4,3.6c-1.5,3.6-2.9,7.2-4.4,10.8c-0.6,1.4-1.2,2.7-1.7,4c-0.1,0-0.3,0-0.4,0c-0.7-1.6-1.3-3.1-2-4.7c-1.5-3.6-3.1-7.2-4.6-10.9c-0.8-1.8-0.2-2.8,1.7-2.9c1-0.1,2.5,0.2,2.9-0.3c0.5-0.7,0.2-2.1,0.3-3.1c0.1-1.1-0.4-1.3-1.3-1.3c-5.7,0-11.3,0-17,0c-2.5,0-2.5,0-2.5,2.5c0,2.5-0.3,2.1,2.3,2.4c2,0.2,3.6,1,4.5,2.9c3.9,8.3,7.7,16.5,11.6,24.8c0.2,0.5,0.2,1.3,0,1.9c-0.6,1.5-1.3,3-2,4.5c-1.8,3.7-4.6,5.3-8.6,4.9c-1-0.1-1.8-0.5-2.4-1.5c0.5,0,0.7-0.1,1-0.1c3.4,0.3,5.1-3.7,3.6-6.2c-1-1.6-2.5-2.3-4.4-2.4c-2,0-3.6,0.8-4.6,2.5c-2.2,3.7-0.6,9,3.2,11c4.8,2.6,11.3,1.5,14.7-3c1.8-2.3,3.3-4.9,4.5-7.6c4.1-9.5,8.1-19.1,12.1-28.6c0.7-1.6,1.8-2.8,3.5-3.2c0.8-0.2,1.9-0.1,2.3-0.6c0.4-0.5,0.1-1.6,0.2-2.4C247.5,80.9,247.4,80.6,247.5,80.4z"/>
      <path d="M136.4,100.3c-1.8,0-1.7,0-1.8,1.8c-0.1,1.7-0.2,3.5-0.6,5.2c-0.1,0.5-1,1.1-1.5,1.2c-0.8,0.1-1.4-0.6-1.5-1.5c-0.1-0.6,0-1.2,0-1.7c0-5.6,0.1-11.2,0-16.7c-0.1-4.2-2-7.2-5.9-8.8c-3.6-1.5-7.4-1.6-11.2-1.2c-2.9,0.3-5.8,1-8.3,2.8c-2.5,1.9-3.5,5-2.6,7.8c1,3.1,4.2,4,7.6,2.8c1.8-0.6,2.5-2.2,2.2-4.3c-0.3-1.9-1.2-2.8-3.1-3.1c-0.3-0.1-0.7-0.1-1.4-0.2c0.6-0.5,0.9-0.7,1.3-0.9c2.8-1.5,5.9-1.5,8.9-0.9c1.7,0.3,3.1,1.2,3.8,2.9c1.2,3.1-0.1,6.2-3.4,7.3c-3.3,1.2-6.8,2-10.1,3c-5.8,1.7-8,5-7.5,10.9c0.3,2.8,1.7,4.9,4.2,6.1c4.3,1.9,8.7,1.6,12.9-0.3c1.6-0.7,3-2.1,4.5-3.2c0,0.1,0.2,0.2,0.2,0.3c0.6,2,1.9,3.4,3.9,3.8c1.6,0.4,3.4,0.4,5.1,0.3c2.6-0.1,4.5-1.4,5.8-3.7c1.2-2.1,1.4-4.4,1.5-6.7C139.2,100.3,139.2,100.3,136.4,100.3z M121,105c-1.7,2.8-4.9,4.2-8,3.2c-0.7-0.2-1.5-0.8-1.9-1.4c-1.4-2.3-0.7-5.6,1.6-7.1c1.4-0.9,2.9-1.5,4.4-2.2c1.7-0.8,3.4-1.5,5.3-2.4C122.4,98.6,122.9,101.9,121,105z"/>
      <path d="M318.1,49.5c3.6,1,7.2,0.8,10.6-0.7c1.8-0.8,3.4-2.2,5.2-3.4c0.1,0.1,0.1,0.2,0.2,0.3c0.8,2.6,2.8,3.8,5.3,4.2c3.7,0.6,8-0.5,9.7-4.2c1-2,1.3-4.2,1.2-6.4c0-3.3,0.3-2.6-2.6-2.7c-0.2,0-0.3,0-0.5,0c-1.1-0.2-1.5,0.3-1.5,1.4c0,1.8-0.2,3.6-0.5,5.4c-0.1,0.8-0.8,1.5-1.6,1.2c-0.6-0.2-1.1-0.9-1.4-1.5c-0.3-0.6-0.1-1.4-0.1-2.1c0-5.4,0-10.8,0-16.1c0-5.1-2.9-8.6-7.8-9.8c-4.4-1.1-8.8-1-13.1,0.1c-2.4,0.6-4.6,1.6-6.2,3.8c-1.6,2.2-1.8,5.3-0.4,7.3c1.3,2,3.5,2.7,6.3,2c2.2-0.6,3.1-2,2.9-4.4c-0.2-2.1-1.3-3.1-3.5-3.2c-0.2,0-0.5-0.1-1-0.1c0.6-0.5,0.9-0.8,1.3-1c3.1-1.6,6.4-1.7,9.7-0.6c2.7,0.9,3.8,3.5,3.1,6.2c-0.6,2.3-2.3,3.4-4.3,4.1c-3.5,1.1-7.1,1.9-10.5,3.1c-3.4,1.1-6.3,3.3-6.5,8.3C312,45,314.1,48.3,318.1,49.5z M333.9,45.3C333.9,45.3,333.9,45.3,333.9,45.3L333.9,45.3z M323.6,36.2c3.1-1.8,6.5-3.3,9.7-4.9c0.1,0.1,0.2,0.2,0.4,0.4c0,3.1,0.4,6.3-1.2,9.2c-1.6,2.9-4.3,4.2-7.5,3.8c-1.3-0.2-2.3-0.9-2.9-2.1C321.2,40.3,321.7,37.3,323.6,36.2z"/>
      <path d="M383.2,92.7c-0.7-5.5-3.4-9.8-8.4-12.3c-4.2-2.2-8.8-2.6-13.5-1.9c-2.9,0.4-5.6,1.4-8,3.1c-4.1,3-6.1,7.1-6.6,12.1c-0.5,5.9,0.6,11.4,5.1,15.6c3.7,3.4,8.3,4.5,13.2,4.7c1.9-0.3,3.9-0.4,5.8-0.9c4.6-1.1,8.2-3.7,10.5-7.9C383.5,101.2,383.8,97,383.2,92.7z M372.4,104.2c-1.4,3.2-3.8,4.9-7.2,5c-3.6,0.1-6.4-1.5-7.6-4.9c-2.1-5.5-2.1-11.1,0-16.6c1.4-3.5,4.4-5.1,8-4.8c3.5,0.3,6.2,2.4,7.2,5.9c0.6,2.4,0.9,4.8,1.3,7.2c-0.1,0-0.2,0-0.3,0.1C373.9,98.8,373.6,101.6,372.4,104.2z"/>
      <path d="M112.2,48.8c3.8,1.3,7.7,1.6,11.7,0.8c3.7-0.7,6.8-2.3,8.9-5.6c1.3-2.1,2.1-4.3,2.2-6.9c-1.7,0-3.3,0-4.8,0c-0.8,0-1,0.3-1.2,1c-0.8,3.1-2.5,5.6-5.9,6.3c-4.1,0.9-7.4,0-9.4-3.6c-1.2-2.1-1.4-4.5-1.4-6.9c0-0.3,0.5-0.7,0.9-0.9c0.3-0.1,0.7,0,1,0c6.6,0,13.2,0,19.8,0c1,0,1.5-0.3,1.4-1.3c-0.1-1.1-0.1-2.2-0.3-3.4c-1-6.9-5.8-13.4-14.3-14c-6.9-0.5-13.4,2.5-16.4,9.3c-2.3,5.2-2.3,10.6-0.7,16C105,44.1,107.8,47.3,112.2,48.8z M112.3,27.2c0.4-2.9,1.1-5.7,3.9-7.2c3.3-1.8,7.5-0.2,8.6,3.4c0.4,1.2,0.5,2.6,0.6,3.9c0.1,0.8-0.3,1-1,1c-1.9,0-3.7,0-5.6,0c-1.9,0-3.7,0-5.6,0C112.6,28.3,112.2,28.1,112.3,27.2z"/>
      <path d="M383.7,48.2c4.1,1.9,8.4,2.2,12.8,1.5c6.6-1,10.9-5.5,11.5-12.6c-1.6,0-3.1,0.1-4.5,0c-1-0.1-1.4,0.3-1.6,1.3c-0.7,3.1-2.5,5.3-5.6,6c-4.4,1-8.5-0.2-10.1-4.9c-0.6-1.7-0.6-3.7-0.9-5.5c-0.1-0.8,0.3-0.9,1-0.9c1.3,0,2.6,0,3.9,0c5.7,0,11.3,0,17,0c0.6,0,1.2,0.1,1.2-0.8c0.2-5.5-1.4-10.3-5.5-14.1c-3.7-3.5-8.3-4.3-13.2-3.6c-7,0.9-11.8,6-13.3,12.3c-0.9,3.8-0.8,7.7,0,11.5C377.4,42.7,379.6,46.2,383.7,48.2z M389,20.2c3.8-2.3,8.6-0.1,9.3,4.4c0.8,4.6,0.8,3.6-3.1,3.7c-1.1,0-2.2,0-3.4,0c0,0,0,0,0,0c-1.9,0-3.7,0-5.6,0c-0.3,0-0.9-0.5-0.9-0.7C385.6,24.7,386.2,21.9,389,20.2z"/>
      <path d="M98,90.5c-1-4.1-3-7.6-6.6-9.9c-3.9-2.5-8.2-3-12.7-2.1c-6.6,1.4-10.7,6.3-12.1,12.1c-0.9,3.8-0.8,7.7,0,11.5c1,4.2,3,7.6,6.9,9.6c4.7,2.4,9.6,2.5,14.6,1.5c6.3-1.3,9.3-6,10.1-11.4c0.1-0.7-0.2-0.9-0.8-0.9c-1.2,0-2.4,0.1-3.6,0c-1.1-0.1-1.5,0.4-1.7,1.3c-1.2,4.9-5.2,6.8-9.8,6.1c-2.1-0.3-3.8-1.3-4.9-3.1c-1.4-2.2-1.9-4.7-1.9-7.3c0-0.9,0.2-1.3,1.3-1.3c3.4,0.1,6.8,0,10.2,0c0,0,0,0,0,0c3.5,0,6.9,0,10.4,0c1,0,1.3-0.3,1.2-1.2C98.3,93.9,98.3,92.2,98,90.5z M87.9,92.2c-1.9,0-3.7,0-5.6,0c-1.9,0-3.7-0.1-5.6,0c-1,0-1.3-0.4-1.1-1.2c0.5-1.7,0.8-3.4,1.6-4.9c1.2-2.3,3.9-3.3,6.5-2.8c2.4,0.5,4.3,2.4,4.8,5c0.2,0.9,0.3,1.9,0.4,2.8C89,91.8,88.7,92.2,87.9,92.2z"/>
      <path d="M419,78.2c-6.8,0.7-11.5,4.4-13.7,11c-1.5,4.4-1.4,9-0.3,13.4c1.1,4.6,3.9,8.1,8.4,9.9c3.7,1.5,7.6,1.5,11.4,1.1c6.3-0.7,11-5.5,11.7-11.8c0.1-0.7-0.2-0.9-0.8-0.9c-1.2,0-2.4,0.1-3.6,0c-1.1-0.1-1.5,0.4-1.7,1.3c-1.2,4.8-4.9,6.7-9.5,6.2c-2.4-0.3-4.2-1.4-5.5-3.5c-1.3-2.3-1.7-4.8-1.6-7.3c0-0.8,0.5-0.8,1.1-0.8c3.5,0,6.9,0,10.4,0c3.5,0,6.9,0,10.4,0c0.9,0,1.2-0.3,1.2-1.2c0.1-2.6-0.3-5.1-1.3-7.4C432.6,81.1,426.6,77.4,419,78.2z M426,92.2c-1.9-0.1-3.7,0-5.6,0c-1.9,0-3.7,0-5.6,0c-0.8,0-1.2-0.3-1-1.1c0.5-1.8,0.9-3.7,1.8-5.2c1.4-2.4,3.7-3,6.4-2.6c2.4,0.4,4.3,2.4,4.8,5c0.2,0.9,0.3,1.8,0.4,2.7C427.3,91.8,427,92.2,426,92.2z"/>
      <path d="M468.7,81.3c-5.4-3.6-11.3-4.1-17.3-1.8c-5.3,2-8.7,5.9-10.4,11.3c-1.1,3.6-0.9,7.3-0.1,10.9c0.8,3.9,2.6,7.3,6.2,9.6c3.3,2.1,7,2.6,10.9,2.5c2.4,0,4.8-0.4,7-1.5c5.3-2.5,7-7.2,7.6-12.5c0-0.2-0.5-0.7-0.8-0.7c-1.1-0.1-2.2,0-3.4-0.1c-1-0.1-1.3,0.3-1.6,1.2c-0.5,1.6-1,3.3-2,4.6c-1.8,2.7-4.6,3.3-7.6,2.7c-3-0.6-4.9-2.5-6-5.2c-1.7-4.2-1.7-8.6-0.4-12.9c1.1-3.7,3.6-6.3,7.7-6.6c2.9-0.3,5.5,0.2,7.8,2.6c-0.6,0.2-1,0.4-1.5,0.5c-2.9,0.7-3.3,5-1.9,6.6c1.2,1.4,4.1,2.4,5.9,1.8c2.2-0.7,3.5-2.2,3.9-4.4C473.4,86.2,471.8,83.3,468.7,81.3z"/>
      <path d="M348.5,19.2c-0.1,0.7,0.3,1,0.9,0.9c1.2,0,2.5,0.1,3.7,0c1.1-0.1,1.4,0.3,1.4,1.4c0,6.9,0,13.7,0,20.6c0,2.9,0.9,5.4,3.7,6.8c1.1,0.5,2.3,0.8,3.5,1c4.9,0.9,9.4-1.2,10.8-5.3c0.8-2.5,0.9-5.2,1-7.9c0.2-3.6,0-3.6-3.6-3.6c-1,0-1.2,0.3-1.2,1.2c0,2.1,0,4.2,0,6.2c-0.1,1.9-1.1,2.9-2.7,3c-2.3,0.1-3.1-0.7-3.2-3c0-6.4,0-12.7,0-19.1c0-1.2,0.3-1.5,1.5-1.5c2.6,0.1,5.1,0,7.9,0c0-1.4,0-2.5,0-3.7c0-0.8-0.3-1-1-1c-2.3,0-4.7,0-7,0c-1.1,0-1.5-0.3-1.5-1.5c0.1-3.6,0-7.2,0-10.7c0-0.8-0.2-1.3-1.1-1.2c-0.8,0.1-1.7,0.1-2.5,0c-0.6,0-0.8,0.2-0.9,0.8c-0.3,1.6-0.5,3.3-1,4.9c-0.9,3.3-2.6,5.9-5.9,7.2c-0.9,0.4-2.3,0.4-2.7,1.1C348.2,16.9,348.6,18.1,348.5,19.2z"/>
      <path d="M496.5,97.1c-1.1,0-1.3,0.4-1.3,1.4c0.1,2.1,0.1,4.3,0,6.4c-0.1,1.8-1.3,2.7-3.1,2.7c-1.8,0-2.6-0.9-2.7-2.6c0-6.6,0-13.2,0-19.9c0-0.8,0.3-1.1,1.1-1.1c1.5,0,3.1,0,4.6,0c3.7,0,3.6,0,3.6-3.7c0-0.8-0.3-1.1-1.1-1c-2.4,0-4.7,0-7.1,0c-1,0-1.4-0.3-1.3-1.3c0.1-3.6,0-7.2,0-10.9c0-0.8-0.2-1.2-1.1-1.2c-0.8,0.1-1.6,0.1-2.4,0c-0.7,0-0.9,0.2-1,0.9c-0.3,1.6-0.5,3.3-1,4.9c-1,3.4-2.8,6.1-6.3,7.3c-0.8,0.3-2,0.4-2.4,1c-0.4,0.7-0.1,1.9-0.2,2.8c0,0,0,0.1,0,0.1c-0.1,0.7,0.3,1.1,1,1c1.2,0,2.5,0,3.7,0c1,0,1.3,0.3,1.3,1.3c0,3.5,0,7.1,0,10.6c0,0,0,0,0,0c0,3.5,0,7,0,10.5c0.1,2.8,1.1,5.2,3.8,6.5c2.3,1.1,4.7,1.1,7.1,0.9c3.5-0.3,6.4-2.5,7.3-5.9c0.6-2.4,0.7-4.8,0.8-7.3C500.1,97.1,500,97.1,496.5,97.1z"/>
      <path d="M202,97.1c-1.7,0-1.7,0-1.7,1.7c-0.1,2.2-0.1,4.5-0.3,6.7c-0.2,1.4-1.6,2.2-3.1,2c-1.6-0.2-2.4-0.9-2.4-2.3c0-6.7,0-13.5,0-20.2c0-0.8,0.3-1,1-1c1.6,0,3.2,0,4.7,0c3.5,0,3.5,0,3.5-3.6c0-0.9-0.3-1.2-1.2-1.1c-2.3,0-4.7,0-7,0c-1.1,0-1.4-0.4-1.4-1.4c0.1-2.9,0-5.8,0-8.7c0-3.7,0.6-3.1-3.3-3.2c-0.9,0-1.2,0.4-1.3,1.1c-0.2,1.2-0.3,2.5-0.6,3.7c-0.9,3.7-2.5,6.9-6.5,8.2c-0.9,0.3-2.1,0.4-2.4,1c-0.4,0.7-0.1,1.9-0.1,2.8c-0.1,1,0.4,1.2,1.3,1.2c1.2-0.1,2.3,0,3.5,0c1-0.1,1.3,0.3,1.3,1.3c0,3.6,0,7.2,0,10.7c0,0,0,0,0,0c0,3.5,0,7.1,0,10.6c0,3.3,1.8,5.8,5,6.6c1.9,0.5,3.9,0.6,5.9,0.5c3.8-0.2,6.9-2.9,7.5-6.7c0.4-2.3,0.4-4.6,0.5-6.9C205,97.1,204.9,97.1,202,97.1z"/>
      <path d="M340.7,79.2c-4.1-2-8-1.3-11.1,2.1c-0.9,1-1.6,2.1-2.4,3.1c-0.1,0-0.2,0-0.3,0c0-1.3-0.1-2.5,0-3.8c0.1-1.1-0.2-1.4-1.4-1.4c-3.5,0.1-7,0-10.5,0c-3.6,0-3.6,0-3.4,3.6c0,0.8,0.3,1.1,1.1,1.1c1.1,0,2.3,0,3.4,0c1.5,0.1,2.3,0.9,2.3,2.4c0,6.4,0,12.8,0,19.2c0,1.5-0.8,2.3-2.3,2.4c-0.5,0-0.9,0-1.4,0c-3.1,0-3,0-3.1,3.1c0,1.2,0.3,1.6,1.5,1.6c5.9-0.1,11.8,0,17.7,0c3.6,0,3.6,0,3.5-3.6c0-0.8-0.3-1-1-1c-1.2,0.1-2.4,0-3.6,0c-1.8-0.1-2.8-1-2.8-2.8c0-4.2-0.1-8.4,0-12.6c0.1-3.4,1.2-6.5,3.9-8.7c2.3-1.9,5.4-2.4,7.9-1c-0.7,0.2-1.2,0.4-1.7,0.6c-3.1,1.1-3.9,5.1-1.4,7.3c2.4,2.2,6.6,1.5,8.2-1.4C345.8,85.9,344.2,81,340.7,79.2z"/>
      <path d="M399,79.2c-4.5,0-9,0-13.5,0c-0.7,0-1.1,0.2-1,1c0,0.8,0,1.7,0,2.5c-0.1,0.9,0.3,1.3,1.2,1.3c1-0.1,1.9,0,2.9,0c2.2,0.1,2.9,0.7,3,2.9c0,0.4,0,0.8,0,1.2c0,10.3,0,20.6,0,30.9c0,0.6,0,1.2-0.1,1.7c-0.4,3.3-4.2,5-7.3,3.1c0.7-0.3,1.2-0.5,1.7-0.7c1.5-0.8,2.1-2.1,1.9-3.6c-0.2-1.9-1.6-3.2-3.5-3.4c-2.4-0.3-4.3,0.7-5.1,2.7c-1.1,2.7,0.2,6.1,3.1,7.8c2.7,1.5,5.5,1.6,8.5,1.2c5.3-0.7,9.1-3.7,9.1-9.9c0-12.5,0-25.1,0-37.6C400,79.5,399.8,79.2,399,79.2z"/>
      <path d="M202.8,44.2c-3.7,0.1-3.7,0.1-3.5,3.8c0,0.7,0.2,1,1,1c6.4,0,12.8,0,19.2,0c0.7,0,0.9-0.2,0.9-0.9c0-1,0-2,0-3c0-0.7-0.2-1-0.9-0.9c-1.1,0-2.2,0-3.2-0.1c-1-0.1-1.7-0.6-1.9-1.7c-0.1-0.7-0.2-1.3-0.2-2c0-6.2,0-12.3,0-18.5c0,0,0,0,0,0c0-6.4,0-12.7,0-19.1c0-1.2-0.4-1.5-1.5-1.5c-4,0.1-8,0.1-12,0c-1.1,0-1.3,0.4-1.3,1.4c0,3.3,0,3.3,3.3,3.3c2.2,0,3.1,0.8,3.1,3c0,10.7,0,21.5,0,32.2C205.7,43.4,204.9,44.2,202.8,44.2z"/>
      <path d="M157.6,108.1c-2.3,0-3.1-0.9-3.1-3.2c0-6.3,0-12.7,0-19c0-6.5,0-13,0-19.5c0-1-0.3-1.3-1.3-1.3c-3.4,0.1-6.8,0-10.2,0c-3.6,0-3.6,0-3.4,3.7c0,0.7,0.3,1.1,1,1c1,0,2,0,3,0.1c1.7,0.2,2.4,0.9,2.4,2.6c0,11,0,21.9,0,32.9c0,1.7-0.9,2.5-2.5,2.6c-1,0.1-1.9,0-2.9,0c-0.7,0-1.1,0.2-1,1c0.1,0.8,0.1,1.6,0,2.4c-0.1,1,0.4,1.3,1.3,1.3c6.2,0,12.3,0,18.5,0c1.1,0,1.4-0.4,1.4-1.4C160.7,108.2,160.7,108.2,157.6,108.1z"/>
      <path d="M225.8,44.2c-1.1,0-2.5-0.2-3.1,0.3c-0.6,0.6-0.1,2.1-0.2,3.1c-0.1,1,0.2,1.4,1.3,1.3c6-0.1,12,0,18,0c1.7,0,1.7,0,1.7-1.7c0-3.1,0-3.1-3-3.1c-2.7,0-3.3-0.7-3.3-3.5c0-3.9,0-7.8,0-11.7c0-4.1,0-8.2,0-12.2c0-1-0.3-1.4-1.4-1.4c-4,0.1-8,0.1-12,0c-1,0-1.4,0.3-1.3,1.3c0.1,1.1-0.3,2.5,0.3,3.1c0.5,0.5,1.9,0.2,3,0.2c2.1,0.1,2.9,0.8,2.9,2.9c0.1,6.1,0.1,12.2,0,18.4C228.6,43.5,227.9,44.1,225.8,44.2z"/>
      <path d="M180.1,108.1c0,0-0.1,0-0.1,0c-2.2,0-3-0.9-3-3c0-4.1,0-8.2,0-12.2c0-4.2,0-8.3,0-12.5c0-0.9-0.3-1.2-1.2-1.2c-3.3,0.1-6.7,0-10,0c-3.6,0-3.6,0-3.5,3.7c0,0.8,0.3,1.1,1.1,1.1c0.9,0,1.8,0,2.7,0.1c1.6,0.2,2.3,0.9,2.3,2.6c0,6.3,0,12.6,0,18.9c0,1.7-0.9,2.6-2.6,2.7c-0.8,0-1.7,0-2.5,0c-0.7,0-1.1,0.2-1,1c0,0.9,0,1.7,0,2.6c0,0.7,0.2,1,0.9,1c6.4,0,12.8,0,19.2,0c0.3,0,0.9-0.5,0.9-0.8C183.7,108.2,183.7,108.1,180.1,108.1z"/>
      <path d="M389.8,69.4c0,2.9,2.2,5.2,5,5.2c2.9,0,5.2-2.2,5.2-5.1c0-2.8-2.3-5.2-5.1-5.2C392.1,64.4,389.8,66.6,389.8,69.4z"/>
      <path d="M166.6,69.5c0,2.8,2.4,5.2,5.2,5.2c2.8,0,5.2-2.3,5.2-5.1c0-2.8-2.4-5.2-5.2-5.1C168.9,64.4,166.6,66.7,166.6,69.5z"/>
      <path d="M232,10.8c2.8,0,5.1-2.3,5.1-5.1c0-2.9-2.2-5.2-5.1-5.2c-2.9,0-5.1,2.2-5.1,5.1C226.9,8.6,229.1,10.8,232,10.8z"/>
    </symbol>
    <!-- climate reality -->

    <!-- bc4u 290px -->
    <symbol id="icon-bc4u" viewBox="0 0 512 128">
      <path d="M111,125.5c0-41.1,0-81.7,0-122.8c1.6-0.1,3.2-0.3,4.8-0.3c10.6,0,21.1,0.1,31.7,0c16.6-0.3,22.8,10.4,24,21.6c0.7,6.9,0.6,13.9,0.2,20.9c-0.4,8.1-5.4,13.2-13.4,16.5c2,0.8,3.4,1.3,4.8,1.8c7.7,3.3,10.5,10.2,11,17.5c0.6,8.1,0.1,16.3-0.9,24.3c-1.4,11.4-9.5,17.4-19.8,19.4C139.6,127.1,125.5,126.2,111,125.5z M131.6,69.6c0,12.9,0,24.9,0,37.1c4.5,0,8.7,0.4,12.7-0.1c4-0.5,7.6-2.6,8.1-7c0.8-6.1,1.3-12.3,1-18.4c-0.2-4.6-2.3-9.3-7.6-10.4C141.3,69.9,136.6,70,131.6,69.6z M131.5,54c3.9,0,7.2,0,10.6,0c4.2,0,7.1-2.2,8.4-6.1c2.4-7.2,2.5-14.6,0.2-21.8c-0.6-1.9-3.1-4.2-4.9-4.5c-4.6-0.7-9.3-0.2-14.2-0.2C131.5,32.4,131.5,42.9,131.5,54z"/>
      <path d="M358,2.7c0,2.3,0,4.1,0,5.9c0,28.4,0,56.7,0.1,85.1c0,2.9,0.4,6,1.5,8.6c1.5,3.7,7.1,6.1,11.3,5.4c5.2-0.8,8.7-4,9.3-8.8c0.3-2.2,0.4-4.4,0.4-6.7c0-28.1,0-56.1,0-84.2c0-1.7,0-3.5,0-5.4c7,0,13.3,0,20,0c0.1,1.6,0.2,3,0.2,4.4c0,29,0.1,57.9-0.1,86.9c0,5.4-1.2,10.9-2.7,16.1c-2.1,7.6-7.4,12.8-14.8,15.4c-9.7,3.4-19.7,3.3-29.3-0.1c-10.1-3.6-14.3-11.9-15.6-21.9c-0.5-3.8-0.5-7.7-0.5-11.6c0-27.9,0-55.8,0-83.8c0-1.7,0-3.5,0-5.5C344.8,2.7,351.1,2.7,358,2.7z"/>
      <path d="M224.9,79c7.2,0,13.7,0,20.6,0c0.6,13,0.7,25.6-6.7,36.9c-4.7,7.3-11.6,11.1-20,11.5c-5.6,0.2-11.3,0-16.8-1.3c-11.6-2.6-17.9-11.4-18.6-22.3c-1.3-18.9-1.3-37.9-1.5-56.9c-0.1-7.1,0.4-14.2,1.3-21.3c1.4-11.6,9.7-22.8,23.8-25.1C214-0.5,220.3,0,226.7,2c7.8,2.5,12.6,8,15.6,15.4c3.1,7.6,4.6,23.5,2.8,31.7c-6.4,0-12.9,0-20.1,0c0-3.8,0.1-7.4,0-11.1c-0.1-3.2-0.2-6.6-0.8-9.7c-1.3-6-5-9.1-10-8.9c-4.9,0.1-9.4,4.1-10.3,9.5c-0.7,4.5-1.1,9.2-1.1,13.7c0.2,18.4,0.5,36.8,0.9,55.2c0,1.8,0.7,3.8,1.6,5.5c3.4,6.6,12.7,7.3,16.4,0.9c1.9-3.3,2.7-7.5,3.1-11.4C225.3,88.4,224.9,83.9,224.9,79z"/>
      <path d="M316.9,2.6c0,27.9,0,55.3,0,83.2c3.8,0,7.2,0,10.9,0c0,6.1,0,11.8,0,18c-3.4,0-6.8,0-10.8,0c0,7.4,0,14.3,0,21.5c-6.8,0-12.9,0-19.9,0c0-7,0-13.8,0-21.2c-14.5,0-28.3,0-42.7,0c0.4-7.5-1.4-14.2,2.4-21.1c13.8-25.5,27.2-51.3,40.7-77c0.6-1.2,1.3-2.3,1.9-3.4C305.2,2.6,310.7,2.6,316.9,2.6z M296.9,46.6c-0.4-0.1-0.7-0.3-1.1-0.4c-6.7,12.9-13.4,25.9-20.3,39.3c7.6,0,14.4,0,21.4,0C296.9,72.2,296.9,59.4,296.9,46.6z"/>
    </symbol>
    <!-- bc4u -->

    <!-- sprocket 128px -->
    <symbol id="icon-sprocket" viewBox="0 0 512 128">
      <path d="M248.5,0c5,0,10,0,15.1,0c0.6,1.7,1.6,3.3,1.9,5c0.7,5.6,1.3,11.2,1.7,16.8c0.2,3.4,2.5,5,5,6.2c2.4,1.2,4.4-0.3,6.2-1.8c4.4-3.7,8.8-7.4,13.2-11.1c2.5-2.1,4.2-2,6.5,0.2c2.2,2.1,4.3,4.3,6.4,6.4c2.5,2.6,2.6,4.2,0.2,7c-3.6,4.3-7.2,8.6-10.9,12.9c-1.5,1.8-3,3.8-1.8,6.2c1.3,2.5,2.8,4.8,6.2,5c5.6,0.4,11.2,0.9,16.8,1.6c1.7,0.2,3.4,1.2,5,1.9c0,5,0,10,0,15.1c-1.7,0.6-3.3,1.6-5,1.9c-5.6,0.7-11.2,1.3-16.8,1.7c-3.4,0.2-5,2.5-6.2,5c-1.2,2.4,0.3,4.4,1.8,6.2c3.7,4.4,7.4,8.8,11.1,13.2c2.1,2.5,2,4.2-0.2,6.5c-2.1,2.2-4.3,4.3-6.4,6.4c-2.6,2.5-4.2,2.6-7,0.2c-4.4-3.7-8.8-7.3-13.2-11.1c-2.5-2.1-5.5-1.9-7.9-0.7c-1.5,0.7-2.6,3.2-2.9,5c-0.8,5.7-1.1,11.4-1.8,17.1c-0.2,1.7-1.2,3.4-1.9,5c-5,0-10,0-15.1,0c-0.6-1.7-1.6-3.3-1.9-5c-0.7-5.6-1.3-11.2-1.7-16.8c-0.2-3.4-2.5-5-5-6.2c-2.4-1.2-4.4,0.3-6.2,1.8c-4.4,3.7-8.8,7.4-13.2,11.1c-2.5,2.1-4.2,2-6.6-0.2c-2.2-2.1-4.3-4.3-6.4-6.4c-2.5-2.6-2.6-4.2-0.2-7c3.7-4.4,7.3-8.8,11.1-13.2c2.1-2.5,1.9-5.5,0.7-7.9c-0.7-1.5-3.2-2.6-5-2.9c-5.7-0.8-11.4-1.1-17.1-1.8c-1.7-0.2-3.4-1.2-5-1.9c0-5,0-10,0-15.1c1.7-0.6,3.3-1.6,5-1.9c5.6-0.7,11.2-1.3,16.8-1.6c3.4-0.2,5-2.5,6.2-5c1.2-2.4-0.3-4.4-1.8-6.2c-3.7-4.4-7.4-8.8-11.1-13.2c-2.1-2.5-2-4.2,0.2-6.5c2.1-2.2,4.3-4.3,6.4-6.4c2.6-2.5,4.2-2.6,7-0.2c4.4,3.7,8.8,7.3,13.2,11.1c2.5,2.1,5.5,1.9,7.9,0.7c1.4-0.7,2.6-3.2,2.9-5c0.8-5.7,1.1-11.4,1.8-17.1C246.8,3.3,247.8,1.7,248.5,0z M278.8,65.7c-0.1-13.3-10.6-23.8-23.9-23.8c-13.5,0-24.1,10.7-24,24.4c0.1,13.1,11,23.6,24.3,23.6C268.3,89.7,278.9,78.9,278.8,65.7z"/>
      <path d="M266.6,77.1c-6.4,0-12.6,0.1-18.7,0c-3.2-0.1-4.8-2.3-4.9-5.1c-0.2-5.8-0.1-11.6-0.1-17.7c6.6,0,13.1-0.1,19.5,0.1c2.5,0.1,4.1,2,4.1,4.4C266.7,64.6,266.6,70.7,266.6,77.1z"/>
    </symbol>
    <!-- sprocket -->

    <!-- ello 128px -->
    <symbol id="icon-ello" viewBox="0 0 512 128">
      <path d="M256,0c-35.3,0-64,28.7-64,64s28.7,64,64,64s64-28.7,64-64S291.3,0,256,0z M293.1,73.6c-2.1,8.3-6.9,15.5-13.5,20.6c-6.5,5.1-14.8,8.2-23.7,8.2c-8.9,0-17.2-3.1-23.7-8.2c-6.5-5.1-11.3-12.3-13.5-20.6l0,0c-0.5-2,0.7-4,2.6-4.5c2-0.5,4,0.7,4.5,2.6c1.7,6.7,5.6,12.5,10.9,16.7c5.3,4.2,11.9,6.6,19.2,6.6c7.3,0,13.9-2.5,19.2-6.6c5.3-4.2,9.2-10,10.9-16.7c0.5-2,2.5-3.1,4.5-2.6C292.5,69.6,293.6,71.6,293.1,73.6z"/>
    </symbol>
    <!-- ello -->

    <!-- kfc 432px -->
    <symbol id="icon-kfc" viewBox="0 0 512 128">
        <path d="M437.8,0c2,0.1,4,0.3,6,0.4c9.3,0.6,18.4,2.1,27.3,4.8c0.9,0.3,1.1,0.6,0.8,1.5c-2.7,9.5-5.3,19-8,28.5c-0.2,0.7-0.5,0.9-1.2,1c-2.2,0.3-3.7-0.4-5.3-2.2c-4.4-5.2-10.3-7.8-16.8-9.1c-6.5-1.2-13-1.1-19.5-0.4c-7.1,0.8-14,2.4-20.4,5.6c-9.5,4.6-16.9,11.4-20.8,21.4c-6.5,16.8-1.3,35.4,15.7,45.4c6.3,3.7,13.1,5.6,20.2,6.5c10,1.2,19.9-0.2,29.6-2.6c3.7-0.9,7.3-2,11.1-3c-0.3,1.3-0.6,2.6-0.9,3.9c-1.6,7-3.2,13.9-4.8,20.9c-0.2,0.7-0.5,1-1.2,1.1c-6.6,1-13.2,2.3-19.9,3.2c-10.2,1.3-20.5,1.7-30.8,1.2c-8.7-0.4-17.3-1.8-25.6-4.3c-8.7-2.7-16.8-6.7-23.7-12.8c-8.7-7.6-14.3-17-16.3-28.5c-2.2-12.9,0.4-25,6.7-36.3c6.5-11.8,16-20.9,27.3-28c11.2-7.1,23.3-11.7,36.2-14.5c8.8-1.9,17.6-2.9,26.6-3.1c0.4,0,0.7-0.1,1.1-0.2C433.4,0,435.6,0,437.8,0z"/>
        <path d="M157.2,58.4c2.3,3.6,4.6,7.2,6.9,10.7c7.7,11.7,15.3,23.4,23.1,35c3,4.6,6.9,8.3,11.9,10.8c2.3,1.1,4.7,1.6,7.2,1.8c0,0.3,0,0.5-0.1,0.8c-0.6,2.4-1.2,4.8-1.7,7.1c-0.1,0.5-0.4,0.7-0.9,0.7c-11.3,0-22.7,0.1-34-0.1c-5.9-0.1-11.8-1.1-17.3-3.5c-5.9-2.6-10.6-6.8-14.9-11.6c-6.7-7.6-12.2-16-17.7-24.5c-3.2-5-6.3-10-9.5-15c-0.2-0.3-0.4-0.6-0.7-1.1c-0.2,0.5-0.3,0.8-0.4,1.1c-3.3,11.9-6.5,23.7-9.7,35.6c-1,3.6-0.1,6.2,3.2,8.1c1.5,0.9,3.2,1.5,5,2.3c0,0,0,0.3-0.1,0.5c-0.6,2.5-1.2,5-1.8,7.4c-0.1,0.5-0.3,0.8-0.9,0.7c-0.2,0-0.4,0-0.6,0c-20.9,0-41.9,0-62.8,0c-0.4,0-0.8,0-1.4,0c0.7-3,1.5-5.8,2.2-8.7c1.3-0.1,2.5-0.2,3.7-0.4c3.5-0.7,6.1-2.9,8.2-5.7c2.9-4,4.6-8.5,5.9-13.3C66.8,72.5,73.6,47.7,80.4,23c0.6-2,0.8-4.1,0.4-6.2c-0.5-3-2.3-5-5-6.2c-1.2-0.6-2.5-0.9-4-1.4c0.6-2.6,1.3-5.2,1.9-7.9c20.8,0,41.6,0,62.5,0c-0.1,0.4-0.1,0.7-0.2,1c-0.5,2-1,4-1.5,5.9c-0.2,0.8-0.5,1.1-1.3,1.3c-5.2,1.3-8.7,4.3-10.1,9.7c-3.4,12.8-7,25.6-10.6,38.4c-0.1,0.3-0.2,0.6-0.3,1.2c0.5-0.3,0.7-0.5,1-0.7c17-13.1,34-26.1,51.1-39.2c0.5-0.4,0.9-0.7,1.3-1.2c2-2.2,1.8-4.6-0.6-6.3c-0.8-0.6-1.7-1.1-2.6-1.4c-0.9-0.4-1.9-0.6-3-0.9c0.6-2.6,1.3-5.2,2-7.9c21.8,0,43.6,0,65.6,0c-0.5,2.1-1.1,4.2-1.5,6.3c-0.2,1.2-0.7,1.7-2,1.8c-5,0.5-9.1,2.9-12.9,6c-17.6,14.1-35.1,28.2-52.7,42.3C157.8,57.8,157.6,58.1,157.2,58.4z"/>
        <path d="M349.2,1.3c-0.5,2.2-1,4.3-1.6,6.3c-2.2,8.6-4.3,17.3-6.5,25.9c-0.2,0.6-0.4,0.9-1.1,0.9c-1.1-0.1-2.2,0-3.2,0c-1.4-4.8-5-6.8-9.3-7.8c-0.9-0.2-1.8-0.2-2.6-0.2c-12.2,0-24.4,0-36.7,0c-0.3,0-0.7,0-1.1,0c-2.1,8-4.3,15.9-6.5,23.9c14.5,0,28.8,0,43.3,0c-2.5,10.1-4.9,20-7.4,30c-0.2-0.1-0.3-0.1-0.4-0.2c-3.1-3.5-7.2-5.1-11.7-5.8c-2.2-0.3-4.4-0.4-6.6-0.4c-7.7,0-15.5,0-23.2,0c-0.6,0-1,0-1.2,0.8c-2.7,10-5.4,19.9-8.1,29.9c-1.3,4.8,0.5,8.5,4.9,10.9c0.5,0.3,1.1,0.6,1.7,0.7c1.1,0.2,1.2,0.8,0.9,1.7c-0.6,2.1-1.1,4.3-1.6,6.4c-0.2,0.7-0.4,0.9-1.1,0.9c-2.2,0-4.4,0-6.5,0c-15.8,0-31.5,0-47.3,0c-0.4,0-0.8,0-1.3,0c0.9-3.2,1.7-6.3,2.6-9.4c8.4-30.6,16.8-61.3,25.2-91.9c0.6-2.1,1.2-4.2,0.9-6.4c-0.4-3.1-2-5.3-4.6-6.7c-1.4-0.7-2.9-1.2-4.5-1.8c0.6-2.5,1.3-5.2,2-7.8C274.3,1.3,311.6,1.3,349.2,1.3z"/>
    </symbol>
    <!-- kfc -->

  </defs>
</svg>